<svg width="36" height="28" viewBox="0 0 36 28" fill="none" xmlns="http://www.w3.org/2000/svg">
<mask id="mask0" mask-type="alpha" maskUnits="userSpaceOnUse" x="0" y="0" width="36" height="28">
<path d="M35.7019 2.91889C35.379 2.06208 34.8042 1.32405 34.0538 0.802734C33.3033 0.281417 32.4127 0.00145696 31.5 0L4.50005 0C3.57186 0.00248082 2.66715 0.292987 1.90988 0.83171C1.15261 1.37043 0.579843 2.13101 0.270062 3.00923C0.0887816 3.49085 -0.00273933 4.00182 6.24328e-05 4.51666V22.5833C0.000756606 23.4824 0.268785 24.3608 0.769832 25.1061C1.27088 25.8515 1.98214 26.4297 2.81256 26.7669C3.34787 26.9878 3.92124 27.101 4.50005 27.1H31.5C32.05 27.1031 32.5951 26.9956 33.1031 26.7838C34.0954 26.4181 34.9238 25.7068 35.4375 24.7795C35.808 24.1074 36.0016 23.3515 36 22.5833V4.51666C35.9995 3.97019 35.8984 3.42851 35.7019 2.91889ZM2.99818 4.51666C2.99966 4.11732 3.15837 3.73476 3.43971 3.45239C3.72104 3.17001 4.10219 3.01071 4.50005 3.00923H31.5C31.8979 3.01071 32.279 3.17001 32.5603 3.45239C32.8417 3.73476 33.0004 4.11732 33.0019 4.51666V4.8046L21.0431 13.8379L18.5625 15.7631L18 16.1866L17.4375 15.7462L14.9288 13.8662L2.99818 4.86106V4.51666ZM2.99818 22.5833V8.62682L12.4369 15.7462L3.03193 22.8374C3.01111 22.7542 2.99979 22.669 2.99818 22.5833ZM6.37317 24.0907L14.94 17.6319L17.1 19.2692C17.3587 19.467 17.6749 19.5741 18 19.5741C18.3252 19.5741 18.6414 19.467 18.9 19.2692L21.0431 17.6432L29.5481 24.0907H6.37317ZM33.0019 22.5833C33.0019 22.6903 32.9867 22.7968 32.9569 22.8995L23.535 15.7462L33.0019 8.56472V22.5833Z" fill="#35353D"/>
</mask>
<g mask="url(#mask0)">
<rect x="-9" y="-11" width="56" height="46" fill="#CCFF00"/>
</g>
</svg>
