<svg width="31" height="31" viewBox="0 0 31 31" fill="none" xmlns="http://www.w3.org/2000/svg">
<mask id="mask0" mask-type="alpha" maskUnits="userSpaceOnUse" x="0" y="0" width="31" height="31">
<g clip-path="url(#clip0)">
<path d="M29.4282 0.14071C29.3062 0.0339655 29.1452 -0.0146062 28.9825 0.00459658L11.4742 2.26996C11.1923 2.30667 10.9817 2.54614 10.9817 2.83022V6.22854V8.60742V23.3116C10.0006 22.1877 8.47062 21.462 6.74633 21.462C3.7829 21.462 1.38086 23.5974 1.38086 26.231C1.38086 28.8646 3.7829 31.0001 6.74633 31.0001C9.70977 31.0001 12.1118 28.8646 12.1118 26.231C12.1118 26.0435 12.0966 25.8594 12.0728 25.677C12.0954 25.616 12.1118 25.5521 12.1118 25.4832V9.10331L28.4906 6.98366V17.6632C27.509 16.5398 25.979 15.8141 24.2547 15.8141C21.2913 15.8141 18.8892 17.9496 18.8892 20.5832C18.8892 23.2168 21.2913 25.3522 24.2547 25.3522C27.2181 25.3522 29.6202 23.2168 29.6202 20.5832C29.6202 20.5312 29.6134 20.4809 29.6117 20.4295C29.6128 20.4143 29.6202 20.4013 29.6202 20.386V6.34094V3.96262V0.564865C29.6202 0.402206 29.5501 0.247455 29.4282 0.14071Z" fill="#EA6248"/>
</g>
</mask>
<g mask="url(#mask0)">
<rect x="-3" y="-6" width="42" height="44" fill="#CCFF00"/>
</g>
<defs>
<clipPath id="clip0">
<rect width="31" height="31" fill="white"/>
</clipPath>
</defs>
</svg>
