<svg width="35" height="35" viewBox="0 0 35 35" fill="none" xmlns="http://www.w3.org/2000/svg">
<mask id="mask0" mask-type="alpha" maskUnits="userSpaceOnUse" x="0" y="0" width="35" height="35">
<path d="M31.1501 20.265C29.6801 18.725 27.6851 17.85 25.5501 17.85H18.2001V16.1C18.2001 14.945 17.2551 14 16.1001 14H13.6501C12.8801 14 12.2501 13.37 12.2501 12.6C12.2501 11.83 12.8801 11.2 13.6501 11.2H18.2001H19.9501H24.5001C26.0401 11.2 27.3001 9.94 27.3001 8.4C27.3001 6.86 26.0401 5.6 24.5001 5.6H20.3001C19.9151 5.6 19.6001 5.285 19.6001 4.9V2.45C19.6001 2.065 19.2851 1.75 18.9001 1.75C18.5151 1.75 18.2001 2.065 18.2001 2.45V4.9C18.2001 6.055 19.1451 7 20.3001 7H24.5001C25.2701 7 25.9001 7.63 25.9001 8.4C25.9001 9.17 25.2701 9.8 24.5001 9.8H19.9501H18.2001H13.6501C12.1101 9.8 10.8501 11.06 10.8501 12.6C10.8501 14.14 12.1101 15.4 13.6501 15.4H16.1001C16.4851 15.4 16.8001 15.715 16.8001 16.1V17.85H9.4501C7.3151 17.85 5.3201 18.69 3.8501 20.265C2.3801 21.805 1.6451 23.835 1.7501 25.97C1.9601 29.995 5.4251 33.25 9.4501 33.25C9.4851 33.25 9.4851 33.25 9.5201 33.25C11.9701 33.215 14.2451 32.06 15.6801 30.1H19.3551C20.7901 32.06 23.0651 33.215 25.5151 33.25C25.5501 33.25 25.5501 33.25 25.5851 33.25C29.6101 33.25 33.0751 29.995 33.2851 25.97C33.3551 23.835 32.6201 21.805 31.1501 20.265ZM31.8501 25.9C31.6751 29.19 28.8751 31.85 25.5501 31.85H25.5151C23.4151 31.85 21.4551 30.765 20.3001 29.015C20.1601 28.805 19.9151 28.7 19.6701 28.7C19.6351 28.7 19.6351 28.7 19.6351 28.7H15.4001C15.3651 28.7 15.3651 28.7 15.3651 28.7C15.1201 28.665 14.8751 28.805 14.7351 29.015C13.5801 30.765 11.6201 31.85 9.5201 31.85H9.4851C6.1951 31.85 3.3601 29.19 3.1851 25.9C3.0801 24.15 3.7101 22.505 4.9001 21.21C6.0901 19.95 7.7001 19.25 9.4501 19.25H25.5501C27.3001 19.25 28.9101 19.95 30.1351 21.21C31.3251 22.47 31.9201 24.15 31.8501 25.9ZM12.2501 25.55C12.2501 25.935 11.9351 26.25 11.5501 26.25H10.1501V27.65C10.1501 28.035 9.8351 28.35 9.4501 28.35C9.0651 28.35 8.7501 28.035 8.7501 27.65V26.25H7.3501C6.9651 26.25 6.6501 25.935 6.6501 25.55C6.6501 25.165 6.9651 24.85 7.3501 24.85H8.7501V23.45C8.7501 23.065 9.0651 22.75 9.4501 22.75C9.8351 22.75 10.1501 23.065 10.1501 23.45V24.85H11.5501C11.9351 24.85 12.2501 25.165 12.2501 25.55ZM24.2901 23.66C24.4301 23.8 24.5001 23.975 24.5001 24.15C24.5001 24.325 24.4301 24.5 24.2901 24.64C24.2551 24.675 24.2201 24.71 24.1851 24.71C24.1501 24.745 24.1151 24.745 24.0801 24.78C24.0451 24.78 24.0101 24.815 23.9401 24.815C23.9051 24.815 23.8351 24.815 23.8001 24.815C23.6951 24.815 23.6251 24.815 23.5201 24.745C23.4501 24.71 23.3451 24.675 23.3101 24.605C23.1701 24.5 23.1001 24.325 23.1001 24.15C23.1001 23.975 23.1701 23.8 23.3101 23.66C23.5551 23.38 24.0451 23.38 24.2901 23.66ZM27.7901 22.61C27.9301 22.75 28.0001 22.925 28.0001 23.1C28.0001 23.135 28.0001 23.205 28.0001 23.24C28.0001 23.275 27.9651 23.345 27.9651 23.38C27.9651 23.415 27.9301 23.45 27.8951 23.485C27.8601 23.52 27.8251 23.555 27.8251 23.59C27.6501 23.73 27.4751 23.8 27.3001 23.8C27.1951 23.8 27.1251 23.8 27.0201 23.73C26.9501 23.695 26.8451 23.66 26.8101 23.59C26.7751 23.555 26.7401 23.52 26.7051 23.485C26.6701 23.45 26.6701 23.415 26.6351 23.38C26.6351 23.345 26.6001 23.31 26.6001 23.24C26.6001 23.205 26.6001 23.135 26.6001 23.1C26.6001 22.925 26.6701 22.75 26.8101 22.61C26.8451 22.575 26.8801 22.54 26.9151 22.54C26.9501 22.505 26.9851 22.505 27.0201 22.47C27.0551 22.47 27.0901 22.435 27.1601 22.435C27.2651 22.435 27.3351 22.435 27.4401 22.435C27.4751 22.435 27.5101 22.47 27.5801 22.47C27.6151 22.505 27.6501 22.505 27.6851 22.54C27.7201 22.54 27.7551 22.575 27.7901 22.61ZM24.2901 26.46C24.4301 26.6 24.5001 26.775 24.5001 26.95C24.5001 27.125 24.4301 27.3 24.2901 27.44C24.2551 27.475 24.2201 27.51 24.1851 27.51C24.1501 27.545 24.1151 27.545 24.0801 27.58C24.0451 27.615 24.0101 27.615 23.9401 27.615C23.9051 27.615 23.8351 27.615 23.8001 27.615C23.6251 27.615 23.4501 27.545 23.3101 27.405C23.2401 27.335 23.2051 27.265 23.1701 27.195C23.1001 27.125 23.1001 27.055 23.1001 26.95C23.1001 26.775 23.1701 26.6 23.3101 26.46C23.3451 26.425 23.3801 26.39 23.4151 26.39C23.4501 26.355 23.4851 26.355 23.5201 26.32C23.5551 26.32 23.5901 26.285 23.6601 26.285C23.7301 26.285 23.8351 26.285 23.9401 26.285C23.9751 26.285 24.0101 26.32 24.0801 26.32C24.1151 26.355 24.1501 26.355 24.1851 26.39C24.2201 26.39 24.2551 26.425 24.2901 26.46ZM28.0001 25.76C28.0001 25.795 28.0001 25.865 28.0001 25.9C28.0001 26.005 28.0001 26.075 27.9301 26.18C27.8951 26.25 27.8601 26.355 27.7901 26.39C27.6501 26.53 27.4751 26.6 27.3001 26.6C27.1951 26.6 27.1251 26.6 27.0201 26.53C26.9501 26.495 26.8451 26.46 26.8101 26.39C26.7401 26.32 26.7051 26.25 26.6701 26.18C26.6001 26.075 26.6001 26.005 26.6001 25.9C26.6001 25.865 26.6001 25.795 26.6001 25.76C26.6001 25.725 26.6351 25.655 26.6351 25.62C26.6701 25.585 26.6701 25.55 26.7051 25.515C26.7401 25.48 26.7751 25.445 26.7751 25.41C26.8101 25.375 26.8451 25.34 26.8801 25.34C26.9151 25.305 26.9501 25.305 26.9851 25.27C27.0201 25.27 27.0551 25.235 27.1251 25.235C27.2301 25.235 27.3001 25.235 27.4051 25.235C27.4401 25.235 27.4751 25.27 27.5451 25.27C27.5801 25.305 27.6151 25.305 27.6501 25.34C27.6851 25.375 27.7201 25.41 27.7551 25.41C27.7901 25.445 27.8251 25.48 27.8251 25.515C27.8601 25.55 27.8601 25.585 27.8951 25.62C27.9301 25.655 27.9651 25.725 28.0001 25.76ZM16.8001 26.6C16.8001 26.985 16.4851 27.3 16.1001 27.3H15.4001C15.0151 27.3 14.7001 26.985 14.7001 26.6C14.7001 26.215 15.0151 25.9 15.4001 25.9H16.1001C16.4851 25.9 16.8001 26.215 16.8001 26.6ZM20.3001 26.6C20.3001 26.985 19.9851 27.3 19.6001 27.3H18.9001C18.5151 27.3 18.2001 26.985 18.2001 26.6C18.2001 26.215 18.5151 25.9 18.9001 25.9H19.6001C19.9851 25.9 20.3001 26.215 20.3001 26.6Z" fill="black"/>
</mask>
<g mask="url(#mask0)">
<rect x="-9.10059" y="1.3999" width="53.9" height="35.35" fill="#CCFF00"/>
</g>
</svg>
