<svg width="40" height="40" viewBox="0 0 40 40" fill="none" xmlns="http://www.w3.org/2000/svg">
<mask id="mask0" mask-type="alpha" maskUnits="userSpaceOnUse" x="0" y="0" width="40" height="40">
<path d="M13.9932 6.25V7.25996V9.33872H2.5V10.3448V33.75H37.5V9.33872H25.9992V6.25H13.9932ZM15.946 8.26993H24.0577V9.33872V11.1936H15.946V8.26993ZM4.44529 11.3509H13.9932V13.2135H25.9992V13.2094H26.0031V11.3507H35.5548V31.7381H4.44529V11.3509ZM6.99848 14.6398V15.6342V28.4528H19.1641V14.6398H6.99848ZM8.93617 16.644H17.2226V24.9869C17.1487 24.7256 17.0565 24.4688 16.9491 24.2206C16.7013 23.6479 16.0732 23.3722 15.5851 22.959C15.7055 22.7715 15.9833 22.6728 16.0334 22.4835C16.191 21.8881 16.1622 21.3729 16.1626 20.9077C16.1625 19.1568 14.7806 17.7013 13.0889 17.701C11.3967 17.7005 10.0002 19.1562 10 20.9077C10.0002 21.3414 9.95007 21.825 10.0722 22.4205C10.1133 22.6213 10.4064 22.737 10.5319 22.9432C10.0351 23.3655 9.38984 23.6504 9.15275 24.2361C9.06595 24.4506 8.9979 24.6727 8.93618 24.8963L8.93617 16.644ZM22.234 16.97C21.9757 16.971 21.7283 17.0779 21.546 17.2672C21.3636 17.4565 21.2613 17.7128 21.2613 17.98C21.2613 18.2472 21.3636 18.5035 21.546 18.6928C21.7283 18.8821 21.9757 18.989 22.234 18.99H32.2872C32.5456 18.989 32.793 18.8821 32.9753 18.6928C33.1576 18.5035 33.26 18.2472 33.26 17.98C33.26 17.7128 33.1576 17.4565 32.9753 17.2672C32.793 17.0779 32.5456 16.971 32.2872 16.97H22.234ZM13.0737 19.7169V19.7209C13.7041 19.7211 14.2097 20.2335 14.2097 20.9077C14.2093 21.4119 14.2021 21.8053 14.1641 21.9491C14.1261 22.0927 14.2407 21.9775 14.0654 22.0356C13.859 22.097 13.678 22.2273 13.5508 22.4062C13.4235 22.5852 13.3571 22.8027 13.3619 23.0248C13.3666 23.2468 13.4423 23.461 13.5771 23.6339C13.7119 23.8068 13.8983 23.9288 14.1071 23.9807C14.5906 24.104 14.9044 24.4219 15.1709 25.0378C15.3243 25.3921 15.3468 25.9231 15.4141 26.4014H10.7333C10.7938 25.9159 10.8063 25.3766 10.9498 25.0221C11.1983 24.4084 11.4737 24.1033 11.9529 23.9807C12.1623 23.9307 12.3498 23.8104 12.4861 23.6385C12.6224 23.4667 12.6998 23.253 12.7063 23.0308C12.7129 22.8087 12.6481 22.5905 12.522 22.4104C12.396 22.2304 12.2159 22.0986 12.0099 22.0356C11.8436 21.9822 11.9974 22.148 11.9681 22.0072C11.9387 21.8635 11.9531 21.4456 11.9529 20.9108C11.953 20.2363 12.4432 19.7199 13.0737 19.7201L13.0737 19.7169ZM32.3936 20.7544C32.3581 20.7537 32.3226 20.7551 32.2872 20.7584H22.234C22.2062 20.7572 22.1783 20.7572 22.1505 20.7584C21.9075 20.7892 21.6848 20.9135 21.5266 21.1066C21.3684 21.2998 21.2864 21.5475 21.2969 21.8004C21.3075 22.0533 21.4098 22.2927 21.5835 22.471C21.7572 22.6493 21.9895 22.7535 22.234 22.7625H32.2872C32.4173 22.7745 32.5483 22.7593 32.6725 22.7178C32.7968 22.6763 32.9116 22.6094 33.0103 22.521C33.109 22.4326 33.1895 22.3246 33.247 22.2034C33.3045 22.0822 33.3378 21.9502 33.3449 21.8154C33.3521 21.6806 33.3329 21.5456 33.2886 21.4186C33.2442 21.2916 33.1756 21.1752 33.0869 21.0762C32.9981 20.9772 32.891 20.8976 32.7719 20.8424C32.6528 20.7871 32.5241 20.7572 32.3936 20.7544H32.3936ZM22.234 24.5308C22.1055 24.5303 21.978 24.5559 21.8591 24.6064C21.7402 24.6569 21.632 24.7313 21.5409 24.8251C21.4498 24.919 21.3775 25.0305 21.3282 25.1533C21.2788 25.2761 21.2534 25.4078 21.2534 25.5408C21.2534 25.6738 21.2788 25.8054 21.3282 25.9282C21.3775 26.051 21.4498 26.1625 21.5409 26.2564C21.632 26.3502 21.7402 26.4246 21.8591 26.4751C21.978 26.5256 22.1055 26.5512 22.234 26.5506H32.2872C32.4158 26.5512 32.5432 26.5256 32.6622 26.4751C32.7811 26.4246 32.8893 26.3502 32.9804 26.2564C33.0715 26.1625 33.1438 26.051 33.1931 25.9282C33.2424 25.8054 33.2678 25.6738 33.2678 25.5408C33.2678 25.4078 33.2424 25.2761 33.1931 25.1533C33.1438 25.0305 33.0715 24.919 32.9804 24.8251C32.8893 24.7313 32.7811 24.6569 32.6622 24.6064C32.5432 24.5559 32.4158 24.5303 32.2872 24.5308H22.234Z" fill="black"/>
</mask>
<g mask="url(#mask0)">
<rect x="-10.8115" y="1.08081" width="56.2162" height="41.0811" fill="#CCFF00"/>
</g>
</svg>
