<svg width="33" height="33" viewBox="0 0 33 33" fill="none" xmlns="http://www.w3.org/2000/svg">
<mask id="mask0" mask-type="alpha" maskUnits="userSpaceOnUse" x="0" y="0" width="33" height="33">
<path d="M18.5625 13.0625H19.9375V15.8125L23.375 13.0625H26.125C27.766 13.0625 29.3398 12.4106 30.5002 11.2502C31.6606 10.0898 32.3125 8.51603 32.3125 6.875C32.3125 5.23397 31.6606 3.66016 30.5002 2.49978C29.3398 1.3394 27.766 0.6875 26.125 0.6875H17.875C16.234 0.6875 14.6602 1.3394 13.4998 2.49978C12.3394 3.66016 11.6875 5.23397 11.6875 6.875" stroke="black" stroke-width="1.375" stroke-linecap="round" stroke-linejoin="round"/>
<path d="M0.6875 32.3125C0.705944 30.7416 1.03298 29.1896 1.65 27.7447C2.32375 26.3959 5.14112 25.4609 8.67762 24.1519C9.63325 23.7971 9.4765 21.3001 9.053 20.834C8.37833 20.1034 7.86587 19.2384 7.54926 18.2957C7.23266 17.353 7.11909 16.354 7.216 15.3642C7.15541 14.7343 7.22511 14.0987 7.42077 13.4969C7.61642 12.895 7.93384 12.3399 8.35328 11.8661C8.77271 11.3922 9.28518 11.0097 9.85879 10.7425C10.4324 10.4752 11.0549 10.3288 11.6875 10.3125C12.3206 10.3281 12.9437 10.4739 13.5179 10.7409C14.0922 11.0078 14.6053 11.3902 15.0253 11.8641C15.4454 12.338 15.7633 12.8934 15.9593 13.4956C16.1552 14.0978 16.2251 14.7339 16.1645 15.3642C16.2614 16.354 16.1478 17.353 15.8312 18.2957C15.5146 19.2384 15.0022 20.1034 14.3275 20.834C13.904 21.3001 13.7472 23.7971 14.7029 24.1519C18.2394 25.4609 21.0567 26.3959 21.7305 27.7447C22.3475 29.1896 22.6746 30.7416 22.693 32.3125H0.6875Z" stroke="black" stroke-width="1.375" stroke-linecap="round" stroke-linejoin="round"/>
<path d="M26.125 5.84375C25.921 5.84375 25.7217 5.90423 25.5521 6.01755C25.3825 6.13086 25.2503 6.29192 25.1722 6.48036C25.0942 6.66879 25.0738 6.87614 25.1136 7.07619C25.1534 7.27623 25.2516 7.45998 25.3958 7.6042C25.54 7.74843 25.7238 7.84664 25.9238 7.88643C26.1239 7.92623 26.3312 7.9058 26.5196 7.82775C26.7081 7.7497 26.8691 7.61752 26.9825 7.44793C27.0958 7.27834 27.1562 7.07896 27.1562 6.875C27.1562 6.6015 27.0476 6.33919 26.8542 6.1458C26.6608 5.9524 26.3985 5.84375 26.125 5.84375Z" fill="black"/>
<path d="M22 5.84375C21.796 5.84375 21.5967 5.90423 21.4271 6.01755C21.2575 6.13086 21.1253 6.29192 21.0473 6.48036C20.9692 6.66879 20.9488 6.87614 20.9886 7.07619C21.0284 7.27623 21.1266 7.45998 21.2708 7.6042C21.415 7.74843 21.5988 7.84664 21.7988 7.88643C21.9989 7.92623 22.2062 7.9058 22.3946 7.82775C22.5831 7.7497 22.7441 7.61752 22.8575 7.44793C22.9708 7.27834 23.0313 7.07896 23.0313 6.875C23.0313 6.6015 22.9226 6.33919 22.7292 6.1458C22.5358 5.9524 22.2735 5.84375 22 5.84375V5.84375Z" fill="black"/>
<path d="M17.875 5.84375C17.671 5.84375 17.4717 5.90423 17.3021 6.01755C17.1325 6.13086 17.0003 6.29192 16.9223 6.48036C16.8442 6.66879 16.8238 6.87614 16.8636 7.07619C16.9034 7.27623 17.0016 7.45998 17.1458 7.6042C17.29 7.74843 17.4738 7.84664 17.6738 7.88643C17.8739 7.92623 18.0812 7.9058 18.2696 7.82775C18.4581 7.7497 18.6191 7.61752 18.7325 7.44793C18.8458 7.27834 18.9063 7.07896 18.9063 6.875C18.9063 6.6015 18.7976 6.33919 18.6042 6.1458C18.4108 5.9524 18.1485 5.84375 17.875 5.84375Z" fill="black"/>
</mask>
<g mask="url(#mask0)">
<rect x="-24.75" y="-9.625" width="71.5" height="50.875" fill="#CCFF00"/>
</g>
</svg>
