<svg width="730" height="688" viewBox="0 0 730 688" fill="none" xmlns="http://www.w3.org/2000/svg">
<rect x="206.657" y="6.41786" width="48.7761" height="48.7761" fill="#D15858" stroke="black" stroke-width="2.56716"/>
<rect x="103.971" y="109.104" width="48.7761" height="48.7761" fill="#D15858" stroke="black" stroke-width="2.56716"/>
<rect x="52.6264" y="222.059" width="48.7761" height="48.7761" fill="#D15858" stroke="black" stroke-width="2.56716"/>
<rect x="1.28358" y="350.418" width="48.7761" height="48.7761" fill="#D15858" stroke="black" stroke-width="2.56716"/>
<rect x="88.5673" y="473.641" width="48.7761" height="48.7761" fill="#D15858" stroke="black" stroke-width="2.56716"/>
<rect x="175.85" y="566.059" width="48.7761" height="48.7761" fill="#D15858" stroke="black" stroke-width="2.56716"/>
<rect x="340.149" y="637.939" width="48.7761" height="48.7761" fill="#D15858" stroke="black" stroke-width="2.56716"/>
<rect x="360.687" y="6.41786" width="48.7761" height="48.7761" fill="#D15858" stroke="black" stroke-width="2.56716"/>
<rect x="463.373" y="109.104" width="48.7761" height="48.7761" fill="#E3C65E" stroke="black" stroke-width="2.56716"/>
<rect x="365.821" y="350.418" width="48.7761" height="48.7761" fill="#E3C65E" stroke="black" stroke-width="2.56716"/>
<rect x="412.03" y="222.059" width="48.7761" height="48.7761" fill="#D15858" stroke="black" stroke-width="2.56716"/>
<rect x="258" y="6.41786" width="48.7761" height="48.7761" fill="#D15858" stroke="black" stroke-width="2.56716"/>
<rect x="155.313" y="109.104" width="48.7761" height="48.7761" fill="#D15858" stroke="black" stroke-width="2.56716"/>
<rect x="206.657" y="222.059" width="48.7761" height="48.7761" fill="#E3C65E" stroke="black" stroke-width="2.56716"/>
<rect x="134.776" y="350.418" width="48.7761" height="48.7761" fill="#E3C65E" stroke="black" stroke-width="2.56716"/>
<rect x="412.03" y="6.41786" width="48.7761" height="48.7761" fill="#D15858" stroke="black" stroke-width="2.56716"/>
<rect x="478.776" y="350.418" width="48.7761" height="48.7761" fill="#D15858" stroke="black" stroke-width="2.56716"/>
<rect x="463.373" y="473.641" width="48.7761" height="48.7761" fill="#D15858" stroke="black" stroke-width="2.56716"/>
<rect x="514.716" y="109.104" width="48.7761" height="48.7761" fill="#E3C65E" stroke="black" stroke-width="2.56716"/>
<path d="M623.284 222.284H672.06V271.06H623.284V222.284Z" fill="#E3C65E" stroke="black" stroke-width="2.56716"/>
<rect x="309.343" y="6.41786" width="48.7761" height="48.7761" fill="#D15858" stroke="black" stroke-width="2.56716"/>
<rect x="206.657" y="109.104" width="48.7761" height="48.7761" fill="#D15858" stroke="black" stroke-width="2.56716"/>
<rect x="242.597" y="350.418" width="48.7761" height="48.7761" fill="#D15858" stroke="black" stroke-width="2.56716"/>
<rect x="258" y="222.059" width="48.7761" height="48.7761" fill="#E3C65E" stroke="black" stroke-width="2.56716"/>
<rect x="211.791" y="473.641" width="48.7761" height="48.7761" fill="#E3C65E" stroke="black" stroke-width="2.56716"/>
<rect x="463.373" y="6.41786" width="48.7761" height="48.7761" fill="#D15858" stroke="black" stroke-width="2.56716"/>
<rect x="566.059" y="109.104" width="48.7761" height="48.7761" fill="#E3C65E" stroke="black" stroke-width="2.56716"/>
<rect x="673.284" y="222.284" width="48.7761" height="48.7761" fill="#E3C65E" stroke="black" stroke-width="2.56716"/>
<rect x="596.865" y="473.641" width="48.7761" height="48.7761" fill="#E3C65E" stroke="black" stroke-width="2.56716"/>
<rect x="540.387" y="566.059" width="48.7761" height="48.7761" fill="#E3C65E" stroke="black" stroke-width="2.56716"/>
<rect x="632.805" y="350.418" width="48.7761" height="48.7761" fill="#E3C65E" stroke="black" stroke-width="2.56716"/>
<path d="M232.204 45.1343C230.479 45.1343 228.934 44.7389 227.568 43.9482C226.202 43.1336 225.112 42.0434 224.298 40.6777C223.507 39.288 223.112 37.7306 223.112 36.0054C223.112 35.5981 223.243 35.2627 223.507 34.9991C223.77 34.7356 224.094 34.6038 224.477 34.6038C224.885 34.6038 225.22 34.7356 225.484 34.9991C225.771 35.2627 225.915 35.5981 225.915 36.0054C225.915 37.2035 226.19 38.2817 226.741 39.2401C227.293 40.1985 228.035 40.9532 228.97 41.5043C229.928 42.0554 231.006 42.3309 232.204 42.3309C233.402 42.3309 234.481 42.0554 235.439 41.5043C236.397 40.9532 237.152 40.1985 237.703 39.2401C238.254 38.2817 238.53 37.2035 238.53 36.0054C238.53 34.8074 238.254 33.7292 237.703 32.7708C237.152 31.8124 236.397 31.0577 235.439 30.5066C234.481 29.9555 233.402 29.68 232.204 29.68H225.915C225.508 29.68 225.172 29.5482 224.909 29.2846C224.645 28.9971 224.513 28.6617 224.513 28.2783V18.4307C224.513 18.0473 224.645 17.7238 224.909 17.4603C225.172 17.1727 225.508 17.029 225.915 17.029H238.53C238.913 17.029 239.237 17.1727 239.5 17.4603C239.788 17.7238 239.932 18.0473 239.932 18.4307C239.932 18.814 239.8 19.1495 239.536 19.437C239.273 19.7005 238.937 19.8323 238.53 19.8323H227.281V26.8766H232.204C233.953 26.8766 235.511 27.2839 236.877 28.0986C238.242 28.8893 239.321 29.9795 240.111 31.3692C240.926 32.7349 241.333 34.2803 241.333 36.0054C241.333 37.7306 240.926 39.288 240.111 40.6777C239.321 42.0434 238.242 43.1336 236.877 43.9482C235.511 44.7389 233.953 45.1343 232.204 45.1343Z" fill="black"/>
<path d="M129.518 147.821C127.793 147.821 126.248 147.425 124.882 146.635C123.516 145.82 122.426 144.73 121.612 143.364C120.821 141.974 120.425 140.417 120.425 138.692C120.425 138.285 120.557 137.949 120.821 137.686C121.084 137.422 121.408 137.29 121.791 137.29C122.199 137.29 122.534 137.422 122.798 137.686C123.085 137.949 123.229 138.285 123.229 138.692C123.229 139.89 123.504 140.968 124.055 141.926C124.607 142.885 125.349 143.64 126.284 144.191C127.242 144.742 128.32 145.017 129.518 145.017C130.716 145.017 131.795 144.742 132.753 144.191C133.711 143.64 134.466 142.885 135.017 141.926C135.568 140.968 135.844 139.89 135.844 138.692C135.844 137.494 135.568 136.416 135.017 135.457C134.466 134.499 133.711 133.744 132.753 133.193C131.795 132.642 130.716 132.366 129.518 132.366H123.229C122.821 132.366 122.486 132.235 122.222 131.971C121.959 131.683 121.827 131.348 121.827 130.965V121.117C121.827 120.734 121.959 120.41 122.222 120.147C122.486 119.859 122.821 119.715 123.229 119.715H135.844C136.227 119.715 136.551 119.859 136.814 120.147C137.102 120.41 137.246 120.734 137.246 121.117C137.246 121.5 137.114 121.836 136.85 122.123C136.587 122.387 136.251 122.519 135.844 122.519H124.595V129.563H129.518C131.267 129.563 132.825 129.97 134.191 130.785C135.556 131.576 136.635 132.666 137.425 134.056C138.24 135.421 138.647 136.967 138.647 138.692C138.647 140.417 138.24 141.974 137.425 143.364C136.635 144.73 135.556 145.82 134.191 146.635C132.825 147.425 131.267 147.821 129.518 147.821Z" fill="black"/>
<path d="M78.1751 260.776C76.45 260.776 74.9045 260.381 73.5388 259.59C72.1731 258.775 71.0829 257.685 70.2682 256.319C69.4776 254.93 69.0822 253.372 69.0822 251.647C69.0822 251.24 69.214 250.904 69.4776 250.641C69.7411 250.377 70.0646 250.245 70.4479 250.245C70.8553 250.245 71.1907 250.377 71.4543 250.641C71.7418 250.904 71.8856 251.24 71.8856 251.647C71.8856 252.845 72.1611 253.923 72.7122 254.882C73.2633 255.84 74.006 256.595 74.9405 257.146C75.8989 257.697 76.9771 257.973 78.1751 257.973C79.3731 257.973 80.4513 257.697 81.4097 257.146C82.3681 256.595 83.1229 255.84 83.674 254.882C84.225 253.923 84.5006 252.845 84.5006 251.647C84.5006 250.449 84.225 249.371 83.674 248.412C83.1229 247.454 82.3681 246.699 81.4097 246.148C80.4513 245.597 79.3731 245.322 78.1751 245.322H71.8856C71.4782 245.322 71.1428 245.19 70.8792 244.926C70.6157 244.639 70.4839 244.303 70.4839 243.92V234.072C70.4839 233.689 70.6157 233.365 70.8792 233.102C71.1428 232.814 71.4782 232.671 71.8856 232.671H84.5006C84.8839 232.671 85.2074 232.814 85.471 233.102C85.7585 233.365 85.9023 233.689 85.9023 234.072C85.9023 234.456 85.7705 234.791 85.5069 235.079C85.2434 235.342 84.9079 235.474 84.5006 235.474H73.2513V242.518H78.1751C79.9242 242.518 81.4816 242.926 82.8473 243.74C84.2131 244.531 85.2913 245.621 86.082 247.011C86.8966 248.376 87.3039 249.922 87.3039 251.647C87.3039 253.372 86.8966 254.93 86.082 256.319C85.2913 257.685 84.2131 258.775 82.8473 259.59C81.4816 260.381 79.9242 260.776 78.1751 260.776Z" fill="black"/>
<path d="M26.8323 389.134C25.1072 389.134 23.5618 388.739 22.196 387.948C20.8303 387.133 19.7401 386.043 18.9255 384.677C18.1348 383.288 17.7394 381.73 17.7394 380.005C17.7394 379.598 17.8712 379.262 18.1348 378.999C18.3983 378.735 18.7218 378.604 19.1052 378.604C19.5125 378.604 19.8479 378.735 20.1115 378.999C20.399 379.262 20.5428 379.598 20.5428 380.005C20.5428 381.203 20.8183 382.281 21.3694 383.24C21.9205 384.198 22.6633 384.953 23.5977 385.504C24.5561 386.055 25.6343 386.331 26.8323 386.331C28.0303 386.331 29.1085 386.055 30.0669 385.504C31.0254 384.953 31.7801 384.198 32.3312 383.24C32.8823 382.281 33.1578 381.203 33.1578 380.005C33.1578 378.807 32.8823 377.729 32.3312 376.771C31.7801 375.812 31.0254 375.057 30.0669 374.506C29.1085 373.955 28.0303 373.68 26.8323 373.68H20.5428C20.1355 373.68 19.8 373.548 19.5365 373.284C19.2729 372.997 19.1411 372.661 19.1411 372.278V362.43C19.1411 362.047 19.2729 361.724 19.5365 361.46C19.8 361.173 20.1355 361.029 20.5428 361.029H33.1578C33.5412 361.029 33.8646 361.173 34.1282 361.46C34.4157 361.724 34.5595 362.047 34.5595 362.43C34.5595 362.814 34.4277 363.149 34.1641 363.437C33.9006 363.7 33.5651 363.832 33.1578 363.832H21.9085V370.876H26.8323C28.5814 370.876 30.1388 371.284 31.5046 372.098C32.8703 372.889 33.9485 373.979 34.7392 375.369C35.5538 376.735 35.9612 378.28 35.9612 380.005C35.9612 381.73 35.5538 383.288 34.7392 384.677C33.9485 386.043 32.8703 387.133 31.5046 387.948C30.1388 388.739 28.5814 389.134 26.8323 389.134Z" fill="black"/>
<path d="M96.3719 512.358C95.9885 512.358 95.6531 512.226 95.3656 511.963C95.102 511.699 94.9702 511.364 94.9702 510.956C94.9702 510.597 95.102 510.273 95.3656 509.986L106.255 497.119C106.854 496.472 107.334 495.754 107.693 494.963C108.052 494.148 108.232 493.393 108.232 492.699C108.232 491.021 107.741 489.644 106.759 488.565C105.776 487.487 104.506 486.948 102.949 486.948C101.943 486.948 101.02 487.212 100.182 487.739C99.3669 488.242 98.72 488.925 98.2408 489.787C97.7855 490.65 97.5579 491.62 97.5579 492.699C97.5579 493.082 97.4261 493.405 97.1626 493.669C96.899 493.933 96.5636 494.064 96.1562 494.064C95.7729 494.064 95.4374 493.933 95.1499 493.669C94.8864 493.405 94.7546 493.082 94.7546 492.699C94.7546 491.093 95.114 489.656 95.8328 488.386C96.5516 487.116 97.522 486.11 98.7439 485.367C99.9899 484.624 101.392 484.253 102.949 484.253C104.506 484.253 105.884 484.612 107.082 485.331C108.304 486.05 109.25 487.044 109.921 488.314C110.616 489.584 110.964 491.045 110.964 492.699C110.964 493.873 110.676 494.987 110.101 496.041C109.55 497.071 108.903 498.018 108.16 498.88L98.9596 509.555H110.209C110.592 509.555 110.916 509.698 111.179 509.986C111.467 510.273 111.611 510.597 111.611 510.956C111.611 511.364 111.467 511.699 111.179 511.963C110.916 512.226 110.592 512.358 110.209 512.358H96.3719ZM124.731 512.358C123.006 512.358 121.46 511.963 120.094 511.172C118.729 510.357 117.639 509.267 116.824 507.901C116.033 506.512 115.638 504.954 115.638 503.229C115.638 502.822 115.77 502.486 116.033 502.223C116.297 501.959 116.62 501.827 117.004 501.827C117.411 501.827 117.746 501.959 118.01 502.223C118.297 502.486 118.441 502.822 118.441 503.229C118.441 504.427 118.717 505.505 119.268 506.464C119.819 507.422 120.562 508.177 121.496 508.728C122.455 509.279 123.533 509.555 124.731 509.555C125.929 509.555 127.007 509.279 127.965 508.728C128.924 508.177 129.678 507.422 130.23 506.464C130.781 505.505 131.056 504.427 131.056 503.229C131.056 502.031 130.781 500.953 130.23 499.994C129.678 499.036 128.924 498.281 127.965 497.73C127.007 497.179 125.929 496.904 124.731 496.904H118.441C118.034 496.904 117.698 496.772 117.435 496.508C117.171 496.221 117.04 495.885 117.04 495.502V485.654C117.04 485.271 117.171 484.947 117.435 484.684C117.698 484.396 118.034 484.253 118.441 484.253H131.056C131.44 484.253 131.763 484.396 132.027 484.684C132.314 484.947 132.458 485.271 132.458 485.654C132.458 486.038 132.326 486.373 132.063 486.661C131.799 486.924 131.464 487.056 131.056 487.056H119.807V494.1H124.731C126.48 494.1 128.037 494.508 129.403 495.322C130.769 496.113 131.847 497.203 132.638 498.593C133.452 499.959 133.86 501.504 133.86 503.229C133.86 504.954 133.452 506.512 132.638 507.901C131.847 509.267 130.769 510.357 129.403 511.172C128.037 511.963 126.48 512.358 124.731 512.358Z" fill="black"/>
<path d="M190.483 604.955C188.806 604.955 187.297 604.596 185.955 603.877C184.637 603.134 183.595 602.128 182.828 600.858C182.061 599.588 181.678 598.151 181.678 596.545C181.678 596.138 181.798 595.791 182.037 595.503C182.277 595.216 182.6 595.072 183.008 595.072C183.415 595.072 183.738 595.216 183.978 595.503C184.218 595.791 184.337 596.138 184.337 596.545C184.337 597.647 184.601 598.642 185.128 599.528C185.655 600.391 186.374 601.086 187.285 601.613C188.219 602.116 189.249 602.368 190.375 602.368C192.244 602.368 193.706 601.852 194.76 600.822C195.814 599.768 196.342 598.414 196.342 596.761C196.342 595.587 196.09 594.569 195.587 593.706C195.084 592.82 194.401 592.137 193.538 591.657C192.676 591.154 191.705 590.903 190.627 590.903C190.244 590.903 189.92 590.771 189.657 590.507C189.393 590.244 189.261 589.908 189.261 589.501C189.261 589.118 189.393 588.794 189.657 588.531C189.92 588.267 190.244 588.135 190.627 588.135C191.466 588.135 192.232 587.932 192.927 587.524C193.646 587.093 194.221 586.53 194.652 585.835C195.084 585.14 195.299 584.374 195.299 583.535C195.299 582.265 194.868 581.211 194.005 580.372C193.143 579.51 191.993 579.078 190.555 579.078C189.046 579.078 187.8 579.51 186.817 580.372C185.835 581.211 185.344 582.253 185.344 583.499C185.344 583.906 185.212 584.254 184.948 584.541C184.709 584.805 184.397 584.937 184.014 584.937C183.607 584.937 183.283 584.805 183.044 584.541C182.804 584.254 182.684 583.918 182.684 583.535C182.684 582.217 183.02 581.031 183.691 579.977C184.385 578.899 185.32 578.06 186.494 577.461C187.668 576.838 189.022 576.527 190.555 576.527C191.945 576.527 193.191 576.838 194.293 577.461C195.419 578.06 196.306 578.899 196.953 579.977C197.623 581.031 197.959 582.217 197.959 583.535C197.959 584.35 197.755 585.14 197.348 585.907C196.964 586.674 196.449 587.369 195.802 587.992C195.155 588.591 194.449 589.058 193.682 589.393C195.527 589.944 196.893 590.903 197.779 592.268C198.666 593.634 199.109 595.132 199.109 596.761C199.109 598.342 198.726 599.756 197.959 601.002C197.216 602.224 196.186 603.194 194.868 603.913C193.55 604.608 192.089 604.955 190.483 604.955ZM211.507 604.776C209.878 604.776 208.428 604.416 207.158 603.697C205.888 602.955 204.882 601.948 204.139 600.678C203.42 599.409 203.061 597.959 203.061 596.33C203.061 594.772 203.42 593.347 204.139 592.053H204.103L204.175 591.945C204.247 591.825 204.319 591.705 204.391 591.586L212.98 577.461C213.292 576.958 213.711 576.706 214.238 576.706C214.789 576.706 215.197 576.946 215.46 577.425C215.748 577.88 215.748 578.348 215.46 578.827L209.818 588.027C210.369 587.932 210.932 587.884 211.507 587.884C213.112 587.884 214.55 588.255 215.82 588.998C217.09 589.717 218.084 590.723 218.803 592.017C219.546 593.287 219.917 594.724 219.917 596.33C219.917 597.959 219.546 599.409 218.803 600.678C218.084 601.948 217.09 602.955 215.82 603.697C214.55 604.416 213.112 604.776 211.507 604.776ZM211.471 602.188C212.573 602.188 213.555 601.936 214.418 601.433C215.305 600.93 215.999 600.235 216.503 599.349C217.006 598.462 217.257 597.456 217.257 596.33C217.257 595.204 217.006 594.197 216.503 593.311C215.999 592.424 215.305 591.729 214.418 591.226C213.555 590.699 212.573 590.435 211.471 590.435C210.369 590.435 209.386 590.699 208.524 591.226C207.661 591.729 206.978 592.424 206.475 593.311C205.972 594.197 205.721 595.204 205.721 596.33C205.721 597.456 205.972 598.462 206.475 599.349C206.978 600.235 207.661 600.93 208.524 601.433C209.386 601.936 210.369 602.188 211.471 602.188Z" fill="black"/>
<path d="M359.916 676.656C358.287 676.656 356.837 676.296 355.568 675.578C354.298 674.835 353.291 673.828 352.549 672.559C351.83 671.289 351.47 669.839 351.47 668.21C351.47 666.652 351.83 665.227 352.549 663.933H352.513L352.585 663.825C352.656 663.705 352.728 663.585 352.8 663.466L361.39 649.341C361.701 648.838 362.121 648.586 362.648 648.586C363.199 648.586 363.606 648.826 363.87 649.305C364.157 649.76 364.157 650.228 363.87 650.707L358.227 659.908C358.778 659.812 359.341 659.764 359.916 659.764C361.522 659.764 362.959 660.135 364.229 660.878C365.499 661.597 366.493 662.603 367.212 663.897C367.955 665.167 368.326 666.604 368.326 668.21C368.326 669.839 367.955 671.289 367.212 672.559C366.493 673.828 365.499 674.835 364.229 675.578C362.959 676.296 361.522 676.656 359.916 676.656ZM359.88 674.068C360.983 674.068 361.965 673.816 362.828 673.313C363.714 672.81 364.409 672.115 364.912 671.229C365.415 670.342 365.667 669.336 365.667 668.21C365.667 667.084 365.415 666.077 364.912 665.191C364.409 664.304 363.714 663.609 362.828 663.106C361.965 662.579 360.983 662.316 359.88 662.316C358.778 662.316 357.796 662.579 356.933 663.106C356.071 663.609 355.388 664.304 354.885 665.191C354.382 666.077 354.13 667.084 354.13 668.21C354.13 669.336 354.382 670.342 354.885 671.229C355.388 672.115 356.071 672.81 356.933 673.313C357.796 673.816 358.778 674.068 359.88 674.068ZM378.537 676.656C378.154 676.656 377.818 676.524 377.531 676.26C377.267 675.997 377.135 675.661 377.135 675.254V651.893L373.541 653.151C373.278 653.271 373.038 653.331 372.823 653.331C372.415 653.331 372.08 653.199 371.816 652.935C371.553 652.672 371.421 652.348 371.421 651.965C371.421 651.677 371.481 651.414 371.601 651.174C371.744 650.935 371.984 650.755 372.319 650.635L377.854 648.73C377.974 648.682 378.094 648.646 378.214 648.622C378.357 648.574 378.477 648.55 378.573 648.55C378.98 648.55 379.304 648.694 379.543 648.982C379.807 649.245 379.939 649.569 379.939 649.952V675.254C379.939 675.661 379.807 675.997 379.543 676.26C379.28 676.524 378.944 676.656 378.537 676.656Z" fill="black"/>
<path d="M261.235 45C260.797 45 260.414 44.8494 260.085 44.5482C259.784 44.247 259.633 43.8636 259.633 43.3981C259.633 42.9873 259.784 42.6177 260.085 42.2891L272.531 27.5844C273.215 26.845 273.763 26.0235 274.173 25.1199C274.584 24.1889 274.79 23.3263 274.79 22.5322C274.79 20.6154 274.228 19.0409 273.106 17.8086C271.983 16.5764 270.532 15.9603 268.752 15.9603C267.602 15.9603 266.547 16.2615 265.589 16.8639C264.658 17.4389 263.919 18.2194 263.371 19.2052C262.851 20.1909 262.59 21.3 262.59 22.5322C262.59 22.9703 262.44 23.34 262.139 23.6412C261.837 23.9424 261.454 24.093 260.989 24.093C260.55 24.093 260.167 23.9424 259.838 23.6412C259.537 23.34 259.387 22.9703 259.387 22.5322C259.387 20.6975 259.797 19.0545 260.619 17.6032C261.44 16.1519 262.549 15.0019 263.946 14.153C265.37 13.3041 266.972 12.8797 268.752 12.8797C270.532 12.8797 272.106 13.2904 273.475 14.1119C274.872 14.9334 275.953 16.0698 276.72 17.5211C277.514 18.9724 277.911 20.6428 277.911 22.5322C277.911 23.874 277.583 25.1473 276.925 26.3521C276.296 27.5296 275.556 28.6112 274.707 29.597L264.192 41.7962H277.049C277.487 41.7962 277.857 41.9605 278.158 42.2891C278.486 42.6177 278.651 42.9873 278.651 43.3981C278.651 43.8636 278.486 44.247 278.158 44.5482C277.857 44.8494 277.487 45 277.049 45H261.235ZM292.29 45C289.223 45 286.84 43.5761 285.143 40.7282C283.472 37.8804 282.637 33.9372 282.637 28.8988C282.637 25.5854 283.007 22.7239 283.746 20.3142C284.513 17.9045 285.622 16.0561 287.073 14.7691C288.524 13.4821 290.263 12.8386 292.29 12.8386C294.371 12.8386 296.123 13.4958 297.547 14.8102C298.998 16.0972 300.094 17.9455 300.833 20.3552C301.6 22.765 301.983 25.6128 301.983 28.8988C301.983 32.2395 301.6 35.1147 300.833 37.5244C300.094 39.9068 298.998 41.7551 297.547 43.0695C296.123 44.3565 294.371 45 292.29 45ZM292.29 41.7962C293.768 41.7962 294.987 41.2485 295.945 40.1532C296.904 39.0305 297.616 37.497 298.081 35.5528C298.547 33.6086 298.779 31.3906 298.779 28.8988C298.779 26.4343 298.533 24.2436 298.04 22.3268C297.575 20.3826 296.863 18.8492 295.904 17.7265C294.946 16.6038 293.741 16.0424 292.29 16.0424C290.838 16.0424 289.633 16.6038 288.675 17.7265C287.744 18.8218 287.032 20.3416 286.539 22.2857C286.074 24.2299 285.841 26.4343 285.841 28.8988C285.841 31.418 286.074 33.6497 286.539 35.5939C287.032 37.5107 287.744 39.0305 288.675 40.1532C289.633 41.2485 290.838 41.7962 292.29 41.7962Z" fill="black"/>
<path d="M158.548 147.687C158.11 147.687 157.726 147.536 157.398 147.235C157.097 146.933 156.946 146.55 156.946 146.085C156.946 145.674 157.097 145.304 157.398 144.976L169.844 130.271C170.528 129.532 171.076 128.71 171.486 127.806C171.897 126.875 172.103 126.013 172.103 125.219C172.103 123.302 171.541 121.727 170.419 120.495C169.296 119.263 167.845 118.647 166.065 118.647C164.915 118.647 163.86 118.948 162.902 119.55C161.971 120.125 161.232 120.906 160.684 121.892C160.164 122.877 159.903 123.986 159.903 125.219C159.903 125.657 159.753 126.027 159.452 126.328C159.15 126.629 158.767 126.78 158.302 126.78C157.863 126.78 157.48 126.629 157.151 126.328C156.85 126.027 156.7 125.657 156.7 125.219C156.7 123.384 157.11 121.741 157.932 120.29C158.753 118.838 159.862 117.688 161.259 116.84C162.683 115.991 164.285 115.566 166.065 115.566C167.845 115.566 169.419 115.977 170.788 116.798C172.185 117.62 173.266 118.756 174.033 120.208C174.827 121.659 175.224 123.329 175.224 125.219C175.224 126.56 174.896 127.834 174.238 129.039C173.609 130.216 172.869 131.298 172.02 132.284L161.505 144.483H174.362C174.8 144.483 175.17 144.647 175.471 144.976C175.799 145.304 175.964 145.674 175.964 146.085C175.964 146.55 175.799 146.933 175.471 147.235C175.17 147.536 174.8 147.687 174.362 147.687H158.548ZM189.603 147.687C186.536 147.687 184.153 146.263 182.456 143.415C180.785 140.567 179.95 136.624 179.95 131.585C179.95 128.272 180.32 125.41 181.059 123.001C181.826 120.591 182.935 118.743 184.386 117.456C185.837 116.169 187.576 115.525 189.603 115.525C191.684 115.525 193.436 116.182 194.86 117.497C196.311 118.784 197.407 120.632 198.146 123.042C198.913 125.451 199.296 128.299 199.296 131.585C199.296 134.926 198.913 137.801 198.146 140.211C197.407 142.593 196.311 144.442 194.86 145.756C193.436 147.043 191.684 147.687 189.603 147.687ZM189.603 144.483C191.081 144.483 192.3 143.935 193.258 142.84C194.217 141.717 194.929 140.184 195.394 138.239C195.86 136.295 196.092 134.077 196.092 131.585C196.092 129.121 195.846 126.93 195.353 125.013C194.888 123.069 194.176 121.536 193.217 120.413C192.259 119.29 191.054 118.729 189.603 118.729C188.151 118.729 186.946 119.29 185.988 120.413C185.057 121.508 184.345 123.028 183.852 124.972C183.387 126.916 183.154 129.121 183.154 131.585C183.154 134.105 183.387 136.336 183.852 138.28C184.345 140.197 185.057 141.717 185.988 142.84C186.946 143.935 188.151 144.483 189.603 144.483Z" fill="black"/>
<path d="M209.891 260.642C209.453 260.642 209.07 260.491 208.741 260.19C208.44 259.889 208.289 259.505 208.289 259.04C208.289 258.629 208.44 258.259 208.741 257.931L221.187 243.226C221.871 242.487 222.419 241.665 222.83 240.761C223.24 239.83 223.446 238.968 223.446 238.174C223.446 236.257 222.885 234.682 221.762 233.45C220.639 232.218 219.188 231.602 217.408 231.602C216.258 231.602 215.204 231.903 214.245 232.506C213.314 233.081 212.575 233.861 212.027 234.847C211.507 235.833 211.247 236.942 211.247 238.174C211.247 238.612 211.096 238.982 210.795 239.283C210.494 239.584 210.11 239.735 209.645 239.735C209.207 239.735 208.823 239.584 208.495 239.283C208.194 238.982 208.043 238.612 208.043 238.174C208.043 236.339 208.454 234.696 209.275 233.245C210.097 231.794 211.206 230.643 212.602 229.795C214.026 228.946 215.628 228.521 217.408 228.521C219.188 228.521 220.762 228.932 222.131 229.754C223.528 230.575 224.61 231.711 225.376 233.163C226.17 234.614 226.568 236.284 226.568 238.174C226.568 239.516 226.239 240.789 225.582 241.994C224.952 243.171 224.213 244.253 223.364 245.239L212.849 257.438H225.705C226.143 257.438 226.513 257.602 226.814 257.931C227.143 258.259 227.307 258.629 227.307 259.04C227.307 259.505 227.143 259.889 226.814 260.19C226.513 260.491 226.143 260.642 225.705 260.642H209.891ZM240.946 260.642C237.879 260.642 235.497 259.218 233.799 256.37C232.129 253.522 231.293 249.579 231.293 244.54C231.293 241.227 231.663 238.365 232.402 235.956C233.169 233.546 234.278 231.698 235.729 230.411C237.181 229.124 238.92 228.48 240.946 228.48C243.027 228.48 244.78 229.137 246.203 230.452C247.655 231.739 248.75 233.587 249.489 235.997C250.256 238.407 250.639 241.254 250.639 244.54C250.639 247.881 250.256 250.756 249.489 253.166C248.75 255.548 247.655 257.397 246.203 258.711C244.78 259.998 243.027 260.642 240.946 260.642ZM240.946 257.438C242.425 257.438 243.643 256.89 244.602 255.795C245.56 254.672 246.272 253.139 246.737 251.194C247.203 249.25 247.436 247.032 247.436 244.54C247.436 242.076 247.189 239.885 246.696 237.968C246.231 236.024 245.519 234.491 244.56 233.368C243.602 232.245 242.397 231.684 240.946 231.684C239.495 231.684 238.29 232.245 237.331 233.368C236.4 234.463 235.688 235.983 235.195 237.927C234.73 239.872 234.497 242.076 234.497 244.54C234.497 247.06 234.73 249.291 235.195 251.236C235.688 253.152 236.4 254.672 237.331 255.795C238.29 256.89 239.495 257.438 240.946 257.438Z" fill="black"/>
<path d="M138.011 389C137.573 389 137.189 388.849 136.861 388.548C136.56 388.247 136.409 387.863 136.409 387.398C136.409 386.987 136.56 386.617 136.861 386.289L149.306 371.584C149.991 370.845 150.539 370.023 150.949 369.12C151.36 368.189 151.565 367.326 151.565 366.532C151.565 364.615 151.004 363.04 149.881 361.808C148.759 360.576 147.307 359.96 145.528 359.96C144.377 359.96 143.323 360.261 142.365 360.864C141.434 361.439 140.694 362.219 140.147 363.205C139.626 364.191 139.366 365.3 139.366 366.532C139.366 366.97 139.216 367.34 138.915 367.641C138.613 367.942 138.23 368.093 137.764 368.093C137.326 368.093 136.943 367.942 136.614 367.641C136.313 367.34 136.163 366.97 136.163 366.532C136.163 364.697 136.573 363.054 137.395 361.603C138.216 360.152 139.325 359.001 140.722 358.153C142.146 357.304 143.748 356.879 145.528 356.879C147.307 356.879 148.882 357.29 150.251 358.112C151.648 358.933 152.729 360.069 153.496 361.521C154.29 362.972 154.687 364.642 154.687 366.532C154.687 367.874 154.359 369.147 153.701 370.352C153.072 371.529 152.332 372.611 151.483 373.597L140.968 385.796H153.825C154.263 385.796 154.632 385.96 154.934 386.289C155.262 386.617 155.427 386.987 155.427 387.398C155.427 387.863 155.262 388.247 154.934 388.548C154.632 388.849 154.263 389 153.825 389H138.011ZM169.066 389C165.999 389 163.616 387.576 161.919 384.728C160.248 381.88 159.413 377.937 159.413 372.898C159.413 369.585 159.783 366.724 160.522 364.314C161.289 361.904 162.398 360.056 163.849 358.769C165.3 357.482 167.039 356.838 169.066 356.838C171.147 356.838 172.899 357.495 174.323 358.81C175.774 360.097 176.87 361.945 177.609 364.355C178.376 366.765 178.759 369.612 178.759 372.898C178.759 376.239 178.376 379.114 177.609 381.524C176.87 383.906 175.774 385.755 174.323 387.069C172.899 388.356 171.147 389 169.066 389ZM169.066 385.796C170.544 385.796 171.763 385.248 172.721 384.153C173.68 383.03 174.392 381.497 174.857 379.552C175.323 377.608 175.555 375.39 175.555 372.898C175.555 370.434 175.309 368.243 174.816 366.326C174.35 364.382 173.638 362.849 172.68 361.726C171.722 360.603 170.517 360.042 169.066 360.042C167.614 360.042 166.409 360.603 165.451 361.726C164.52 362.821 163.808 364.341 163.315 366.285C162.85 368.23 162.617 370.434 162.617 372.898C162.617 375.418 162.85 377.649 163.315 379.594C163.808 381.51 164.52 383.03 165.451 384.153C166.409 385.248 167.614 385.796 169.066 385.796Z" fill="black"/>
<path d="M328.145 45C327.707 45 327.323 44.8494 326.995 44.5482C326.694 44.247 326.543 43.8636 326.543 43.3981V16.6996L322.436 18.1372C322.134 18.2741 321.861 18.3426 321.614 18.3426C321.149 18.3426 320.765 18.192 320.464 17.8908C320.163 17.5896 320.012 17.2199 320.012 16.7818C320.012 16.4532 320.081 16.1519 320.218 15.8781C320.382 15.6043 320.656 15.3989 321.039 15.262L327.365 13.085C327.501 13.0303 327.638 12.9892 327.775 12.9618C327.94 12.907 328.076 12.8797 328.186 12.8797C328.652 12.8797 329.021 13.044 329.295 13.3726C329.596 13.6738 329.747 14.0434 329.747 14.4816V43.3981C329.747 43.8636 329.596 44.247 329.295 44.5482C328.994 44.8494 328.61 45 328.145 45ZM343.668 45C343.23 45 342.847 44.8494 342.518 44.5482C342.217 44.247 342.066 43.8636 342.066 43.3981V16.6996L337.959 18.1372C337.658 18.2741 337.384 18.3426 337.137 18.3426C336.672 18.3426 336.289 18.192 335.987 17.8908C335.686 17.5896 335.535 17.2199 335.535 16.7818C335.535 16.4532 335.604 16.1519 335.741 15.8781C335.905 15.6043 336.179 15.3989 336.562 15.262L342.888 13.085C343.025 13.0303 343.162 12.9892 343.299 12.9618C343.463 12.907 343.6 12.8797 343.709 12.8797C344.175 12.8797 344.545 13.044 344.818 13.3726C345.12 13.6738 345.27 14.0434 345.27 14.4816V43.3981C345.27 43.8636 345.12 44.247 344.818 44.5482C344.517 44.8494 344.134 45 343.668 45Z" fill="black"/>
<path d="M225.458 147.687C225.02 147.687 224.637 147.536 224.308 147.235C224.007 146.933 223.857 146.55 223.857 146.085V119.386L219.749 120.824C219.448 120.961 219.174 121.029 218.928 121.029C218.462 121.029 218.079 120.879 217.777 120.577C217.476 120.276 217.326 119.906 217.326 119.468C217.326 119.14 217.394 118.838 217.531 118.565C217.695 118.291 217.969 118.085 218.353 117.949L224.678 115.772C224.815 115.717 224.952 115.676 225.089 115.648C225.253 115.594 225.39 115.566 225.5 115.566C225.965 115.566 226.335 115.73 226.609 116.059C226.91 116.36 227.06 116.73 227.06 117.168V146.085C227.06 146.55 226.91 146.933 226.609 147.235C226.307 147.536 225.924 147.687 225.458 147.687ZM240.982 147.687C240.544 147.687 240.16 147.536 239.832 147.235C239.53 146.933 239.38 146.55 239.38 146.085V119.386L235.272 120.824C234.971 120.961 234.697 121.029 234.451 121.029C233.985 121.029 233.602 120.879 233.301 120.577C233 120.276 232.849 119.906 232.849 119.468C232.849 119.14 232.917 118.838 233.054 118.565C233.219 118.291 233.492 118.085 233.876 117.949L240.201 115.772C240.338 115.717 240.475 115.676 240.612 115.648C240.776 115.594 240.913 115.566 241.023 115.566C241.488 115.566 241.858 115.73 242.132 116.059C242.433 116.36 242.584 116.73 242.584 117.168V146.085C242.584 146.55 242.433 146.933 242.132 147.235C241.831 147.536 241.447 147.687 240.982 147.687Z" fill="black"/>
<path d="M261.398 389C260.96 389 260.577 388.849 260.248 388.548C259.947 388.247 259.796 387.863 259.796 387.398V360.699L255.689 362.137C255.388 362.274 255.114 362.342 254.868 362.342C254.402 362.342 254.019 362.192 253.717 361.89C253.416 361.589 253.266 361.22 253.266 360.781C253.266 360.453 253.334 360.152 253.471 359.878C253.635 359.604 253.909 359.399 254.292 359.262L260.618 357.085C260.755 357.03 260.892 356.989 261.029 356.961C261.193 356.907 261.33 356.879 261.439 356.879C261.905 356.879 262.275 357.044 262.548 357.372C262.85 357.673 263 358.043 263 358.481V387.398C263 387.863 262.85 388.247 262.548 388.548C262.247 388.849 261.864 389 261.398 389ZM276.922 389C276.484 389 276.1 388.849 275.772 388.548C275.47 388.247 275.32 387.863 275.32 387.398V360.699L271.212 362.137C270.911 362.274 270.637 362.342 270.391 362.342C269.925 362.342 269.542 362.192 269.241 361.89C268.94 361.589 268.789 361.22 268.789 360.781C268.789 360.453 268.857 360.152 268.994 359.878C269.159 359.604 269.432 359.399 269.816 359.262L276.141 357.085C276.278 357.03 276.415 356.989 276.552 356.961C276.716 356.907 276.853 356.879 276.963 356.879C277.428 356.879 277.798 357.044 278.072 357.372C278.373 357.673 278.524 358.043 278.524 358.481V387.398C278.524 387.863 278.373 388.247 278.072 388.548C277.771 388.849 277.387 389 276.922 389Z" fill="black"/>
<path d="M276.802 260.642C276.364 260.642 275.98 260.491 275.652 260.19C275.35 259.889 275.2 259.505 275.2 259.04V232.341L271.092 233.779C270.791 233.916 270.517 233.984 270.271 233.984C269.805 233.984 269.422 233.834 269.121 233.532C268.82 233.231 268.669 232.861 268.669 232.423C268.669 232.095 268.737 231.794 268.874 231.52C269.039 231.246 269.312 231.041 269.696 230.904L276.021 228.727C276.158 228.672 276.295 228.631 276.432 228.603C276.596 228.549 276.733 228.521 276.843 228.521C277.308 228.521 277.678 228.686 277.952 229.014C278.253 229.315 278.404 229.685 278.404 230.123V259.04C278.404 259.505 278.253 259.889 277.952 260.19C277.651 260.491 277.267 260.642 276.802 260.642ZM292.325 260.642C291.887 260.642 291.504 260.491 291.175 260.19C290.874 259.889 290.723 259.505 290.723 259.04V232.341L286.616 233.779C286.314 233.916 286.041 233.984 285.794 233.984C285.329 233.984 284.945 233.834 284.644 233.532C284.343 233.231 284.192 232.861 284.192 232.423C284.192 232.095 284.261 231.794 284.398 231.52C284.562 231.246 284.836 231.041 285.219 230.904L291.545 228.727C291.681 228.672 291.818 228.631 291.955 228.603C292.12 228.549 292.257 228.521 292.366 228.521C292.832 228.521 293.201 228.686 293.475 229.014C293.776 229.315 293.927 229.685 293.927 230.123V259.04C293.927 259.505 293.776 259.889 293.475 260.19C293.174 260.491 292.791 260.642 292.325 260.642Z" fill="black"/>
<path d="M230.592 512.224C230.154 512.224 229.771 512.073 229.442 511.772C229.141 511.471 228.99 511.087 228.99 510.622V483.923L224.883 485.361C224.582 485.498 224.308 485.566 224.061 485.566C223.596 485.566 223.212 485.416 222.911 485.114C222.61 484.813 222.459 484.444 222.459 484.005C222.459 483.677 222.528 483.376 222.665 483.102C222.829 482.828 223.103 482.623 223.486 482.486L229.812 480.309C229.949 480.254 230.086 480.213 230.223 480.185C230.387 480.131 230.524 480.103 230.633 480.103C231.099 480.103 231.468 480.268 231.742 480.596C232.044 480.897 232.194 481.267 232.194 481.705V510.622C232.194 511.087 232.044 511.471 231.742 511.772C231.441 512.073 231.058 512.224 230.592 512.224ZM246.116 512.224C245.677 512.224 245.294 512.073 244.965 511.772C244.664 511.471 244.514 511.087 244.514 510.622V483.923L240.406 485.361C240.105 485.498 239.831 485.566 239.585 485.566C239.119 485.566 238.736 485.416 238.435 485.114C238.133 484.813 237.983 484.444 237.983 484.005C237.983 483.677 238.051 483.376 238.188 483.102C238.352 482.828 238.626 482.623 239.01 482.486L245.335 480.309C245.472 480.254 245.609 480.213 245.746 480.185C245.91 480.131 246.047 480.103 246.157 480.103C246.622 480.103 246.992 480.268 247.266 480.596C247.567 480.897 247.717 481.267 247.717 481.705V510.622C247.717 511.087 247.567 511.471 247.266 511.772C246.964 512.073 246.581 512.224 246.116 512.224Z" fill="black"/>
<path d="M387.128 45.2054C385.211 45.2054 383.486 44.7946 381.953 43.9731C380.447 43.1243 379.255 41.9742 378.379 40.5229C377.503 39.0716 377.065 37.4286 377.065 35.5939C377.065 35.1284 377.202 34.7314 377.476 34.4028C377.749 34.0742 378.119 33.9099 378.585 33.9099C379.05 33.9099 379.42 34.0742 379.694 34.4028C379.967 34.7314 380.104 35.1284 380.104 35.5939C380.104 36.8535 380.406 37.9899 381.008 39.0031C381.61 39.9889 382.432 40.783 383.472 41.3854C384.54 41.9605 385.718 42.248 387.005 42.248C389.141 42.248 390.811 41.6593 392.016 40.4818C393.221 39.2769 393.823 37.7298 393.823 35.8404C393.823 34.4986 393.536 33.3348 392.961 32.349C392.386 31.3359 391.605 30.5554 390.619 30.0078C389.634 29.4327 388.525 29.1452 387.292 29.1452C386.854 29.1452 386.485 28.9946 386.183 28.6934C385.882 28.3922 385.732 28.0088 385.732 27.5433C385.732 27.1052 385.882 26.7355 386.183 26.4343C386.485 26.1331 386.854 25.9825 387.292 25.9825C388.251 25.9825 389.127 25.7497 389.921 25.2842C390.743 24.7913 391.4 24.1478 391.893 23.3537C392.386 22.5596 392.632 21.6833 392.632 20.7249C392.632 19.2736 392.139 18.0688 391.153 17.1104C390.168 16.1246 388.853 15.6317 387.21 15.6317C385.485 15.6317 384.061 16.1246 382.938 17.1104C381.816 18.0688 381.254 19.2599 381.254 20.6838C381.254 21.1494 381.104 21.5464 380.803 21.875C380.529 22.1762 380.173 22.3268 379.735 22.3268C379.269 22.3268 378.899 22.1762 378.626 21.875C378.352 21.5464 378.215 21.163 378.215 20.7249C378.215 19.2188 378.598 17.8634 379.365 16.6585C380.159 15.4263 381.227 14.4679 382.569 13.7833C383.911 13.0713 385.458 12.7154 387.21 12.7154C388.798 12.7154 390.222 13.0713 391.482 13.7833C392.769 14.4679 393.782 15.4263 394.521 16.6585C395.288 17.8634 395.672 19.2188 395.672 20.7249C395.672 21.6559 395.439 22.5596 394.973 23.4358C394.535 24.3121 393.946 25.1062 393.207 25.8182C392.468 26.5027 391.66 27.0367 390.784 27.4201C392.892 28.0499 394.453 29.1452 395.466 30.706C396.479 32.2669 396.986 33.9783 396.986 35.8404C396.986 37.6476 396.548 39.2632 395.672 40.6872C394.823 42.0837 393.645 43.1927 392.139 44.0142C390.633 44.8083 388.963 45.2054 387.128 45.2054Z" fill="black"/>
<path d="M489.815 147.892C487.898 147.892 486.173 147.481 484.639 146.66C483.133 145.811 481.942 144.661 481.066 143.209C480.189 141.758 479.751 140.115 479.751 138.28C479.751 137.815 479.888 137.418 480.162 137.089C480.436 136.761 480.806 136.596 481.271 136.596C481.737 136.596 482.106 136.761 482.38 137.089C482.654 137.418 482.791 137.815 482.791 138.28C482.791 139.54 483.092 140.676 483.694 141.69C484.297 142.675 485.118 143.47 486.159 144.072C487.227 144.647 488.404 144.935 489.691 144.935C491.827 144.935 493.498 144.346 494.702 143.168C495.907 141.963 496.51 140.416 496.51 138.527C496.51 137.185 496.222 136.021 495.647 135.036C495.072 134.022 494.292 133.242 493.306 132.694C492.32 132.119 491.211 131.832 489.979 131.832C489.541 131.832 489.171 131.681 488.87 131.38C488.569 131.079 488.418 130.695 488.418 130.23C488.418 129.792 488.569 129.422 488.87 129.121C489.171 128.82 489.541 128.669 489.979 128.669C490.937 128.669 491.814 128.436 492.608 127.971C493.429 127.478 494.086 126.834 494.579 126.04C495.072 125.246 495.319 124.37 495.319 123.411C495.319 121.96 494.826 120.755 493.84 119.797C492.854 118.811 491.54 118.318 489.897 118.318C488.172 118.318 486.748 118.811 485.625 119.797C484.502 120.755 483.941 121.946 483.941 123.37C483.941 123.836 483.79 124.233 483.489 124.562C483.215 124.863 482.859 125.013 482.421 125.013C481.956 125.013 481.586 124.863 481.312 124.562C481.038 124.233 480.901 123.85 480.901 123.411C480.901 121.905 481.285 120.55 482.051 119.345C482.846 118.113 483.914 117.154 485.255 116.47C486.597 115.758 488.144 115.402 489.897 115.402C491.485 115.402 492.909 115.758 494.168 116.47C495.455 117.154 496.469 118.113 497.208 119.345C497.975 120.55 498.358 121.905 498.358 123.411C498.358 124.342 498.125 125.246 497.66 126.122C497.222 126.999 496.633 127.793 495.894 128.505C495.154 129.189 494.346 129.723 493.47 130.107C495.579 130.736 497.14 131.832 498.153 133.393C499.166 134.953 499.672 136.665 499.672 138.527C499.672 140.334 499.234 141.95 498.358 143.374C497.509 144.77 496.332 145.879 494.826 146.701C493.32 147.495 491.649 147.892 489.815 147.892Z" fill="black"/>
<path d="M392.263 389.205C390.346 389.205 388.621 388.794 387.087 387.973C385.581 387.124 384.39 385.974 383.514 384.523C382.638 383.071 382.2 381.428 382.2 379.594C382.2 379.128 382.336 378.731 382.61 378.402C382.884 378.074 383.254 377.909 383.719 377.909C384.185 377.909 384.554 378.074 384.828 378.402C385.102 378.731 385.239 379.128 385.239 379.594C385.239 380.853 385.54 381.99 386.143 383.003C386.745 383.989 387.567 384.783 388.607 385.385C389.675 385.96 390.853 386.248 392.14 386.248C394.275 386.248 395.946 385.659 397.151 384.481C398.356 383.277 398.958 381.729 398.958 379.84C398.958 378.498 398.67 377.334 398.095 376.349C397.52 375.335 396.74 374.555 395.754 374.007C394.768 373.432 393.659 373.145 392.427 373.145C391.989 373.145 391.619 372.994 391.318 372.693C391.017 372.392 390.866 372.008 390.866 371.543C390.866 371.105 391.017 370.735 391.318 370.434C391.619 370.133 391.989 369.982 392.427 369.982C393.386 369.982 394.262 369.749 395.056 369.284C395.877 368.791 396.535 368.147 397.027 367.353C397.52 366.559 397.767 365.683 397.767 364.725C397.767 363.273 397.274 362.068 396.288 361.11C395.302 360.124 393.988 359.631 392.345 359.631C390.62 359.631 389.196 360.124 388.073 361.11C386.95 362.068 386.389 363.26 386.389 364.683C386.389 365.149 386.239 365.546 385.937 365.875C385.663 366.176 385.308 366.326 384.869 366.326C384.404 366.326 384.034 366.176 383.76 365.875C383.487 365.546 383.35 365.163 383.35 364.725C383.35 363.218 383.733 361.863 384.5 360.658C385.294 359.426 386.362 358.468 387.704 357.783C389.045 357.071 390.592 356.715 392.345 356.715C393.933 356.715 395.357 357.071 396.617 357.783C397.904 358.468 398.917 359.426 399.656 360.658C400.423 361.863 400.806 363.218 400.806 364.725C400.806 365.656 400.574 366.559 400.108 367.435C399.67 368.312 399.081 369.106 398.342 369.818C397.603 370.502 396.795 371.036 395.918 371.42C398.027 372.05 399.588 373.145 400.601 374.706C401.614 376.267 402.121 377.978 402.121 379.84C402.121 381.647 401.683 383.263 400.806 384.687C399.957 386.083 398.78 387.192 397.274 388.014C395.768 388.808 394.097 389.205 392.263 389.205Z" fill="black"/>
<path d="M438.472 260.847C436.555 260.847 434.83 260.436 433.296 259.615C431.79 258.766 430.599 257.616 429.723 256.164C428.847 254.713 428.409 253.07 428.409 251.236C428.409 250.77 428.545 250.373 428.819 250.044C429.093 249.716 429.463 249.551 429.928 249.551C430.394 249.551 430.763 249.716 431.037 250.044C431.311 250.373 431.448 250.77 431.448 251.236C431.448 252.495 431.749 253.632 432.352 254.645C432.954 255.631 433.776 256.425 434.816 257.027C435.884 257.602 437.062 257.89 438.349 257.89C440.484 257.89 442.155 257.301 443.36 256.123C444.565 254.919 445.167 253.371 445.167 251.482C445.167 250.14 444.879 248.976 444.304 247.991C443.729 246.977 442.949 246.197 441.963 245.649C440.977 245.074 439.868 244.787 438.636 244.787C438.198 244.787 437.828 244.636 437.527 244.335C437.226 244.034 437.075 243.65 437.075 243.185C437.075 242.747 437.226 242.377 437.527 242.076C437.828 241.775 438.198 241.624 438.636 241.624C439.594 241.624 440.471 241.391 441.265 240.926C442.086 240.433 442.744 239.789 443.236 238.995C443.729 238.201 443.976 237.325 443.976 236.367C443.976 234.915 443.483 233.71 442.497 232.752C441.511 231.766 440.197 231.273 438.554 231.273C436.829 231.273 435.405 231.766 434.282 232.752C433.159 233.71 432.598 234.902 432.598 236.325C432.598 236.791 432.448 237.188 432.146 237.517C431.872 237.818 431.516 237.968 431.078 237.968C430.613 237.968 430.243 237.818 429.969 237.517C429.696 237.188 429.559 236.805 429.559 236.367C429.559 234.86 429.942 233.505 430.709 232.3C431.503 231.068 432.571 230.109 433.913 229.425C435.254 228.713 436.801 228.357 438.554 228.357C440.142 228.357 441.566 228.713 442.826 229.425C444.113 230.109 445.126 231.068 445.865 232.3C446.632 233.505 447.015 234.86 447.015 236.367C447.015 237.298 446.783 238.201 446.317 239.077C445.879 239.954 445.29 240.748 444.551 241.46C443.811 242.144 443.004 242.678 442.127 243.062C444.236 243.691 445.797 244.787 446.81 246.348C447.823 247.908 448.33 249.62 448.33 251.482C448.33 253.289 447.892 254.905 447.015 256.329C446.166 257.725 444.989 258.834 443.483 259.656C441.977 260.45 440.306 260.847 438.472 260.847Z" fill="black"/>
<path d="M432.845 45C432.406 45 432.023 44.8494 431.694 44.5482C431.393 44.247 431.243 43.8636 431.243 43.3981C431.243 43.179 431.352 42.8367 431.571 42.3712L443.811 16.0835H429.682C429.216 16.0835 428.819 15.9329 428.491 15.6317C428.189 15.3031 428.039 14.9197 428.039 14.4816C428.039 14.0434 428.189 13.6738 428.491 13.3726C428.819 13.044 429.216 12.8797 429.682 12.8797H446.399C446.837 12.8797 447.207 13.044 447.508 13.3726C447.809 13.6738 447.96 14.0434 447.96 14.4816C447.96 14.6185 447.933 14.7691 447.878 14.9334C447.823 15.0703 447.768 15.2072 447.714 15.3441L434.282 44.0964C433.981 44.6988 433.502 45 432.845 45Z" fill="black"/>
<path d="M499.591 389C499.153 389 498.769 388.849 498.441 388.548C498.139 388.247 497.989 387.863 497.989 387.398C497.989 387.179 498.098 386.836 498.317 386.371L510.558 360.083H496.428C495.962 360.083 495.565 359.933 495.237 359.631C494.936 359.303 494.785 358.919 494.785 358.481C494.785 358.043 494.936 357.673 495.237 357.372C495.565 357.044 495.962 356.879 496.428 356.879H513.145C513.583 356.879 513.953 357.044 514.254 357.372C514.556 357.673 514.706 358.043 514.706 358.481C514.706 358.618 514.679 358.769 514.624 358.933C514.569 359.07 514.514 359.207 514.46 359.344L501.028 388.096C500.727 388.698 500.248 389 499.591 389Z" fill="black"/>
<path d="M477.04 512.224C476.602 512.224 476.219 512.073 475.89 511.772C475.589 511.471 475.439 511.087 475.439 510.622V483.923L471.331 485.361C471.03 485.498 470.756 485.566 470.51 485.566C470.044 485.566 469.661 485.416 469.36 485.114C469.058 484.813 468.908 484.444 468.908 484.005C468.908 483.677 468.976 483.376 469.113 483.102C469.277 482.828 469.551 482.623 469.935 482.486L476.26 480.309C476.397 480.254 476.534 480.213 476.671 480.185C476.835 480.131 476.972 480.103 477.082 480.103C477.547 480.103 477.917 480.268 478.191 480.596C478.492 480.897 478.642 481.267 478.642 481.705V510.622C478.642 511.087 478.492 511.471 478.191 511.772C477.889 512.073 477.506 512.224 477.04 512.224ZM494.453 512.224C491.386 512.224 489.004 510.8 487.306 507.952C485.636 505.104 484.801 501.161 484.801 496.122C484.801 492.809 485.17 489.948 485.91 487.538C486.676 485.128 487.785 483.28 489.237 481.993C490.688 480.706 492.427 480.062 494.453 480.062C496.534 480.062 498.287 480.719 499.711 482.034C501.162 483.321 502.257 485.169 502.997 487.579C503.763 489.989 504.147 492.836 504.147 496.122C504.147 499.463 503.763 502.338 502.997 504.748C502.257 507.13 501.162 508.979 499.711 510.293C498.287 511.58 496.534 512.224 494.453 512.224ZM494.453 509.02C495.932 509.02 497.15 508.472 498.109 507.377C499.067 506.254 499.779 504.721 500.245 502.776C500.71 500.832 500.943 498.614 500.943 496.122C500.943 493.658 500.697 491.467 500.204 489.55C499.738 487.606 499.026 486.073 498.068 484.95C497.109 483.827 495.905 483.266 494.453 483.266C493.002 483.266 491.797 483.827 490.839 484.95C489.908 486.045 489.196 487.565 488.703 489.509C488.237 491.454 488.004 493.658 488.004 496.122C488.004 498.642 488.237 500.873 488.703 502.818C489.196 504.734 489.908 506.254 490.839 507.377C491.797 508.472 493.002 509.02 494.453 509.02Z" fill="black"/>
<path d="M535.53 147.687C535.092 147.687 534.709 147.536 534.38 147.235C534.079 146.933 533.928 146.55 533.928 146.085C533.928 145.866 534.038 145.523 534.257 145.058L546.497 118.77H532.367C531.902 118.77 531.505 118.619 531.176 118.318C530.875 117.99 530.724 117.606 530.724 117.168C530.724 116.73 530.875 116.36 531.176 116.059C531.505 115.73 531.902 115.566 532.367 115.566H549.085C549.523 115.566 549.893 115.73 550.194 116.059C550.495 116.36 550.646 116.73 550.646 117.168C550.646 117.305 550.618 117.456 550.563 117.62C550.509 117.757 550.454 117.894 550.399 118.031L536.968 146.783C536.667 147.385 536.187 147.687 535.53 147.687Z" fill="black"/>
<path d="M643.695 263C643.257 263 642.874 262.849 642.545 262.548C642.244 262.247 642.093 261.864 642.093 261.398C642.093 261.179 642.203 260.837 642.422 260.371L654.662 234.083H640.532C640.067 234.083 639.67 233.933 639.341 233.632C639.04 233.303 638.889 232.92 638.889 232.482C638.889 232.043 639.04 231.674 639.341 231.373C639.67 231.044 640.067 230.88 640.532 230.88H657.25C657.688 230.88 658.058 231.044 658.359 231.373C658.66 231.674 658.811 232.043 658.811 232.482C658.811 232.618 658.783 232.769 658.728 232.933C658.674 233.07 658.619 233.207 658.564 233.344L645.133 262.096C644.832 262.699 644.352 263 643.695 263Z" fill="black"/>
<path d="M477.04 45C476.602 45 476.219 44.8494 475.89 44.5482C475.589 44.247 475.439 43.8636 475.439 43.3981V16.6996L471.331 18.1372C471.03 18.2741 470.756 18.3426 470.51 18.3426C470.044 18.3426 469.661 18.192 469.36 17.8908C469.058 17.5896 468.908 17.2199 468.908 16.7818C468.908 16.4532 468.976 16.1519 469.113 15.8781C469.277 15.6043 469.551 15.3989 469.935 15.262L476.26 13.085C476.397 13.0303 476.534 12.9892 476.671 12.9618C476.835 12.907 476.972 12.8797 477.082 12.8797C477.547 12.8797 477.917 13.044 478.191 13.3726C478.492 13.6738 478.642 14.0434 478.642 14.4816V43.3981C478.642 43.8636 478.492 44.247 478.191 44.5482C477.889 44.8494 477.506 45 477.04 45ZM495.809 45C493.837 45 492.071 44.5482 490.51 43.6445C488.949 42.7135 487.703 41.4676 486.772 39.9068C485.869 38.3185 485.417 36.5386 485.417 34.5671C485.417 34.1015 485.567 33.7182 485.869 33.417C486.17 33.1158 486.539 32.9651 486.978 32.9651C487.443 32.9651 487.826 33.1158 488.128 33.417C488.456 33.7182 488.621 34.1015 488.621 34.5671C488.621 35.9362 488.936 37.1684 489.565 38.2638C490.195 39.3591 491.044 40.2217 492.112 40.8515C493.207 41.4813 494.44 41.7962 495.809 41.7962C497.178 41.7962 498.41 41.4813 499.505 40.8515C500.601 40.2217 501.463 39.3591 502.093 38.2638C502.723 37.1684 503.038 35.9362 503.038 34.5671C503.038 33.1979 502.723 31.9657 502.093 30.8703C501.463 29.775 500.601 28.9125 499.505 28.2826C498.41 27.6528 497.178 27.3379 495.809 27.3379H488.621C488.155 27.3379 487.772 27.1873 487.471 26.8861C487.169 26.5575 487.019 26.1741 487.019 25.736V14.4816C487.019 14.0434 487.169 13.6738 487.471 13.3726C487.772 13.044 488.155 12.8797 488.621 12.8797H503.038C503.476 12.8797 503.846 13.044 504.147 13.3726C504.475 13.6738 504.64 14.0434 504.64 14.4816C504.64 14.9197 504.489 15.3031 504.188 15.6317C503.887 15.9329 503.503 16.0835 503.038 16.0835H490.181V24.1341H495.809C497.808 24.1341 499.588 24.5996 501.148 25.5306C502.709 26.4343 503.941 27.6802 504.845 29.2684C505.776 30.8293 506.242 32.5955 506.242 34.5671C506.242 36.5386 505.776 38.3185 504.845 39.9068C503.941 41.4676 502.709 42.7135 501.148 43.6445C499.588 44.5482 497.808 45 495.809 45Z" fill="black"/>
<path d="M579.726 147.687C579.288 147.687 578.905 147.536 578.576 147.235C578.275 146.933 578.125 146.55 578.125 146.085V119.386L574.017 120.824C573.716 120.961 573.442 121.029 573.196 121.029C572.73 121.029 572.347 120.879 572.046 120.577C571.744 120.276 571.594 119.906 571.594 119.468C571.594 119.14 571.662 118.838 571.799 118.565C571.963 118.291 572.237 118.085 572.621 117.949L578.946 115.772C579.083 115.717 579.22 115.676 579.357 115.648C579.521 115.594 579.658 115.566 579.768 115.566C580.233 115.566 580.603 115.73 580.877 116.059C581.178 116.36 581.328 116.73 581.328 117.168V146.085C581.328 146.55 581.178 146.933 580.877 147.235C580.575 147.536 580.192 147.687 579.726 147.687ZM598.495 147.687C596.523 147.687 594.757 147.235 593.196 146.331C591.635 145.4 590.389 144.154 589.458 142.593C588.555 141.005 588.103 139.225 588.103 137.254C588.103 136.788 588.253 136.405 588.555 136.103C588.856 135.802 589.226 135.652 589.664 135.652C590.129 135.652 590.513 135.802 590.814 136.103C591.142 136.405 591.307 136.788 591.307 137.254C591.307 138.623 591.622 139.855 592.251 140.95C592.881 142.046 593.73 142.908 594.798 143.538C595.893 144.168 597.126 144.483 598.495 144.483C599.864 144.483 601.096 144.168 602.191 143.538C603.287 142.908 604.149 142.046 604.779 140.95C605.409 139.855 605.724 138.623 605.724 137.254C605.724 135.884 605.409 134.652 604.779 133.557C604.149 132.462 603.287 131.599 602.191 130.969C601.096 130.339 599.864 130.024 598.495 130.024H591.307C590.841 130.024 590.458 129.874 590.157 129.573C589.855 129.244 589.705 128.861 589.705 128.423V117.168C589.705 116.73 589.855 116.36 590.157 116.059C590.458 115.73 590.841 115.566 591.307 115.566H605.724C606.162 115.566 606.532 115.73 606.833 116.059C607.161 116.36 607.326 116.73 607.326 117.168C607.326 117.606 607.175 117.99 606.874 118.318C606.573 118.619 606.189 118.77 605.724 118.77H592.867V126.821H598.495C600.494 126.821 602.274 127.286 603.834 128.217C605.395 129.121 606.627 130.367 607.531 131.955C608.462 133.516 608.928 135.282 608.928 137.254C608.928 139.225 608.462 141.005 607.531 142.593C606.627 144.154 605.395 145.4 603.834 146.331C602.274 147.235 600.494 147.687 598.495 147.687Z" fill="black"/>
<path d="M687.817 263C687.379 263 686.995 262.849 686.667 262.548C686.366 262.247 686.215 261.864 686.215 261.398V234.7L682.107 236.137C681.806 236.274 681.532 236.343 681.286 236.343C680.82 236.343 680.437 236.192 680.136 235.891C679.835 235.59 679.684 235.22 679.684 234.782C679.684 234.453 679.753 234.152 679.889 233.878C680.054 233.604 680.328 233.399 680.711 233.262L687.036 231.085C687.173 231.03 687.31 230.989 687.447 230.962C687.611 230.907 687.748 230.88 687.858 230.88C688.323 230.88 688.693 231.044 688.967 231.373C689.268 231.674 689.419 232.043 689.419 232.482V261.398C689.419 261.864 689.268 262.247 688.967 262.548C688.666 262.849 688.282 263 687.817 263ZM706.585 263C704.613 263 702.847 262.548 701.286 261.645C699.726 260.714 698.48 259.468 697.549 257.907C696.645 256.319 696.193 254.539 696.193 252.567C696.193 252.102 696.344 251.718 696.645 251.417C696.946 251.116 697.316 250.965 697.754 250.965C698.22 250.965 698.603 251.116 698.904 251.417C699.233 251.718 699.397 252.102 699.397 252.567C699.397 253.936 699.712 255.168 700.342 256.264C700.972 257.359 701.82 258.222 702.888 258.851C703.984 259.481 705.216 259.796 706.585 259.796C707.954 259.796 709.186 259.481 710.282 258.851C711.377 258.222 712.24 257.359 712.869 256.264C713.499 255.168 713.814 253.936 713.814 252.567C713.814 251.198 713.499 249.966 712.869 248.87C712.24 247.775 711.377 246.912 710.282 246.283C709.186 245.653 707.954 245.338 706.585 245.338H699.397C698.931 245.338 698.548 245.187 698.247 244.886C697.946 244.558 697.795 244.174 697.795 243.736V232.482C697.795 232.043 697.946 231.674 698.247 231.373C698.548 231.044 698.931 230.88 699.397 230.88H713.814C714.252 230.88 714.622 231.044 714.923 231.373C715.252 231.674 715.416 232.043 715.416 232.482C715.416 232.92 715.265 233.303 714.964 233.632C714.663 233.933 714.28 234.083 713.814 234.083H700.958V242.134H706.585C708.584 242.134 710.364 242.6 711.925 243.531C713.486 244.434 714.718 245.68 715.621 247.268C716.552 248.829 717.018 250.595 717.018 252.567C717.018 254.539 716.552 256.319 715.621 257.907C714.718 259.468 713.486 260.714 711.925 261.645C710.364 262.548 708.584 263 706.585 263Z" fill="black"/>
<path d="M610.532 512.224C610.094 512.224 609.711 512.073 609.382 511.772C609.081 511.471 608.93 511.087 608.93 510.622V483.923L604.823 485.361C604.522 485.498 604.248 485.566 604.001 485.566C603.536 485.566 603.152 485.416 602.851 485.114C602.55 484.813 602.399 484.444 602.399 484.005C602.399 483.677 602.468 483.376 602.605 483.102C602.769 482.828 603.043 482.623 603.426 482.486L609.752 480.309C609.889 480.254 610.026 480.213 610.162 480.185C610.327 480.131 610.464 480.103 610.573 480.103C611.039 480.103 611.408 480.268 611.682 480.596C611.983 480.897 612.134 481.267 612.134 481.705V510.622C612.134 511.087 611.983 511.471 611.682 511.772C611.381 512.073 610.998 512.224 610.532 512.224ZM629.3 512.224C627.329 512.224 625.563 511.772 624.002 510.868C622.441 509.937 621.195 508.691 620.264 507.13C619.36 505.542 618.908 503.762 618.908 501.791C618.908 501.325 619.059 500.942 619.36 500.641C619.662 500.339 620.031 500.189 620.469 500.189C620.935 500.189 621.318 500.339 621.619 500.641C621.948 500.942 622.112 501.325 622.112 501.791C622.112 503.16 622.427 504.392 623.057 505.487C623.687 506.583 624.536 507.445 625.604 508.075C626.699 508.705 627.931 509.02 629.3 509.02C630.67 509.02 631.902 508.705 632.997 508.075C634.092 507.445 634.955 506.583 635.585 505.487C636.215 504.392 636.529 503.16 636.529 501.791C636.529 500.422 636.215 499.189 635.585 498.094C634.955 496.999 634.092 496.136 632.997 495.506C631.902 494.876 630.67 494.562 629.3 494.562H622.112C621.647 494.562 621.263 494.411 620.962 494.11C620.661 493.781 620.51 493.398 620.51 492.96V481.705C620.51 481.267 620.661 480.897 620.962 480.596C621.263 480.268 621.647 480.103 622.112 480.103H636.529C636.968 480.103 637.337 480.268 637.639 480.596C637.967 480.897 638.131 481.267 638.131 481.705C638.131 482.143 637.981 482.527 637.68 482.855C637.378 483.157 636.995 483.307 636.529 483.307H623.673V491.358H629.3C631.299 491.358 633.079 491.823 634.64 492.754C636.201 493.658 637.433 494.904 638.337 496.492C639.268 498.053 639.733 499.819 639.733 501.791C639.733 503.762 639.268 505.542 638.337 507.13C637.433 508.691 636.201 509.937 634.64 510.868C633.079 511.772 631.299 512.224 629.3 512.224Z" fill="black"/>
<path d="M543.622 604.641C543.184 604.641 542.8 604.491 542.472 604.19C542.17 603.888 542.02 603.505 542.02 603.039C542.02 602.629 542.17 602.259 542.472 601.93L554.917 587.226C555.602 586.486 556.149 585.665 556.56 584.761C556.971 583.83 557.176 582.968 557.176 582.174C557.176 580.257 556.615 578.682 555.492 577.45C554.37 576.218 552.918 575.602 551.138 575.602C549.988 575.602 548.934 575.903 547.976 576.505C547.045 577.08 546.305 577.861 545.758 578.847C545.237 579.832 544.977 580.941 544.977 582.174C544.977 582.612 544.827 582.981 544.525 583.283C544.224 583.584 543.841 583.734 543.375 583.734C542.937 583.734 542.554 583.584 542.225 583.283C541.924 582.981 541.773 582.612 541.773 582.174C541.773 580.339 542.184 578.696 543.006 577.245C543.827 575.793 544.936 574.643 546.333 573.794C547.757 572.945 549.358 572.521 551.138 572.521C552.918 572.521 554.493 572.932 555.862 573.753C557.258 574.575 558.34 575.711 559.107 577.162C559.901 578.614 560.298 580.284 560.298 582.174C560.298 583.515 559.969 584.789 559.312 585.993C558.682 587.171 557.943 588.253 557.094 589.238L546.579 601.438H559.435C559.874 601.438 560.243 601.602 560.544 601.93C560.873 602.259 561.037 602.629 561.037 603.039C561.037 603.505 560.873 603.888 560.544 604.19C560.243 604.491 559.874 604.641 559.435 604.641H543.622ZM576.032 604.641C574.06 604.641 572.294 604.19 570.733 603.286C569.172 602.355 567.926 601.109 566.995 599.548C566.092 597.96 565.64 596.18 565.64 594.208C565.64 593.743 565.791 593.36 566.092 593.058C566.393 592.757 566.763 592.607 567.201 592.607C567.666 592.607 568.05 592.757 568.351 593.058C568.679 593.36 568.844 593.743 568.844 594.208C568.844 595.578 569.159 596.81 569.788 597.905C570.418 599 571.267 599.863 572.335 600.493C573.43 601.123 574.663 601.438 576.032 601.438C577.401 601.438 578.633 601.123 579.729 600.493C580.824 599.863 581.686 599 582.316 597.905C582.946 596.81 583.261 595.578 583.261 594.208C583.261 592.839 582.946 591.607 582.316 590.512C581.686 589.416 580.824 588.554 579.729 587.924C578.633 587.294 577.401 586.979 576.032 586.979H568.844C568.378 586.979 567.995 586.829 567.694 586.527C567.392 586.199 567.242 585.816 567.242 585.377V574.123C567.242 573.685 567.392 573.315 567.694 573.014C567.995 572.685 568.378 572.521 568.844 572.521H583.261C583.699 572.521 584.069 572.685 584.37 573.014C584.699 573.315 584.863 573.685 584.863 574.123C584.863 574.561 584.712 574.944 584.411 575.273C584.11 575.574 583.726 575.725 583.261 575.725H570.405V583.775H576.032C578.031 583.775 579.811 584.241 581.372 585.172C582.932 586.076 584.165 587.322 585.068 588.91C585.999 590.471 586.465 592.237 586.465 594.208C586.465 596.18 585.999 597.96 585.068 599.548C584.165 601.109 582.932 602.355 581.372 603.286C579.811 604.19 578.031 604.641 576.032 604.641Z" fill="black"/>
<path d="M646.474 389C646.035 389 645.652 388.849 645.323 388.548C645.022 388.247 644.872 387.863 644.872 387.398V360.699L640.764 362.137C640.463 362.274 640.189 362.342 639.943 362.342C639.477 362.342 639.094 362.192 638.793 361.89C638.491 361.589 638.341 361.22 638.341 360.781C638.341 360.453 638.409 360.152 638.546 359.878C638.71 359.604 638.984 359.399 639.368 359.262L645.693 357.085C645.83 357.03 645.967 356.989 646.104 356.961C646.268 356.907 646.405 356.879 646.515 356.879C646.98 356.879 647.35 357.044 647.624 357.372C647.925 357.673 648.075 358.043 648.075 358.481V387.398C648.075 387.863 647.925 388.247 647.624 388.548C647.322 388.849 646.939 389 646.474 389ZM665.242 389C663.27 389 661.504 388.548 659.943 387.644C658.382 386.713 657.136 385.467 656.205 383.906C655.302 382.318 654.85 380.538 654.85 378.567C654.85 378.101 655.001 377.718 655.302 377.417C655.603 377.115 655.973 376.965 656.411 376.965C656.876 376.965 657.26 377.115 657.561 377.417C657.889 377.718 658.054 378.101 658.054 378.567C658.054 379.936 658.369 381.168 658.998 382.263C659.628 383.359 660.477 384.221 661.545 384.851C662.64 385.481 663.873 385.796 665.242 385.796C666.611 385.796 667.843 385.481 668.938 384.851C670.034 384.221 670.896 383.359 671.526 382.263C672.156 381.168 672.471 379.936 672.471 378.567C672.471 377.198 672.156 375.965 671.526 374.87C670.896 373.775 670.034 372.912 668.938 372.282C667.843 371.652 666.611 371.338 665.242 371.338H658.054C657.588 371.338 657.205 371.187 656.904 370.886C656.602 370.557 656.452 370.174 656.452 369.736V358.481C656.452 358.043 656.602 357.673 656.904 357.372C657.205 357.044 657.588 356.879 658.054 356.879H672.471C672.909 356.879 673.279 357.044 673.58 357.372C673.909 357.673 674.073 358.043 674.073 358.481C674.073 358.919 673.922 359.303 673.621 359.631C673.32 359.933 672.936 360.083 672.471 360.083H659.615V368.134H665.242C667.241 368.134 669.021 368.599 670.581 369.53C672.142 370.434 673.375 371.68 674.278 373.268C675.209 374.829 675.675 376.595 675.675 378.567C675.675 380.538 675.209 382.318 674.278 383.906C673.375 385.467 672.142 386.713 670.581 387.644C669.021 388.548 667.241 389 665.242 389Z" fill="black"/>
<path d="M93.3222 387.726C92.8841 387.726 92.5144 387.576 92.2132 387.275C91.912 386.973 91.7614 386.59 91.7614 386.124V379.676H85.3126C84.8745 379.676 84.5048 379.525 84.2036 379.224C83.9024 378.923 83.7518 378.539 83.7518 378.074C83.7518 377.636 83.9024 377.266 84.2036 376.965C84.5048 376.636 84.8745 376.472 85.3126 376.472H91.7614V370.023C91.7614 369.585 91.912 369.215 92.2132 368.914C92.5144 368.613 92.8841 368.462 93.3222 368.462C93.7877 368.462 94.1711 368.613 94.4723 368.914C94.7735 369.215 94.9241 369.585 94.9241 370.023V376.472H101.373C101.811 376.472 102.181 376.636 102.482 376.965C102.81 377.266 102.975 377.636 102.975 378.074C102.975 378.539 102.81 378.923 102.482 379.224C102.181 379.525 101.811 379.676 101.373 379.676H94.9241V386.124C94.9241 386.59 94.7735 386.973 94.4723 387.275C94.1711 387.576 93.7877 387.726 93.3222 387.726Z" fill="black"/>
<path d="M175.471 505.816C175.033 505.816 174.663 505.665 174.362 505.364C174.06 505.063 173.91 504.68 173.91 504.214V497.765H167.461C167.023 497.765 166.653 497.615 166.352 497.314C166.051 497.012 165.9 496.629 165.9 496.163C165.9 495.725 166.051 495.356 166.352 495.054C166.653 494.726 167.023 494.562 167.461 494.562H173.91V488.113C173.91 487.675 174.06 487.305 174.362 487.004C174.663 486.703 175.033 486.552 175.471 486.552C175.936 486.552 176.32 486.703 176.621 487.004C176.922 487.305 177.073 487.675 177.073 488.113V494.562H183.521C183.959 494.562 184.329 494.726 184.63 495.054C184.959 495.356 185.123 495.725 185.123 496.163C185.123 496.629 184.959 497.012 184.63 497.314C184.329 497.615 183.959 497.765 183.521 497.765H177.073V504.214C177.073 504.68 176.922 505.063 176.621 505.364C176.32 505.665 175.936 505.816 175.471 505.816Z" fill="black"/>
<path d="M555.411 505.816C554.972 505.816 554.603 505.665 554.302 505.364C554 505.063 553.85 504.68 553.85 504.214V497.765H547.401C546.963 497.765 546.593 497.615 546.292 497.314C545.991 497.012 545.84 496.629 545.84 496.163C545.84 495.725 545.991 495.356 546.292 495.054C546.593 494.726 546.963 494.562 547.401 494.562H553.85V488.113C553.85 487.675 554 487.305 554.302 487.004C554.603 486.703 554.972 486.552 555.411 486.552C555.876 486.552 556.259 486.703 556.561 487.004C556.862 487.305 557.012 487.675 557.012 488.113V494.562H563.461C563.899 494.562 564.269 494.726 564.57 495.054C564.899 495.356 565.063 495.725 565.063 496.163C565.063 496.629 564.899 497.012 564.57 497.314C564.269 497.615 563.899 497.765 563.461 497.765H557.012V504.214C557.012 504.68 556.862 505.063 556.561 505.364C556.259 505.665 555.876 505.816 555.411 505.816Z" fill="black"/>
<path d="M365.44 598.234C365.002 598.234 364.633 598.083 364.331 597.782C364.03 597.481 363.88 597.097 363.88 596.632V590.183H357.431C356.993 590.183 356.623 590.032 356.322 589.731C356.021 589.43 355.87 589.047 355.87 588.581C355.87 588.143 356.021 587.773 356.322 587.472C356.623 587.144 356.993 586.979 357.431 586.979H363.88V580.531C363.88 580.092 364.03 579.723 364.331 579.422C364.633 579.12 365.002 578.97 365.44 578.97C365.906 578.97 366.289 579.12 366.59 579.422C366.892 579.723 367.042 580.092 367.042 580.531V586.979H373.491C373.929 586.979 374.299 587.144 374.6 587.472C374.929 587.773 375.093 588.143 375.093 588.581C375.093 589.047 374.929 589.43 374.6 589.731C374.299 590.032 373.929 590.183 373.491 590.183H367.042V596.632C367.042 597.097 366.892 597.481 366.59 597.782C366.289 598.083 365.906 598.234 365.44 598.234Z" fill="black"/>
<path d="M447.59 382.592C447.152 382.592 446.782 382.441 446.481 382.14C446.18 381.839 446.029 381.456 446.029 380.99V374.541H439.581C439.143 374.541 438.773 374.391 438.472 374.09C438.17 373.788 438.02 373.405 438.02 372.939C438.02 372.501 438.17 372.132 438.472 371.83C438.773 371.502 439.143 371.338 439.581 371.338H446.029V364.889C446.029 364.451 446.18 364.081 446.481 363.78C446.782 363.479 447.152 363.328 447.59 363.328C448.056 363.328 448.439 363.479 448.74 363.78C449.042 364.081 449.192 364.451 449.192 364.889V371.338H455.641C456.079 371.338 456.449 371.502 456.75 371.83C457.078 372.132 457.243 372.501 457.243 372.939C457.243 373.405 457.078 373.788 456.75 374.09C456.449 374.391 456.079 374.541 455.641 374.541H449.192V380.99C449.192 381.456 449.042 381.839 448.74 382.14C448.439 382.441 448.056 382.592 447.59 382.592Z" fill="black"/>
</svg>
