<svg width="800" height="309" viewBox="0 0 800 309" fill="none" xmlns="http://www.w3.org/2000/svg">
<g clip-path="url(#clip0)">
<path d="M124.301 61.7112L103.068 51.5261L106.689 32.9895L114.255 34.4687L111.774 47.15L127.645 54.7619L124.301 61.7112Z" fill="#F9B117"/>
<path d="M124.301 61.7112L103.068 51.5261L106.689 32.9895L114.255 34.4687L111.774 47.15L127.645 54.7619L124.301 61.7112Z" stroke="#141414" stroke-width="3.08172" stroke-miterlimit="10"/>
<path d="M110.48 37.6276C115.782 37.6276 120.08 33.3297 120.08 28.028C120.08 22.7263 115.782 18.4285 110.48 18.4285C105.178 18.4285 100.88 22.7263 100.88 28.028C100.88 33.3297 105.178 37.6276 110.48 37.6276Z" fill="#0E394F"/>
<path d="M110.48 37.6276C115.782 37.6276 120.08 33.3297 120.08 28.028C120.08 22.7263 115.782 18.4285 110.48 18.4285C105.178 18.4285 100.88 22.7263 100.88 28.028C100.88 33.3297 105.178 37.6276 110.48 37.6276Z" stroke="#141414" stroke-width="3.08172" stroke-miterlimit="10"/>
<path d="M98.8925 81.0492C100.2 75.2341 103.017 69.8664 107.061 65.4875C111.104 61.1085 116.23 57.873 121.923 56.1073C127.616 54.3415 133.673 54.1078 139.485 55.4299C145.297 56.7519 150.657 59.5829 155.026 63.6374L172.761 80.1247L233.656 136.428L154.441 161.082L75.2402 185.735L93.5611 104.624L98.8925 81.0492Z" fill="#FACA3F"/>
<path d="M175.181 82.1122L96.751 106.458L97.9528 101.142C106.18 99.6469 114.108 96.8154 121.42 92.7596C134.511 85.7696 145.144 74.9329 151.883 61.7112C154.103 63.0176 156.171 64.5681 158.046 66.3338L175.181 82.1122Z" fill="#F99F00"/>
<path d="M555.419 276.801H587.869C592.73 276.813 597.546 275.866 602.041 274.015C606.535 272.165 610.621 269.446 614.064 266.015V266.015C620.999 259.08 630.405 255.184 640.213 255.184C650.02 255.184 659.426 259.08 666.361 266.015L673.295 272.948C676.738 276.38 680.824 279.098 685.318 280.949C689.813 282.8 694.629 283.746 699.49 283.735H749.66" stroke="#141414" stroke-width="3.08172" stroke-miterlimit="10"/>
<path d="M786.887 269.435C779.399 255.09 765.993 244.335 748.689 244.335C739.02 244.348 729.613 247.485 721.869 253.276C714.126 259.068 708.46 267.205 705.715 276.477C705.289 277.965 705.216 279.532 705.5 281.054C705.785 282.576 706.419 284.01 707.353 285.245C708.287 286.479 709.495 287.479 710.882 288.167C712.269 288.854 713.797 289.209 715.345 289.205H770.369L788.336 287.664" fill="#2C6E9B"/>
<path opacity="0.3" d="M719.752 276.477C719.323 277.964 719.247 279.531 719.529 281.053C719.812 282.575 720.444 284.01 721.377 285.245C722.31 286.48 723.518 287.48 724.904 288.168C726.291 288.855 727.819 289.21 729.367 289.205H715.283C713.735 289.209 712.207 288.854 710.82 288.167C709.433 287.479 708.225 286.479 707.291 285.245C706.357 284.01 705.723 282.576 705.438 281.054C705.154 279.532 705.227 277.966 705.653 276.477C708.401 267.195 714.076 259.05 721.832 253.258C729.588 247.465 739.009 244.335 748.689 244.335C751.052 244.331 753.412 244.517 755.746 244.889C747.378 246.223 739.557 249.897 733.188 255.486C726.819 261.076 722.161 268.353 719.752 276.477Z" fill="#0E3964"/>
<path d="M788.459 282.841C788.523 274.951 786.129 267.237 781.609 260.77C777.089 254.303 770.667 249.404 763.235 246.754C757.521 244.8 751.471 244.019 745.447 244.458C739.424 244.897 733.551 246.547 728.181 249.309C722.81 252.071 718.052 255.889 714.192 260.534C710.332 265.178 707.448 270.554 705.715 276.339C705.271 277.832 705.182 279.408 705.455 280.941C705.727 282.475 706.353 283.923 707.284 285.172C708.214 286.421 709.423 287.436 710.815 288.136C712.206 288.836 713.741 289.202 715.299 289.205H782.126C782.961 289.205 783.788 289.04 784.559 288.72C785.33 288.4 786.031 287.931 786.62 287.34C787.21 286.749 787.677 286.047 787.995 285.275C788.314 284.503 788.476 283.676 788.474 282.841H788.459Z" stroke="#141414" stroke-width="3.08172" stroke-miterlimit="10"/>
<path d="M107.19 220.49L133.048 212.471L148.274 261.567C149.339 265.002 148.997 268.719 147.321 271.901C145.645 275.083 142.774 277.469 139.34 278.535C135.905 279.6 132.187 279.257 129.005 277.581C125.823 275.906 123.437 273.035 122.372 269.6L107.146 220.504L107.19 220.49Z" fill="#FBD766"/>
<path d="M201.392 189.954L227.294 181.921L242.52 231.018C243.586 234.452 243.243 238.17 241.567 241.352C239.891 244.534 237.02 246.92 233.586 247.985C230.151 249.05 226.434 248.707 223.251 247.032C220.069 245.356 217.683 242.485 216.618 239.05L201.392 189.954Z" fill="#FBD766"/>
<path d="M107.19 220.49L133.048 212.471L148.274 261.567C149.339 265.002 148.997 268.719 147.321 271.901C145.645 275.083 142.774 277.469 139.34 278.535C135.905 279.6 132.187 279.257 129.005 277.581C125.823 275.906 123.437 273.035 122.372 269.6L107.146 220.504L107.19 220.49Z" stroke="#141414" stroke-width="3.08172" stroke-miterlimit="10"/>
<path d="M201.392 189.954L227.294 181.921L242.52 231.018C243.586 234.452 243.243 238.17 241.567 241.352C239.891 244.534 237.02 246.92 233.586 247.985C230.151 249.05 226.434 248.707 223.251 247.032C220.069 245.356 217.683 242.485 216.618 239.05L201.392 189.954V189.954Z" stroke="#141414" stroke-width="3.08172" stroke-miterlimit="10"/>
<path opacity="0.7" d="M116.875 232.47L121.975 248.926" stroke="white" stroke-width="4.31441" stroke-linecap="round" stroke-linejoin="round"/>
<path d="M115.07 198.893L208.436 169.938L227.149 230.278C228.228 233.757 228.611 237.414 228.276 241.041C227.942 244.668 226.896 248.193 225.199 251.416C223.502 254.639 221.187 257.496 218.386 259.824C215.585 262.152 212.352 263.905 208.873 264.984L168.401 277.536C161.376 279.715 153.772 279.013 147.263 275.586C140.754 272.159 135.874 266.286 133.695 259.26L114.982 198.92L115.07 198.893Z" fill="#FACA3F"/>
<path d="M216.629 196.455L123.264 225.41L126.815 236.86L220.18 207.905L216.629 196.455Z" fill="#F7B000"/>
<path d="M115.07 198.893L208.436 169.938L227.149 230.278C228.228 233.757 228.611 237.414 228.276 241.041C227.942 244.668 226.896 248.193 225.199 251.416C223.502 254.639 221.187 257.496 218.386 259.824C215.585 262.152 212.352 263.905 208.873 264.984L168.401 277.536C161.375 279.715 153.772 279.013 147.263 275.586C140.754 272.159 135.874 266.286 133.695 259.26L114.982 198.92L115.07 198.893Z" stroke="#141414" stroke-width="3.08172" stroke-miterlimit="10"/>
<path d="M98.8926 81.0492C100.2 75.2341 103.017 69.8664 107.061 65.4875C111.104 61.1085 116.231 57.873 121.923 56.1073C127.616 54.3415 133.674 54.1078 139.485 55.4299C145.297 56.7519 150.658 59.5829 155.026 63.6374L172.762 80.1247L232.116 136.428L154.441 161.082L76.7812 185.735L93.5612 104.624L98.8926 81.0492Z" stroke="#141414" stroke-width="3.08172" stroke-miterlimit="10"/>
<path d="M194.006 72.7916L74.0409 110.281C63.3715 113.615 57.4251 124.967 60.7593 135.637L86.1465 216.876C89.4807 227.545 100.833 233.492 111.502 230.157L231.468 192.668C242.137 189.334 248.083 177.982 244.749 167.312L219.362 86.0732C216.028 75.4038 204.676 69.4574 194.006 72.7916Z" fill="#F9B117"/>
<path opacity="0.5" d="M240.975 161.066L242.886 167.23C244.466 172.326 243.958 177.841 241.473 182.562C238.988 187.284 234.73 190.825 229.635 192.408L110.28 229.388C105.181 230.969 99.6645 230.461 94.9406 227.976C90.2168 225.492 86.6725 221.233 85.0865 216.137L83.1758 209.973C84.7585 215.069 88.2998 219.327 93.0211 221.812C97.7425 224.297 103.257 224.805 108.353 223.225L227.724 186.244C230.254 185.471 232.605 184.205 234.643 182.518C236.681 180.831 238.364 178.758 239.596 176.417C240.829 174.076 241.585 171.514 241.821 168.879C242.058 166.245 241.771 163.589 240.975 161.066Z" fill="#E59303"/>
<path d="M194.349 83.9694L80.123 119.665C73.7181 121.666 70.1484 128.481 72.15 134.886L95.9286 210.978C97.9301 217.383 104.745 220.952 111.15 218.951L225.376 183.255C231.781 181.254 235.35 174.439 233.349 168.034L209.57 91.9424C207.569 85.5375 200.754 81.9678 194.349 83.9694Z" fill="#0E394F"/>
<path d="M228.186 157.168L231.56 167.954C232.03 169.47 232.197 171.063 232.05 172.643C231.904 174.223 231.448 175.759 230.709 177.162C229.969 178.566 228.96 179.81 227.739 180.824C226.518 181.838 225.11 182.601 223.594 183.07L109.956 218.31C106.893 219.259 103.578 218.953 100.741 217.459C97.9036 215.965 95.7755 213.406 94.8244 210.343L91.4653 199.557C92.4163 202.616 94.5427 205.171 97.3772 206.662C100.212 208.153 103.522 208.457 106.581 207.508L220.235 172.253C223.289 171.306 225.841 169.184 227.332 166.356C228.823 163.528 229.13 160.223 228.186 157.168Z" fill="#062538"/>
<path d="M135.708 144.215C134.934 141.719 132.283 140.324 129.788 141.098C127.293 141.872 125.897 144.522 126.671 147.017L132.463 165.693C133.237 168.189 135.887 169.584 138.382 168.81C140.878 168.036 142.273 165.386 141.499 162.891L135.708 144.215Z" fill="#4CF58C"/>
<path d="M169.447 133.754C168.673 131.258 166.023 129.863 163.527 130.637C161.032 131.411 159.637 134.061 160.41 136.556L166.202 155.232C166.976 157.727 169.626 159.123 172.122 158.349C174.617 157.575 176.013 154.925 175.239 152.43L169.447 133.754Z" fill="#4CF58C"/>
<path d="M100.28 130.949C102.377 130.298 103.55 128.07 102.899 125.974C102.248 123.877 100.021 122.704 97.9239 123.355L82.7513 128.063C80.6544 128.714 79.482 130.941 80.1328 133.038C80.7835 135.135 83.0109 136.308 85.1078 135.657L100.28 130.949Z" fill="#185472"/>
<path d="M109.447 127.907C111.541 127.907 113.238 126.21 113.238 124.117C113.238 122.023 111.541 120.326 109.447 120.326C107.354 120.326 105.657 122.023 105.657 124.117C105.657 126.21 107.354 127.907 109.447 127.907Z" fill="#185472"/>
<path d="M111.394 101.018L87.1111 108.549C85.6399 109.005 84.8161 110.564 85.2711 112.031C85.7261 113.499 87.2876 114.318 88.7587 113.862L113.042 106.331C114.513 105.875 115.337 104.315 114.882 102.848C114.427 101.381 112.866 100.562 111.394 101.018Z" fill="#FFCB6E"/>
<path d="M119.109 104.285C120.709 104.285 122.006 102.988 122.006 101.389C122.006 99.7887 120.709 98.4917 119.109 98.4917C117.509 98.4917 116.212 99.7887 116.212 101.389C116.212 102.988 117.509 104.285 119.109 104.285Z" fill="#FFCB6E"/>
<path d="M133.227 70.6057L119.775 74.7773C118.849 75.0647 118.331 76.0488 118.618 76.9754C118.905 77.902 119.889 78.4202 120.816 78.1328L134.267 73.9612C135.194 73.6738 135.712 72.6897 135.425 71.7631C135.138 70.8365 134.153 70.3183 133.227 70.6057Z" fill="#F7B40D"/>
<path d="M131.555 65.2277L118.104 69.3994C117.177 69.6867 116.659 70.6708 116.946 71.5974C117.233 72.524 118.218 73.0422 119.144 72.7549L132.596 68.5832C133.522 68.2959 134.04 67.3118 133.753 66.3852C133.466 65.4586 132.482 64.9404 131.555 65.2277Z" fill="#F7B40D"/>
<path d="M189.111 238.263L168.552 244.639C167.129 245.08 166.333 246.588 166.773 248.006C167.212 249.424 168.722 250.216 170.144 249.775L190.704 243.399C192.127 242.958 192.923 241.451 192.483 240.032C192.043 238.614 190.534 237.822 189.111 238.263Z" fill="#F7B40D"/>
<path d="M188.373 230.441L167.708 236.899C166.278 237.346 165.48 238.864 165.926 240.289C166.371 241.715 167.891 242.508 169.321 242.062L189.986 235.604C191.416 235.157 192.213 233.639 191.768 232.214C191.322 230.788 189.802 229.995 188.373 230.441Z" fill="#F7B40D"/>
<path d="M194.006 72.7916L74.0409 110.281C63.3715 113.615 57.4251 124.967 60.7593 135.637L86.1465 216.876C89.4807 227.545 100.833 233.492 111.502 230.157L231.468 192.668C242.137 189.334 248.083 177.982 244.749 167.312L219.362 86.0732C216.028 75.4038 204.676 69.4574 194.006 72.7916Z" stroke="#141414" stroke-width="3.09955" stroke-miterlimit="10"/>
<path opacity="0.2" d="M630.212 291.885C630.212 300.822 447.281 308.064 288.141 308.064C129.001 308.064 0 300.822 0 291.885C0 282.948 129.001 275.706 288.141 275.706C447.281 275.706 630.212 282.948 630.212 291.885Z" fill="#0E394F"/>
<path opacity="0.2" d="M800 291.886C800 295.507 770.724 298.45 745.253 298.45C719.783 298.45 699.135 295.507 699.135 291.886C699.135 288.265 719.783 285.322 745.253 285.322C770.724 285.322 800 288.265 800 291.886Z" fill="#0E394F"/>
<path d="M574.372 1.54077H257.864C255.628 1.54377 253.464 2.3348 251.754 3.77485C250.043 5.21489 248.895 7.21179 248.511 9.41458L211.776 250.744C211.543 252.106 211.61 253.503 211.972 254.837C212.335 256.17 212.984 257.408 213.875 258.465C214.766 259.521 215.876 260.371 217.129 260.953C218.382 261.536 219.748 261.838 221.129 261.839H549.734C551.928 261.824 554.05 261.048 555.736 259.642C557.422 258.237 558.568 256.29 558.979 254.134L596.992 28.9219C597.618 25.5914 597.503 22.1639 596.657 18.8824C595.811 15.601 594.254 12.5457 592.095 9.93305C589.937 7.32042 587.231 5.21437 584.168 3.76409C581.105 2.31381 577.761 1.55478 574.372 1.54077Z" fill="#0E3964"/>
<path d="M574.372 1.54077H257.864C255.628 1.54377 253.464 2.3348 251.754 3.77485C250.043 5.21489 248.895 7.21179 248.511 9.41458L211.776 250.744C211.543 252.106 211.61 253.503 211.972 254.837C212.335 256.17 212.984 257.408 213.875 258.465C214.766 259.521 215.876 260.371 217.129 260.953C218.382 261.536 219.748 261.838 221.129 261.839H549.734C551.928 261.824 554.05 261.048 555.736 259.642C557.422 258.237 558.568 256.29 558.979 254.134L596.992 28.9219C597.618 25.5913 597.503 22.1639 596.657 18.8824C595.811 15.601 594.254 12.5457 592.095 9.93305C589.937 7.32042 587.231 5.21437 584.168 3.76409C581.105 2.31381 577.761 1.55478 574.372 1.54077V1.54077Z" stroke="#141414" stroke-width="3.08172" stroke-miterlimit="10"/>
<path d="M574.742 1.54077H244.628C241.201 1.5389 237.885 2.74905 235.265 4.95709C232.646 7.16514 230.891 10.2287 230.313 13.6057L192.377 261.839H540.843L582.908 11.3869C583.135 10.1864 583.094 8.9507 582.788 7.76788C582.483 6.58506 581.92 5.48424 581.14 4.5439C580.36 3.60357 579.382 2.84688 578.276 2.32778C577.17 1.80869 575.964 1.53996 574.742 1.54077Z" fill="#2C6E9B"/>
<path d="M574.742 1.54077H244.628C241.201 1.5389 237.885 2.74905 235.265 4.9571C232.646 7.16514 230.891 10.2287 230.313 13.6057L192.377 261.839H540.843L582.908 11.3869C583.135 10.1864 583.094 8.9507 582.788 7.76788C582.483 6.58506 581.92 5.48424 581.14 4.5439C580.36 3.60357 579.382 2.84688 578.276 2.32778C577.17 1.80869 575.964 1.53996 574.742 1.54077V1.54077Z" stroke="#141414" stroke-width="3.08172" stroke-miterlimit="10"/>
<path d="M565.712 20.0312H246.923L213.286 243.348H528.808L565.712 20.0312Z" fill="#0E394F"/>
<path d="M566.621 20.3696L564.88 29.6148H246.23L247.817 20.3696H566.621Z" fill="#062538"/>
<path d="M256.014 20.0312L222.362 243.348H213.117L246.769 20.0312H256.014Z" fill="#062538"/>
<path d="M292.256 44.793H275.121L272.933 51.28H291.408L292.256 44.793Z" fill="#4CF58C"/>
<path d="M316.909 44.793H298.234L296.046 51.28H314.521L316.909 44.793Z" fill="#4CF58C"/>
<path d="M338.482 44.793H321.347L320.7 51.28H336.093L338.482 44.793Z" fill="#4CF58C"/>
<path d="M353.119 44.793H346.771L344.583 51.28H352.272L353.119 44.793Z" fill="#4CF58C"/>
<path d="M269.912 44.793H263.564L261.376 51.28L268.433 51.4957L269.912 44.793Z" fill="#4CF58C"/>
<path d="M289.173 58.6602H272.039L269.851 65.1472H288.326L289.173 58.6602Z" fill="#4CF58C"/>
<path d="M312.286 58.6602H295.152L292.964 65.1472H311.439L312.286 58.6602Z" fill="#4CF58C"/>
<path d="M335.4 58.6602H318.265L317.618 65.1472H334.552L335.4 58.6602Z" fill="#4CF58C"/>
<path d="M348.496 58.6602H342.148L339.96 65.1472H347.649L348.496 58.6602Z" fill="#4CF58C"/>
<path d="M266.831 58.6602H260.483L258.295 65.1472H265.737L266.831 58.6602Z" fill="#4CF58C"/>
<path d="M42.4812 260.297H394.229V292.655H54.3766C51.6072 292.657 48.8645 292.114 46.3053 291.055C43.7461 289.997 41.4206 288.445 39.4616 286.487C37.5026 284.529 35.9485 282.205 34.8882 279.647C33.828 277.088 33.2822 274.346 33.2822 271.576V269.496C33.2944 267.06 34.2674 264.728 35.99 263.005C37.7125 261.283 40.0452 260.31 42.4812 260.297Z" fill="#19517F"/>
<path opacity="0.3" d="M394.229 280.329V292.656H54.3613C48.7721 292.652 43.4129 290.429 39.4607 286.477C35.5085 282.525 33.2864 277.166 33.2823 271.577V269.496C33.2755 268.107 33.592 266.736 34.2069 265.49C35.5509 269.786 38.2299 273.541 41.8545 276.209C45.4791 278.878 49.8603 280.321 54.3613 280.329H394.229Z" fill="#0E3964"/>
<path opacity="0.3" d="M545.25 251.052V260.298H192.654L193.933 251.052H545.25Z" fill="#0E3964"/>
<path d="M139.987 260.297H264.797C264.797 264.793 263.011 269.104 259.833 272.282C256.654 275.461 252.343 277.247 247.848 277.247H156.937C154.711 277.247 152.507 276.808 150.45 275.957C148.394 275.105 146.526 273.856 144.952 272.282C143.378 270.709 142.129 268.84 141.278 266.784C140.426 264.727 139.987 262.523 139.987 260.297Z" fill="#0E3964"/>
<path d="M139.987 260.297H264.797C264.797 264.793 263.011 269.104 259.833 272.282C256.654 275.461 252.343 277.247 247.848 277.247H156.937C154.711 277.247 152.507 276.808 150.45 275.957C148.394 275.105 146.526 273.856 144.952 272.282C143.378 270.709 142.129 268.84 141.278 266.784C140.426 264.727 139.987 262.523 139.987 260.297Z" stroke="#141414" stroke-width="3.08172" stroke-miterlimit="10"/>
<path d="M565.573 20.0312L528.67 243.348H213.209L561.243 20.0312H565.573Z" fill="#062538"/>
<path d="M578.103 104.833L580.938 86.624C581.168 85.1441 580.155 83.7575 578.675 83.5271C577.195 83.2967 575.809 84.3096 575.578 85.7895L572.743 103.999C572.513 105.479 573.526 106.865 575.006 107.096C576.486 107.326 577.872 106.313 578.103 104.833Z" fill="#062C4C"/>
<path d="M583.435 70.5515L586.27 52.3422C586.501 50.8623 585.488 49.4758 584.008 49.2454C582.528 49.0149 581.141 50.0279 580.911 51.5078L578.076 69.7171C577.845 71.197 578.858 72.5835 580.338 72.814C581.818 73.0444 583.205 72.0315 583.435 70.5515Z" fill="#062C4C"/>
<path d="M205.813 266.06H187.384C185.887 266.06 184.672 267.274 184.672 268.772C184.672 270.27 185.887 271.484 187.384 271.484H205.813C207.311 271.484 208.525 270.27 208.525 268.772C208.525 267.274 207.311 266.06 205.813 266.06Z" fill="#141414"/>
<path d="M96.1342 260.39H58.6758C56.4122 260.39 54.5771 262.225 54.5771 264.489C54.5771 266.752 56.4122 268.588 58.6758 268.588H96.1342C98.3978 268.588 100.233 266.752 100.233 264.489C100.233 262.225 98.3978 260.39 96.1342 260.39Z" fill="#2C6E9B"/>
<path d="M107.845 268.588C110.109 268.588 111.944 266.752 111.944 264.489C111.944 262.225 110.109 260.39 107.845 260.39C105.582 260.39 103.747 262.225 103.747 264.489C103.747 266.752 105.582 268.588 107.845 268.588Z" fill="#2C6E9B"/>
<path d="M215.224 138.635L209.442 175.644C209.092 177.881 210.622 179.977 212.859 180.326C215.095 180.676 217.191 179.146 217.541 176.909L223.323 139.9C223.673 137.664 222.143 135.567 219.906 135.218C217.67 134.868 215.573 136.398 215.224 138.635Z" fill="#4D9AC4"/>
<path d="M221.067 131.79C223.331 131.79 225.166 129.955 225.166 127.691C225.166 125.428 223.331 123.593 221.067 123.593C218.803 123.593 216.968 125.428 216.968 127.691C216.968 129.955 218.803 131.79 221.067 131.79Z" fill="#4D9AC4"/>
<path d="M291.824 6.14819H254.365C252.102 6.14819 250.267 7.98324 250.267 10.2469C250.267 12.5105 252.102 14.3456 254.365 14.3456H291.824C294.087 14.3456 295.922 12.5105 295.922 10.2469C295.922 7.98324 294.087 6.14819 291.824 6.14819Z" fill="#4D9AC4"/>
<path d="M303.534 14.3456C305.797 14.3456 307.632 12.5105 307.632 10.2469C307.632 7.98324 305.797 6.14819 303.534 6.14819C301.27 6.14819 299.435 7.98324 299.435 10.2469C299.435 12.5105 301.27 14.3456 303.534 14.3456Z" fill="#4D9AC4"/>
<path d="M378.821 15.3008C381.374 15.3008 383.443 13.2312 383.443 10.6782C383.443 8.12527 381.374 6.05566 378.821 6.05566C376.268 6.05566 374.198 8.12527 374.198 10.6782C374.198 13.2312 376.268 15.3008 378.821 15.3008Z" fill="#F95D5D"/>
<path d="M145.719 252.593H110.279V260.297H145.719V252.593Z" fill="#033156"/>
<path d="M92.2206 252.593H56.7808V260.297H92.2206V252.593Z" fill="#033156"/>
<path d="M199.203 252.593H163.763V260.297H199.203V252.593Z" fill="#033156"/>
<path d="M252.702 252.593H217.262V260.297H252.702V252.593Z" fill="#033156"/>
<path d="M306.184 252.593H270.745V260.297H306.184V252.593Z" fill="#033156"/>
<path d="M359.683 252.593H324.243V260.297H359.683V252.593Z" fill="#033156"/>
<path d="M413.167 252.593H377.728V260.297H413.167V252.593Z" fill="#033156"/>
<path d="M520.58 252.593H485.14V260.297H520.58V252.593Z" fill="#033156"/>
<path d="M466.866 252.824H431.426V260.529H466.866V252.824Z" fill="#033156"/>
<path d="M145.719 252.593H110.279V260.297H145.719V252.593Z" stroke="#141414" stroke-width="3.08172" stroke-miterlimit="10"/>
<path d="M92.2206 252.593H56.7808V260.297H92.2206V252.593Z" stroke="#141414" stroke-width="3.08172" stroke-miterlimit="10"/>
<path d="M199.203 252.593H163.763V260.297H199.203V252.593Z" stroke="#141414" stroke-width="3.08172" stroke-miterlimit="10"/>
<path d="M252.702 252.593H217.262V260.297H252.702V252.593Z" stroke="#141414" stroke-width="3.08172" stroke-miterlimit="10"/>
<path d="M306.184 252.593H270.745V260.297H306.184V252.593Z" stroke="#141414" stroke-width="3.08172" stroke-miterlimit="10"/>
<path d="M359.683 252.593H324.243V260.297H359.683V252.593Z" stroke="#141414" stroke-width="3.08172" stroke-miterlimit="10"/>
<path d="M413.167 252.593H377.728V260.297H413.167V252.593Z" stroke="#141414" stroke-width="3.08172" stroke-miterlimit="10"/>
<path d="M520.58 252.593H485.14V260.297H520.58V252.593Z" stroke="#141414" stroke-width="3.08172" stroke-miterlimit="10"/>
<path d="M466.866 252.824H431.426V260.529H466.866V252.824Z" stroke="#141414" stroke-width="3.08172" stroke-miterlimit="10"/>
<path d="M565.558 20.0312H246.769L213.132 243.348H528.655L565.558 20.0312Z" stroke="#141414" stroke-width="3.08172" stroke-miterlimit="10"/>
<path d="M521.874 45.563H389.36C386.211 45.558 383.165 46.685 380.778 48.7385C378.391 50.792 376.821 53.6353 376.355 56.7497L363.489 142.113C363.208 143.984 363.333 145.894 363.857 147.712C364.382 149.53 365.292 151.214 366.527 152.647C367.762 154.081 369.292 155.231 371.012 156.019C372.732 156.808 374.602 157.215 376.494 157.214H507.822C510.94 157.219 513.959 156.115 516.338 154.1C518.718 152.084 520.303 149.289 520.811 146.212L534.926 60.8484C535.238 58.9597 535.133 57.0256 534.62 55.1814C534.106 53.3373 533.196 51.6275 531.953 50.1717C530.71 48.7159 529.164 47.5491 527.423 46.7531C525.683 45.957 523.789 45.5509 521.874 45.563Z" fill="white"/>
<path d="M534.679 60.864L520.58 146.212C520.07 149.285 518.486 152.077 516.11 154.091C513.734 156.106 510.721 157.212 507.606 157.214H376.294C373.29 157.213 370.377 156.186 368.037 154.303C365.697 152.42 364.071 149.794 363.428 146.859L521.304 45.5632H521.72C523.628 45.5668 525.511 45.985 527.241 46.7886C528.97 47.5923 530.505 48.7624 531.737 50.2177C532.97 51.6731 533.871 53.379 534.379 55.2172C534.887 57.0555 534.99 58.9822 534.679 60.864Z" fill="#F4F3F2"/>
<path d="M42.4812 260.297H394.229V292.655H54.3766C51.6072 292.657 48.8645 292.114 46.3053 291.055C43.7461 289.997 41.4206 288.445 39.4616 286.487C37.5026 284.529 35.9485 282.205 34.8882 279.647C33.828 277.088 33.2822 274.346 33.2822 271.576V269.496C33.2944 267.06 34.2674 264.728 35.99 263.005C37.7125 261.283 40.0452 260.31 42.4812 260.297Z" stroke="#141414" stroke-width="3.08172" stroke-miterlimit="10"/>
<path d="M556.791 260.297H378.051C369.115 260.297 361.872 267.541 361.872 276.476C361.872 285.412 369.115 292.655 378.051 292.655H556.791C565.726 292.655 572.97 285.412 572.97 276.476C572.97 267.541 565.726 260.297 556.791 260.297Z" fill="#0E3964"/>
<path d="M551.768 273.764H533.339C531.841 273.764 530.627 274.979 530.627 276.476C530.627 277.974 531.841 279.188 533.339 279.188H551.768C553.265 279.188 554.48 277.974 554.48 276.476C554.48 274.979 553.265 273.764 551.768 273.764Z" fill="#141414"/>
<path d="M517.067 273.764H498.639C497.141 273.764 495.927 274.979 495.927 276.476C495.927 277.974 497.141 279.188 498.639 279.188H517.067C518.565 279.188 519.779 277.974 519.779 276.476C519.779 274.979 518.565 273.764 517.067 273.764Z" fill="#141414"/>
<path d="M556.791 260.297H378.051C369.115 260.297 361.872 267.541 361.872 276.476C361.872 285.412 369.115 292.655 378.051 292.655H556.791C565.726 292.655 572.97 285.412 572.97 276.476C572.97 267.541 565.726 260.297 556.791 260.297Z" stroke="#141414" stroke-width="3.08172" stroke-miterlimit="10"/>
<path d="M100.757 91.2039L102.098 84.3779" stroke="white" stroke-width="1.54086" stroke-linecap="round" stroke-linejoin="round"/>
<path d="M102.529 82.7748C103.073 82.7748 103.515 82.3333 103.515 81.7886C103.515 81.244 103.073 80.8025 102.529 80.8025C101.984 80.8025 101.542 81.244 101.542 81.7886C101.542 82.3333 101.984 82.7748 102.529 82.7748Z" fill="white"/>
<path d="M166.413 92.5283L193.008 84.2693C196.054 83.3578 199.337 83.6826 202.146 85.1736C204.955 86.6645 207.064 89.2015 208.016 92.2356L214.487 113.13" stroke="#141414" stroke-width="3.08172" stroke-linecap="round" stroke-linejoin="round"/>
<path d="M137.784 101.389L155.396 95.9185" stroke="#141414" stroke-width="3.08172" stroke-linecap="round" stroke-linejoin="round"/>
<path d="M202.392 189.634L109.94 218.309C106.877 219.258 103.563 218.952 100.726 217.458C97.8882 215.965 95.7601 213.405 94.809 210.343L71.3417 134.656C70.3927 131.593 70.6987 128.278 72.1925 125.441C73.6863 122.604 76.2457 120.476 79.3079 119.525L128.446 104.285" stroke="#141414" stroke-width="3.08172" stroke-linecap="round" stroke-linejoin="round"/>
<path d="M408.929 117.721H391.795L389.607 124.224H408.082L408.929 117.721Z" fill="#FBD766"/>
<path d="M433.583 117.721H414.908L412.735 124.224H431.195L433.583 117.721Z" fill="#FBD766"/>
<path d="M455.155 117.721H438.021L437.389 124.224H452.767L455.155 117.721Z" fill="#FBD766"/>
<path d="M469.793 117.721H463.445L461.272 124.224H468.946L469.793 117.721Z" fill="#FBD766"/>
<path d="M386.587 117.721H380.239L378.051 124.224L385.108 124.424L386.587 117.721Z" fill="#FBD766"/>
<path d="M405.848 131.59H388.713L386.525 138.092H405L405.848 131.59Z" fill="#FBD766"/>
<path d="M428.961 131.59H411.826L409.654 138.092H428.113L428.961 131.59Z" fill="#FBD766"/>
<path d="M452.074 131.59H434.939L434.308 138.092H451.226L452.074 131.59Z" fill="#FBD766"/>
<path d="M465.171 131.59H458.823L456.65 138.092H464.323L465.171 131.59Z" fill="#FBD766"/>
<path d="M383.505 131.59H377.157L374.969 138.092H382.411L383.505 131.59Z" fill="#FBD766"/>
<path d="M521.874 45.563H389.36C386.211 45.558 383.165 46.685 380.778 48.7385C378.391 50.792 376.821 53.6353 376.355 56.7497L363.489 142.113C363.208 143.984 363.333 145.894 363.857 147.712C364.382 149.53 365.292 151.214 366.527 152.647C367.762 154.081 369.292 155.231 371.012 156.019C372.732 156.808 374.602 157.215 376.494 157.214H507.822C510.94 157.219 513.959 156.115 516.338 154.1C518.718 152.084 520.303 149.289 520.811 146.212L534.926 60.8484C535.238 58.9597 535.133 57.0256 534.62 55.1814C534.106 53.3373 533.196 51.6275 531.953 50.1717C530.71 48.7159 529.164 47.5491 527.423 46.7531C525.683 45.957 523.789 45.5509 521.874 45.563V45.563Z" stroke="#141414" stroke-width="2.00312" stroke-miterlimit="10"/>
</g>
<defs>
<clipPath id="clip0">
<rect width="800" height="308.064" fill="white"/>
</clipPath>
</defs>
</svg>
