<svg width="202" height="55" viewBox="0 0 202 55" fill="none" xmlns="http://www.w3.org/2000/svg">
<path d="M19.7769 33.1286C20.0439 33.1286 20.2494 33.2518 20.3932 33.4983C20.5575 33.7448 20.6397 34.0838 20.6397 34.5152C20.6397 35.3369 20.4445 35.9737 20.0542 36.4256C19.212 37.4527 18.2876 38.3361 17.281 39.0756C16.2744 39.7946 15.2781 40.1541 14.2921 40.1541C12.7309 40.1541 11.5394 39.2399 10.7177 37.4117C9.85493 38.5004 9.09486 39.2297 8.4375 39.5994C7.80069 39.9692 7.05089 40.1541 6.18811 40.1541C4.93503 40.1541 3.89764 39.6919 3.07594 38.7675C2.27479 37.8225 1.87421 36.6002 1.87421 35.1006C1.87421 33.4573 2.22343 31.9371 2.92187 30.5402C3.62031 29.1228 4.57554 27.9724 5.78754 27.0891C7.02008 26.1853 8.39642 25.6512 9.91655 25.4868C10.3069 21.5016 11.0464 18.1018 12.1351 15.2875C13.2444 12.4527 14.6927 11.0352 16.4798 11.0352C17.3632 11.0352 18.0924 11.4358 18.6676 12.237C19.2633 13.0381 19.5612 14.2501 19.5612 15.873C19.5612 18.1737 18.9963 20.8648 17.8665 23.9461C16.7366 27.0275 15.2268 30.191 13.3369 33.4367C13.419 34.6282 13.5936 35.4807 13.8607 35.9942C14.1483 36.5078 14.5078 36.7646 14.9392 36.7646C15.4938 36.7646 16.0587 36.5181 16.6339 36.0251C17.2091 35.532 17.9794 34.7103 18.9449 33.56C19.1914 33.2724 19.4688 33.1286 19.7769 33.1286ZM16.1409 14.055C15.7506 14.055 15.3603 14.7534 14.97 16.1503C14.5797 17.5266 14.2407 19.3344 13.9531 21.5735C13.6861 23.8126 13.4909 26.1544 13.3677 28.599C15.6684 23.5866 16.8188 19.5603 16.8188 16.5201C16.8188 15.7395 16.7469 15.1335 16.6031 14.7021C16.4798 14.2707 16.3258 14.055 16.1409 14.055ZM7.26659 37.0419C7.65689 37.0419 8.0472 36.8878 8.4375 36.5797C8.82781 36.251 9.32082 35.6553 9.91655 34.7925C9.71113 33.6832 9.60842 32.4404 9.60842 31.0641C9.60842 30.571 9.62896 29.7699 9.67004 28.6606C8.54021 29.0098 7.59526 29.7699 6.8352 30.9408C6.09567 32.0912 5.72591 33.3751 5.72591 34.7925C5.72591 36.2921 6.23947 37.0419 7.26659 37.0419ZM22.1695 23.6072C21.3067 23.6072 20.6597 23.412 20.2283 23.0217C19.7969 22.6109 19.5812 22.046 19.5812 21.327C19.5812 20.608 19.8585 20.0123 20.4131 19.5398C20.9883 19.0468 21.697 18.8003 22.5393 18.8003C23.2993 18.8003 23.9156 18.9851 24.3881 19.3549C24.8606 19.7247 25.0968 20.2485 25.0968 20.9264C25.0968 21.7481 24.8298 22.4055 24.2957 22.8985C23.7616 23.3709 23.0528 23.6072 22.1695 23.6072ZM21.923 40.1541C20.5878 40.1541 19.612 39.6816 18.9957 38.7366C18.4 37.7917 18.1021 36.5386 18.1021 34.9774C18.1021 34.053 18.2151 32.8718 18.4411 31.4338C18.6876 29.9753 18.9957 28.6195 19.3655 27.3664C19.5504 26.7091 19.7969 26.2572 20.105 26.0106C20.4131 25.7641 20.9062 25.6409 21.5841 25.6409C22.6317 25.6409 23.1556 25.9901 23.1556 26.6885C23.1556 27.2021 22.9604 28.3936 22.5701 30.2629C22.0771 32.5226 21.8306 34.053 21.8306 34.8541C21.8306 35.4704 21.9127 35.9429 22.0771 36.2716C22.2414 36.6002 22.5187 36.7646 22.909 36.7646C23.2788 36.7646 23.741 36.5078 24.2957 35.9942C24.8503 35.4807 25.5898 34.6693 26.5142 33.56C26.7607 33.2724 27.0381 33.1286 27.3462 33.1286C27.6132 33.1286 27.8187 33.2518 27.9625 33.4983C28.1268 33.7448 28.209 34.0838 28.209 34.5152C28.209 35.3369 28.0138 35.9737 27.6235 36.4256C25.5898 38.9113 23.6897 40.1541 21.923 40.1541ZM41.2696 30.6327C41.3312 30.6121 41.4339 30.6019 41.5777 30.6019C41.8859 30.6019 42.1221 30.7046 42.2864 30.91C42.4508 31.1154 42.533 31.3927 42.533 31.742C42.533 32.3788 42.4097 32.8821 42.1632 33.2518C41.9167 33.601 41.5469 33.8578 41.0539 34.0222C40.1089 34.3303 39.1024 34.4844 38.0342 34.4844C37.1303 34.4844 36.2778 34.3611 35.4766 34.1146C34.8809 35.0801 34.2236 36.0764 33.5046 37.1035C32.6829 38.2744 31.9742 39.0756 31.3784 39.507C30.7827 39.9384 30.1048 40.1541 29.3447 40.1541C28.5025 40.1541 27.8349 39.8254 27.3419 39.168C26.8694 38.5107 26.5715 37.4733 26.4483 36.0559C26.2018 33.1799 26.0785 30.6635 26.0785 28.5065V27.4281C26.099 26.7502 26.2839 26.2777 26.6332 26.0106C26.9824 25.7436 27.5062 25.6101 28.2046 25.6101C28.7387 25.6101 29.129 25.7333 29.3756 25.9798C29.6426 26.2058 29.7761 26.5961 29.7761 27.1507C29.7761 29.5131 29.9199 32.5842 30.2075 36.364C31.4401 34.5357 32.3645 33.0772 32.9807 31.9885C32.6726 31.3927 32.5185 30.684 32.5185 29.8623C32.5185 29.1639 32.6726 28.486 32.9807 27.8286C33.2889 27.1713 33.71 26.6372 34.2441 26.2263C34.7782 25.8155 35.3842 25.6101 36.0621 25.6101C36.6578 25.6101 37.1406 25.8258 37.5103 26.2572C37.8801 26.668 38.065 27.274 38.065 28.0752C38.065 28.9996 37.8185 30.0575 37.3255 31.2489C38.1061 31.2079 39.1435 31.0538 40.4376 30.7867L41.2696 30.6327ZM43.8955 23.6072C43.0327 23.6072 42.3856 23.412 41.9542 23.0217C41.5228 22.6109 41.3071 22.046 41.3071 21.327C41.3071 20.608 41.5845 20.0123 42.1391 19.5398C42.7143 19.0468 43.423 18.8003 44.2653 18.8003C45.0253 18.8003 45.6416 18.9851 46.1141 19.3549C46.5865 19.7247 46.8228 20.2485 46.8228 20.9264C46.8228 21.7481 46.5557 22.4055 46.0216 22.8985C45.4875 23.3709 44.7788 23.6072 43.8955 23.6072ZM43.649 40.1541C42.3137 40.1541 41.338 39.6816 40.7217 38.7366C40.126 37.7917 39.8281 36.5386 39.8281 34.9774C39.8281 34.053 39.9411 32.8718 40.167 31.4338C40.4136 29.9753 40.7217 28.6195 41.0915 27.3664C41.2763 26.7091 41.5228 26.2572 41.831 26.0106C42.1391 25.7641 42.6321 25.6409 43.31 25.6409C44.3577 25.6409 44.8815 25.9901 44.8815 26.6885C44.8815 27.2021 44.6864 28.3936 44.2961 30.2629C43.803 32.5226 43.5565 34.053 43.5565 34.8541C43.5565 35.4704 43.6387 35.9429 43.803 36.2716C43.9674 36.6002 44.2447 36.7646 44.635 36.7646C45.0048 36.7646 45.467 36.5078 46.0216 35.9942C46.5763 35.4807 47.3158 34.6693 48.2402 33.56C48.4867 33.2724 48.764 33.1286 49.0722 33.1286C49.3392 33.1286 49.5446 33.2518 49.6884 33.4983C49.8528 33.7448 49.9349 34.0838 49.9349 34.5152C49.9349 35.3369 49.7398 35.9737 49.3495 36.4256C47.3158 38.9113 45.4156 40.1541 43.649 40.1541ZM64.944 33.1286C65.2111 33.1286 65.4165 33.2518 65.5603 33.4983C65.7246 33.7448 65.8068 34.0838 65.8068 34.5152C65.8068 35.3369 65.6117 35.9737 65.2214 36.4256C64.3791 37.4527 63.4547 38.3361 62.4481 39.0756C61.4416 39.7946 60.4453 40.1541 59.4592 40.1541C57.898 40.1541 56.7065 39.2399 55.8849 37.4117C55.0221 38.5004 54.262 39.2297 53.6046 39.5994C52.9678 39.9692 52.218 40.1541 51.3553 40.1541C50.1022 40.1541 49.0648 39.6919 48.2431 38.7675C47.4419 37.8225 47.0414 36.6002 47.0414 35.1006C47.0414 33.4573 47.3906 31.9371 48.089 30.5402C48.7875 29.1228 49.7427 27.9724 50.9547 27.0891C52.1872 26.1853 53.5636 25.6512 55.0837 25.4868C55.474 21.5016 56.2135 18.1018 57.3023 15.2875C58.4116 12.4527 59.8598 11.0352 61.647 11.0352C62.5303 11.0352 63.2596 11.4358 63.8348 12.237C64.4305 13.0381 64.7283 14.2501 64.7283 15.873C64.7283 18.1737 64.1634 20.8648 63.0336 23.9461C61.9038 27.0275 60.3939 30.191 58.504 33.4367C58.5862 34.6282 58.7608 35.4807 59.0278 35.9942C59.3154 36.5078 59.6749 36.7646 60.1063 36.7646C60.661 36.7646 61.2259 36.5181 61.8011 36.0251C62.3762 35.532 63.1466 34.7103 64.1121 33.56C64.3586 33.2724 64.6359 33.1286 64.944 33.1286ZM61.308 14.055C60.9177 14.055 60.5274 14.7534 60.1371 16.1503C59.7468 17.5266 59.4079 19.3344 59.1203 21.5735C58.8532 23.8126 58.6581 26.1544 58.5348 28.599C60.8356 23.5866 61.9859 19.5603 61.9859 16.5201C61.9859 15.7395 61.914 15.1335 61.7702 14.7021C61.647 14.2707 61.4929 14.055 61.308 14.055ZM52.4337 37.0419C52.824 37.0419 53.2143 36.8878 53.6046 36.5797C53.995 36.251 54.488 35.6553 55.0837 34.7925C54.8783 33.6832 54.7756 32.4404 54.7756 31.0641C54.7756 30.571 54.7961 29.7699 54.8372 28.6606C53.7074 29.0098 52.7624 29.7699 52.0023 30.9408C51.2628 32.0912 50.8931 33.3751 50.8931 34.7925C50.8931 36.2921 51.4066 37.0419 52.4337 37.0419ZM74.3313 34.053C74.5984 34.053 74.8038 34.1762 74.9476 34.4227C75.112 34.6693 75.1941 35.0082 75.1941 35.4396C75.1941 36.1791 75.0195 36.8159 74.6703 37.35C74.0951 38.2334 73.335 38.9215 72.3901 39.4145C71.4657 39.9076 70.3564 40.1541 69.0622 40.1541C67.0902 40.1541 65.5597 39.5686 64.471 38.3977C63.3823 37.2062 62.8379 35.6039 62.8379 33.5908C62.8379 32.1734 63.1357 30.8586 63.7315 29.6466C64.3272 28.4141 65.1489 27.4383 66.1966 26.7194C67.2648 26.0004 68.4665 25.6409 69.8017 25.6409C70.9932 25.6409 71.9484 26.0004 72.6674 26.7194C73.3864 27.4178 73.7459 28.373 73.7459 29.585C73.7459 31.0024 73.2323 32.2247 72.2052 33.2518C71.1986 34.2584 69.4731 35.0596 67.0285 35.6553C67.5215 36.6002 68.3535 37.0727 69.5244 37.0727C70.3667 37.0727 71.0548 36.8776 71.5889 36.4873C72.1436 36.0969 72.7804 35.4396 73.4994 34.5152C73.7459 34.2071 74.0232 34.053 74.3313 34.053ZM69.2779 28.6606C68.5178 28.6606 67.8708 29.1023 67.3367 29.9856C66.8231 30.8689 66.5663 31.9371 66.5663 33.1902V33.2518C67.7783 32.9642 68.7335 32.5328 69.432 31.9577C70.1304 31.3825 70.4796 30.7148 70.4796 29.9548C70.4796 29.5645 70.3667 29.2563 70.1407 29.0304C69.9353 28.7839 69.6477 28.6606 69.2779 28.6606ZM97.8662 33.1286C98.1332 33.1286 98.3386 33.2518 98.4824 33.4983C98.6468 33.7448 98.7289 34.0838 98.7289 34.5152C98.7289 35.3369 98.5338 35.9737 98.1435 36.4256C97.3834 37.35 96.3049 38.2025 94.9081 38.9832C93.5317 39.7638 92.0527 40.1541 90.4709 40.1541C88.314 40.1541 86.6398 39.5686 85.4483 38.3977C84.2568 37.2268 83.6611 35.6245 83.6611 33.5908C83.6611 32.1734 83.959 30.8586 84.5547 29.6466C85.1504 28.4141 85.9721 27.4383 87.0198 26.7194C88.088 26.0004 89.2897 25.6409 90.625 25.6409C91.8164 25.6409 92.7717 26.0004 93.4906 26.7194C94.2096 27.4178 94.5691 28.373 94.5691 29.585C94.5691 31.0024 94.0556 32.2247 93.0284 33.2518C92.0219 34.2584 90.3066 35.0596 87.8826 35.6553C88.3961 36.6002 89.3719 37.0727 90.8099 37.0727C91.7343 37.0727 92.7819 36.7543 93.9528 36.1175C95.1443 35.4601 96.1714 34.6076 97.0342 33.56C97.2807 33.2724 97.558 33.1286 97.8662 33.1286ZM90.1011 28.6606C89.3411 28.6606 88.694 29.1023 88.1599 29.9856C87.6463 30.8689 87.3896 31.9371 87.3896 33.1902V33.2518C88.6016 32.9642 89.5568 32.5328 90.2552 31.9577C90.9537 31.3825 91.3029 30.7148 91.3029 29.9548C91.3029 29.5645 91.1899 29.2563 90.9639 29.0304C90.7585 28.7839 90.4709 28.6606 90.1011 28.6606ZM101.304 28.5682C101.263 29.5953 101.243 30.3964 101.243 30.9716C101.243 32.4507 101.315 33.6113 101.458 34.4536C101.623 35.2753 101.879 35.871 102.229 36.2407C102.598 36.59 103.102 36.7646 103.739 36.7646C104.067 36.7646 104.458 36.6619 104.909 36.4564C105.361 36.251 105.772 35.984 106.142 35.6553C106.368 35.4499 106.594 35.3472 106.82 35.3472C107.066 35.3472 107.262 35.4909 107.405 35.7785C107.57 36.0456 107.652 36.3743 107.652 36.7646C107.652 37.1549 107.57 37.5349 107.405 37.9047C107.262 38.2744 107.036 38.5826 106.727 38.8291C105.659 39.7124 104.447 40.1541 103.091 40.1541C101.14 40.1541 99.7122 39.3426 98.8084 37.7198C97.9045 36.0764 97.4526 33.94 97.4526 31.3106C97.4526 30.4067 97.4834 29.4926 97.545 28.5682H96.3433C95.727 28.5682 95.3059 28.4552 95.0799 28.2292C94.8745 28.0033 94.7718 27.6438 94.7718 27.1507C94.7718 26.0004 95.234 25.4252 96.1584 25.4252H97.9148C98.264 23.1655 98.7981 21.101 99.5171 19.2317C100.236 17.3623 101.099 15.873 102.105 14.7637C103.133 13.6544 104.232 13.0998 105.402 13.0998C106.265 13.0998 106.943 13.4798 107.436 14.2399C107.929 14.9999 108.176 15.9551 108.176 17.1055C108.176 20.2896 106.84 23.0628 104.17 25.4252H107.621C107.95 25.4252 108.186 25.4971 108.33 25.6409C108.474 25.7847 108.545 26.0517 108.545 26.442C108.545 27.8595 107.385 28.5682 105.064 28.5682H101.304ZM104.571 16.0579C104.262 16.0579 103.913 16.4482 103.523 17.2288C103.153 17.9888 102.794 19.057 102.444 20.4334C102.116 21.7892 101.838 23.299 101.612 24.963C102.824 23.9153 103.728 22.7444 104.324 21.4502C104.94 20.1355 105.248 18.9441 105.248 17.8759C105.248 16.6639 105.022 16.0579 104.571 16.0579ZM121.14 23.6072C120.277 23.6072 119.63 23.412 119.199 23.0217C118.767 22.6109 118.552 22.046 118.552 21.327C118.552 20.608 118.829 20.0123 119.384 19.5398C119.959 19.0468 120.668 18.8003 121.51 18.8003C122.27 18.8003 122.886 18.9851 123.359 19.3549C123.831 19.7247 124.067 20.2485 124.067 20.9264C124.067 21.7481 123.8 22.4055 123.266 22.8985C122.732 23.3709 122.023 23.6072 121.14 23.6072ZM120.894 40.1541C119.558 40.1541 118.583 39.6816 117.966 38.7366C117.371 37.7917 117.073 36.5386 117.073 34.9774C117.073 34.053 117.186 32.8718 117.412 31.4338C117.658 29.9753 117.966 28.6195 118.336 27.3664C118.521 26.7091 118.767 26.2572 119.076 26.0106C119.384 25.7641 119.877 25.6409 120.555 25.6409C121.602 25.6409 122.126 25.9901 122.126 26.6885C122.126 27.2021 121.931 28.3936 121.541 30.2629C121.048 32.5226 120.801 34.053 120.801 34.8541C120.801 35.4704 120.883 35.9429 121.048 36.2716C121.212 36.6002 121.489 36.7646 121.88 36.7646C122.249 36.7646 122.712 36.5078 123.266 35.9942C123.821 35.4807 124.56 34.6693 125.485 33.56C125.731 33.2724 126.009 33.1286 126.317 33.1286C126.584 33.1286 126.789 33.2518 126.933 33.4983C127.097 33.7448 127.179 34.0838 127.179 34.5152C127.179 35.3369 126.984 35.9737 126.594 36.4256C124.56 38.9113 122.66 40.1541 120.894 40.1541ZM126.874 40.1541C126.094 40.1541 125.539 39.7432 125.21 38.9215C124.902 38.0998 124.748 36.7851 124.748 34.9774C124.748 32.3069 125.128 29.7699 125.888 27.3664C126.073 26.7707 126.371 26.3393 126.782 26.0723C127.213 25.7847 127.809 25.6409 128.569 25.6409C128.98 25.6409 129.267 25.6922 129.432 25.7949C129.596 25.8977 129.678 26.0928 129.678 26.3804C129.678 26.7091 129.524 27.4486 129.216 28.599C129.011 29.4207 128.846 30.1397 128.723 30.7559C128.6 31.3517 128.497 32.1015 128.415 33.0053C128.97 31.403 129.627 30.0472 130.387 28.9379C131.168 27.8286 131.958 27.0069 132.76 26.4728C133.581 25.9182 134.352 25.6409 135.071 25.6409C135.79 25.6409 136.293 25.8052 136.581 26.1339C136.889 26.4626 137.043 26.9659 137.043 27.6438C137.043 28.3011 136.848 29.4926 136.457 31.2181C136.293 31.9577 136.18 32.5123 136.118 32.8821C137.145 30.3554 138.286 28.5168 139.539 27.3664C140.792 26.2161 141.963 25.6409 143.051 25.6409C144.387 25.6409 145.054 26.3085 145.054 27.6438C145.054 28.4449 144.828 29.8932 144.376 31.9885C143.986 33.7757 143.791 34.9568 143.791 35.532C143.791 36.3537 144.089 36.7646 144.684 36.7646C145.095 36.7646 145.578 36.5181 146.133 36.0251C146.708 35.5115 147.468 34.6898 148.413 33.56C148.659 33.2724 148.937 33.1286 149.245 33.1286C149.512 33.1286 149.717 33.2518 149.861 33.4983C150.025 33.7448 150.108 34.0838 150.108 34.5152C150.108 35.3369 149.913 35.9737 149.522 36.4256C148.639 37.5144 147.684 38.408 146.657 39.1064C145.65 39.8048 144.5 40.1541 143.205 40.1541C142.158 40.1541 141.367 39.8562 140.833 39.2605C140.299 38.6442 140.032 37.7609 140.032 36.6105C140.032 36.0353 140.175 35.0082 140.463 33.5292C140.73 32.235 140.864 31.3414 140.864 30.8484C140.864 30.5197 140.751 30.3554 140.525 30.3554C140.258 30.3554 139.878 30.7046 139.385 31.403C138.892 32.0809 138.399 32.9848 137.905 34.1146C137.412 35.2444 137.012 36.4359 136.704 37.689C136.478 38.675 136.211 39.3324 135.903 39.6611C135.615 39.9897 135.143 40.1541 134.485 40.1541C133.807 40.1541 133.294 39.8357 132.945 39.1988C132.616 38.5415 132.451 37.7506 132.451 36.8262C132.451 36.0456 132.554 34.9158 132.76 33.4367C132.924 32.122 133.006 31.2592 133.006 30.8484C133.006 30.5197 132.893 30.3554 132.667 30.3554C132.359 30.3554 131.969 30.7251 131.496 31.4646C131.024 32.2042 130.562 33.1491 130.11 34.2995C129.678 35.4499 129.329 36.5797 129.062 37.689C128.836 38.6545 128.569 39.3118 128.261 39.6611C127.973 39.9897 127.511 40.1541 126.874 40.1541ZM164.071 33.1286C164.338 33.1286 164.543 33.2518 164.687 33.4983C164.851 33.7448 164.933 34.0838 164.933 34.5152C164.933 35.3369 164.738 35.9737 164.348 36.4256C163.465 37.5144 162.509 38.408 161.482 39.1064C160.476 39.8048 159.325 40.1541 158.031 40.1541C156.942 40.1541 156.059 39.7638 155.381 38.9832C154.21 39.7432 152.988 40.1335 151.714 40.1541C151.447 44.1187 150.841 47.4261 149.896 50.076C148.951 52.7465 147.565 54.0818 145.736 54.0818C144.627 54.0818 143.805 53.6812 143.271 52.8801C142.737 52.0789 142.47 50.9696 142.47 49.5522C142.47 47.5391 142.932 45.1869 143.857 42.4959C144.781 39.8254 146.209 36.8776 148.14 33.6524C148.14 30.6532 148.119 28.5682 148.078 27.3973C148.058 26.8015 148.294 26.329 148.787 25.9798C149.28 25.6306 149.896 25.456 150.636 25.456C151.067 25.456 151.375 25.5484 151.56 25.7333C151.766 25.8977 151.879 26.2366 151.899 26.7502C151.899 27.2637 151.909 27.6438 151.93 27.8903C152.587 27.0686 153.234 26.4831 153.871 26.1339C154.508 25.7641 155.186 25.5793 155.905 25.5793C157.055 25.5793 157.99 26.0415 158.709 26.9659C159.449 27.8903 159.818 29.1023 159.818 30.6019C159.818 31.6906 159.644 32.7485 159.294 33.7757C158.945 34.8028 158.462 35.7375 157.846 36.5797C158.278 36.7029 158.637 36.7646 158.925 36.7646C159.603 36.7646 160.25 36.5181 160.866 36.0251C161.482 35.532 162.273 34.7103 163.239 33.56C163.485 33.2724 163.762 33.1286 164.071 33.1286ZM151.868 37.196C152.608 37.0316 153.286 36.6311 153.902 35.9942C154.539 35.3369 155.042 34.5357 155.412 33.5908C155.782 32.6253 155.967 31.6187 155.967 30.571C155.967 29.9548 155.843 29.4926 155.597 29.1844C155.35 28.8558 155.022 28.6914 154.611 28.6914C153.871 28.6914 152.978 29.472 151.93 31.0333C151.909 31.9371 151.899 33.2621 151.899 35.0082C151.899 35.9532 151.889 36.6824 151.868 37.196ZM145.983 51.0621C146.538 51.0621 147 49.8501 147.37 47.4261C147.739 45.0226 147.976 42.0234 148.078 38.4285C147.195 40.4827 146.497 42.4445 145.983 44.3139C145.469 46.1833 145.213 47.7547 145.213 49.0284C145.213 49.6857 145.295 50.189 145.459 50.5382C145.603 50.8875 145.778 51.0621 145.983 51.0621ZM176.194 33.1286C176.461 33.1286 176.666 33.2518 176.81 33.4983C176.975 33.7448 177.057 34.0838 177.057 34.5152C177.057 35.3369 176.862 35.9737 176.471 36.4256C175.711 37.35 174.633 38.2025 173.236 38.9832C171.86 39.7638 170.381 40.1541 168.799 40.1541C166.642 40.1541 164.968 39.5686 163.776 38.3977C162.585 37.2268 161.989 35.6245 161.989 33.5908C161.989 32.1734 162.287 30.8586 162.883 29.6466C163.478 28.4141 164.3 27.4383 165.348 26.7194C166.416 26.0004 167.618 25.6409 168.953 25.6409C170.144 25.6409 171.099 26.0004 171.818 26.7194C172.537 27.4178 172.897 28.373 172.897 29.585C172.897 31.0024 172.383 32.2247 171.356 33.2518C170.35 34.2584 168.634 35.0596 166.21 35.6553C166.724 36.6002 167.7 37.0727 169.138 37.0727C170.062 37.0727 171.11 36.7543 172.281 36.1175C173.472 35.4601 174.499 34.6076 175.362 33.56C175.609 33.2724 175.886 33.1286 176.194 33.1286ZM168.429 28.6606C167.669 28.6606 167.022 29.1023 166.488 29.9856C165.974 30.8689 165.717 31.9371 165.717 33.1902V33.2518C166.929 32.9642 167.885 32.5328 168.583 31.9577C169.281 31.3825 169.631 30.7148 169.631 29.9548C169.631 29.5645 169.518 29.2563 169.292 29.0304C169.086 28.7839 168.799 28.6606 168.429 28.6606ZM176.736 40.1541C175.955 40.1541 175.4 39.7432 175.072 38.9215C174.764 38.0998 174.609 36.7851 174.609 34.9774C174.609 32.3069 174.99 29.7699 175.75 27.3664C175.934 26.7707 176.232 26.3393 176.643 26.0723C177.075 25.7847 177.67 25.6409 178.43 25.6409C178.841 25.6409 179.129 25.6922 179.293 25.7949C179.457 25.8977 179.54 26.0928 179.54 26.3804C179.54 26.7091 179.386 27.4486 179.077 28.599C178.872 29.4207 178.708 30.1397 178.584 30.7559C178.461 31.3722 178.358 32.1323 178.276 33.0361C178.954 31.2695 179.714 29.8315 180.557 28.7222C181.399 27.6129 182.22 26.8221 183.022 26.3496C183.843 25.8771 184.593 25.6409 185.271 25.6409C186.606 25.6409 187.274 26.3085 187.274 27.6438C187.274 27.9108 187.181 28.5579 186.997 29.585C186.832 30.4067 186.75 30.9203 186.75 31.1257C186.75 31.8447 187.007 32.2042 187.52 32.2042C188.096 32.2042 188.835 31.7522 189.739 30.8484C190.006 30.5813 190.283 30.4478 190.571 30.4478C190.838 30.4478 191.043 30.571 191.187 30.8176C191.352 31.0435 191.434 31.3517 191.434 31.742C191.434 32.502 191.228 33.0978 190.817 33.5292C190.242 34.1249 189.564 34.6384 188.784 35.0698C188.024 35.4807 187.212 35.6861 186.349 35.6861C185.261 35.6861 184.429 35.4088 183.854 34.8541C183.299 34.2995 183.022 33.5497 183.022 32.6047C183.022 32.2966 183.052 31.9885 183.114 31.6803C183.155 31.2695 183.176 30.9922 183.176 30.8484C183.176 30.5197 183.063 30.3554 182.837 30.3554C182.529 30.3554 182.118 30.7046 181.604 31.403C181.111 32.0809 180.618 32.9848 180.125 34.1146C179.632 35.2444 179.232 36.4359 178.923 37.689C178.697 38.6545 178.43 39.3118 178.122 39.6611C177.835 39.9897 177.372 40.1541 176.736 40.1541ZM192.114 40.1541C190.943 40.1541 189.988 39.6919 189.248 38.7675C188.529 37.8431 188.17 36.6311 188.17 35.1315C188.17 33.4881 188.55 31.9371 189.31 30.4786C190.07 28.9996 191.077 27.8184 192.33 26.935C193.603 26.0312 194.949 25.5793 196.366 25.5793C196.818 25.5793 197.116 25.6717 197.26 25.8566C197.424 26.0209 197.558 26.329 197.66 26.781C198.051 26.6988 198.482 26.6577 198.955 26.6577C199.448 26.6577 199.828 26.781 200.095 27.0275C200.362 27.274 200.495 27.6232 200.495 28.0752C200.495 28.5476 200.393 29.3693 200.187 30.5402C199.961 31.7933 199.787 32.995 199.663 34.1454C199.54 35.2753 199.478 36.5489 199.478 37.9663C199.478 38.7469 199.314 39.3118 198.985 39.6611C198.677 39.9897 198.164 40.1541 197.445 40.1541C196.746 40.1541 196.222 39.9897 195.873 39.6611C195.545 39.3118 195.38 38.7572 195.38 37.9971L195.411 37.5041C194.774 39.2707 193.675 40.1541 192.114 40.1541ZM193.316 37.0419C193.891 37.0419 194.415 36.6413 194.887 35.8402C195.36 35.039 195.781 33.6113 196.151 31.5571L196.736 28.4449C195.894 28.4655 195.113 28.7941 194.394 29.4309C193.675 30.0472 193.1 30.8689 192.669 31.896C192.237 32.9232 192.022 34.0119 192.022 35.1623C192.022 35.7785 192.135 36.251 192.361 36.5797C192.607 36.8878 192.925 37.0419 193.316 37.0419Z" fill="#CCFF00"/>
</svg>
