<svg width="73" height="73" viewBox="0 0 73 73" fill="none" xmlns="http://www.w3.org/2000/svg">
<mask id="mask0" mask-type="alpha" maskUnits="userSpaceOnUse" x="12" y="12" width="49" height="49">
<path fill-rule="evenodd" clip-rule="evenodd" d="M36.5008 36.5C43.2229 36.5 48.6675 31.0554 48.6675 24.3333C48.6675 17.6112 43.2229 12.1666 36.5008 12.1666C29.7787 12.1666 24.3341 17.6112 24.3341 24.3333C24.3341 31.0554 29.7787 36.5 36.5008 36.5ZM36.5008 42.5833C28.3796 42.5833 12.1675 46.6591 12.1675 54.75V57.7916C12.1675 59.4646 13.5362 60.8333 15.2091 60.8333H57.7925C59.4654 60.8333 60.8341 59.4646 60.8341 57.7916V54.75C60.8341 46.6591 44.6221 42.5833 36.5008 42.5833Z" fill="#1D1D1D"/>
</mask>
<g mask="url(#mask0)">
<rect x="-18.25" y="-12.1666" width="109.5" height="100.375" fill="#CCFF00"/>
</g>
</svg>
