<svg width="551" height="459" viewBox="0 0 551 459" fill="none" xmlns="http://www.w3.org/2000/svg">
<g clip-path="url(#clip0)">
<path d="M458.395 433.106L457.441 445.827L438.043 439.467L445.992 429.927L458.395 433.106Z" fill="#FEB8B8"/>
<path d="M528.993 428.972L528.037 441.374L517.225 442.965L510.864 436.922L518.178 425.156L528.993 428.972Z" fill="#FEB8B8"/>
<path d="M536.943 270.607C536.943 270.607 545.529 280.783 534.716 296.365C523.904 311.948 510.866 327.212 510.866 327.212L486.695 373.004C486.695 373.004 474.293 417.842 471.431 419.114C468.569 420.386 466.979 415.298 468.569 420.704C470.159 426.109 469.205 425.792 467.933 426.111C466.661 426.431 463.163 425.793 464.435 428.02C465.707 430.246 466.661 430.246 464.117 430.246C461.573 430.246 460.619 428.656 460.619 430.882C460.619 433.107 458.393 438.196 458.393 438.196C458.393 438.196 442.811 433.744 442.175 431.836C441.539 429.927 446.309 428.973 445.355 427.066C444.401 425.158 444.083 425.158 444.083 422.296C444.083 419.435 445.991 418.798 445.991 418.798C445.991 418.798 447.581 418.162 446.945 416.89C446.309 415.617 443.765 416.254 446.945 414.664C450.125 413.073 463.165 364.418 463.165 364.418C463.165 364.418 463.165 340.247 467.298 332.299C471.432 324.35 468.252 267.744 478.114 267.108C487.975 266.473 536.943 270.607 536.943 270.607Z" fill="#2F2E41"/>
<path d="M533.762 288.733L531.853 338.023C531.853 338.023 541.394 385.723 538.214 400.351C535.034 414.979 537.26 413.071 535.351 415.615C533.443 418.16 531.853 416.887 533.443 419.113C535.033 421.34 535.984 421.975 533.443 424.521C530.902 427.066 529.627 433.107 529.627 433.107L513.409 431.518C513.409 431.518 517.543 424.204 515.95 422.613C514.357 421.023 510.226 423.567 513.409 420.072C516.592 416.578 518.497 418.164 516.589 416.574C514.681 414.985 511.819 415.621 514.363 413.076C516.906 410.532 519.771 410.536 517.225 409.578C514.68 408.621 511.818 409.578 513.091 407.67C514.365 405.762 515.953 403.536 515.953 403.536L512.137 374.598C512.137 374.598 507.686 365.058 508.957 360.924C510.229 356.79 503.55 322.764 503.55 322.764L533.762 288.733Z" fill="#2F2E41"/>
<path d="M526.766 435.332C526.766 435.332 529.946 432.152 530.9 434.06C531.854 435.968 538.848 453.14 534.716 454.412C530.583 455.684 524.54 456.953 521.36 456.002C518.18 455.05 511.502 450.594 503.552 450.594C495.602 450.594 488.924 447.096 488.924 445.824C488.924 444.553 487.652 436.92 493.694 436.92C499.735 436.92 510.866 429.924 510.866 429.924C510.866 429.924 513.407 424.836 514.682 425.154C515.957 425.473 515 435.648 515 435.648C515 435.648 522.312 442.646 526.766 435.332Z" fill="#2F2E41"/>
<path d="M456.17 439.465C456.17 439.465 459.032 432.469 461.894 434.058C464.757 435.646 462.848 455.362 462.848 455.362C462.848 455.362 460.307 459.496 452.99 458.542C445.673 457.589 426.278 455.362 421.826 456.316C417.373 457.27 405.29 451.864 408.47 444.55C408.47 444.55 410.059 440.416 417.692 440.734C425.324 441.052 439.316 431.83 439.316 431.83C439.316 431.83 441.542 425.47 442.178 426.105C442.814 426.741 443.45 437.872 443.45 437.872C443.45 437.872 451.718 443.281 456.17 439.465Z" fill="#2F2E41"/>
<path d="M497.827 146.268C508.014 146.268 516.271 138.011 516.271 127.824C516.271 117.638 508.014 109.38 497.827 109.38C487.641 109.38 479.383 117.638 479.383 127.824C479.383 138.011 487.641 146.268 497.827 146.268Z" fill="#FEB8B8"/>
<path d="M512.138 129.096C512.138 129.096 521.996 148.812 525.494 150.72C528.992 152.629 501.644 164.395 501.644 164.395C501.644 164.395 497.192 144.997 491.786 140.863C486.38 136.729 512.138 129.096 512.138 129.096Z" fill="#FEB8B8"/>
<path d="M483.838 290.322L482.566 302.407C482.566 302.407 468.891 297.637 473.343 288.733L483.838 290.322Z" fill="#FEB8B8"/>
<path d="M478.432 272.197C487.973 282.37 538.533 273.784 538.533 273.784L537.899 266.47L544.259 259.797L542.352 228.631C542.352 228.631 548.073 214.004 549.026 191.744C549.084 190.376 549.001 189.005 548.779 187.654C545.501 167.713 513.031 154.87 512.139 155.171C511.69 155.319 506.911 157.81 501.923 160.43C496.197 163.438 490.199 166.62 490.199 166.62C482.566 169.486 483.839 215.279 481.293 219.412C478.747 223.545 481.293 237.85 481.293 237.85L478.433 251.523C478.433 251.523 468.89 262.023 478.432 272.197Z" fill="#F0F0F0"/>
<path opacity="0.1" d="M509.252 171.244C509.252 171.244 518.156 197.956 516.248 216.082C514.339 234.208 493.669 286.043 493.669 286.043L486.677 289.859V298.762L481.756 285.434L495.288 257.14C495.288 257.14 478.403 159.478 509.252 171.244Z" fill="black"/>
<path opacity="0.1" d="M500.9 163.229C510.126 158.142 524.12 171.503 538.747 185.808C544 190.944 547.038 190.427 548.78 187.653C545.502 167.712 513.032 154.869 512.14 155.171C511.691 155.319 506.911 157.809 501.923 160.43L500.9 163.229Z" fill="black"/>
<path d="M500.906 160.77L504.722 150.276C504.722 150.276 530.798 137.874 547.97 150.276L550.832 168.084C550.832 168.084 553.373 197.658 538.748 183.349C524.123 169.039 510.127 155.682 500.906 160.77Z" fill="#F0F0F0"/>
<path d="M508.323 166.938C508.323 166.938 517.227 193.65 515.319 211.777C513.411 229.903 492.741 281.738 492.741 281.738L485.745 285.556V294.46L471.117 290.326L474.297 279.833C474.297 279.833 469.209 273.472 472.708 271.564C476.206 269.656 475.57 259.162 475.57 259.162C475.57 259.162 477.477 155.172 508.323 166.938Z" fill="#F0F0F0"/>
<path d="M514.27 135.545C513.969 134.12 514.009 132.586 513.326 131.299C512.302 129.37 509.946 128.563 507.77 128.373C504.991 128.131 502.191 128.612 499.409 128.422C496.626 128.231 493.654 127.171 492.269 124.75C491.716 123.785 491.444 122.648 490.711 121.811C489.186 120.069 486.406 120.338 484.214 121.085C482.023 121.832 479.736 122.922 477.496 122.338C475.612 117.067 477.932 110.986 481.944 107.083C485.957 103.18 491.369 101.08 496.744 99.514C503.833 97.4487 511.81 96.2284 518.328 99.6977C527.78 104.728 531.115 118.043 530.243 127.967C529.913 131.718 529.375 135.966 526.342 138.499C521.897 142.211 515.612 141.892 514.27 135.545Z" fill="#2F2E41"/>
<path d="M398.545 0.226196H0.170898V255.363H398.545V0.226196Z" fill="#E6E6E6"/>
<path d="M388.456 32.2264H12.8643V240.269H388.456V32.2264Z" fill="white"/>
<path d="M398.375 0H0V16.9243H398.375V0Z" fill="#7971FF"/>
<path d="M12.5785 11.7901C14.3111 11.7901 15.7157 10.3856 15.7157 8.653C15.7157 6.92041 14.3111 5.51587 12.5785 5.51587C10.8459 5.51587 9.44141 6.92041 9.44141 8.653C9.44141 10.3856 10.8459 11.7901 12.5785 11.7901Z" fill="white"/>
<path d="M24.4858 11.7901C26.2184 11.7901 27.6229 10.3856 27.6229 8.653C27.6229 6.92041 26.2184 5.51587 24.4858 5.51587C22.7532 5.51587 21.3486 6.92041 21.3486 8.653C21.3486 10.3856 22.7532 11.7901 24.4858 11.7901Z" fill="white"/>
<path d="M36.3901 11.79C38.1227 11.79 39.5272 10.3855 39.5272 8.65288C39.5272 6.92029 38.1227 5.51575 36.3901 5.51575C34.6575 5.51575 33.2529 6.92029 33.2529 8.65288C33.2529 10.3855 34.6575 11.79 36.3901 11.79Z" fill="white"/>
<path d="M78.5756 61.3862L53.7314 85.9202L78.5756 110.454L84.1656 104.864L65.3792 86.0746L84.3226 67.1313L78.5756 61.3862Z" fill="#7971FF"/>
<path d="M98.9316 61.3862L123.775 85.9202L98.9316 110.454L93.3416 104.864L112.129 86.0753L93.1846 67.1313L98.9316 61.3862Z" fill="#7971FF"/>
<path d="M179.291 67.543C177.259 67.543 175.612 68.7118 175.612 70.1529C175.612 71.5941 177.259 72.7629 179.291 72.7629H352.733C354.765 72.7629 356.412 71.5941 356.412 70.1529C356.412 68.7118 354.765 67.543 352.733 67.543H179.291Z" fill="#E6E6E6"/>
<path d="M351.009 210.536H59.237C56.2544 210.536 53.8372 208.814 53.834 206.692V155.196C53.8372 153.074 56.2544 151.352 59.237 151.352H351.009C353.992 151.352 356.409 153.074 356.412 155.196V206.692C356.409 208.814 353.992 210.534 351.009 210.536ZM59.237 152.888C57.4473 152.888 55.997 153.921 55.995 155.194V206.691C55.995 207.964 57.4473 208.996 59.237 208.997H351.009C352.799 208.997 354.249 207.964 354.251 206.691V155.196C354.251 153.923 352.799 152.891 351.009 152.889L59.237 152.888Z" fill="#E6E6E6"/>
<path d="M89.2836 193.976C96.4932 193.976 102.338 188.132 102.338 180.922C102.338 173.713 96.4932 167.868 89.2836 167.868C82.074 167.868 76.2295 173.713 76.2295 180.922C76.2295 188.132 82.074 193.976 89.2836 193.976Z" fill="#E6E6E6"/>
<path d="M126.101 170.482C125.408 170.481 124.744 170.755 124.254 171.244C123.764 171.733 123.488 172.396 123.487 173.089C123.486 173.781 123.761 174.445 124.249 174.935C124.738 175.425 125.402 175.701 126.094 175.702H249.146C249.838 175.702 250.502 175.427 250.991 174.937C251.481 174.448 251.756 173.784 251.756 173.092C251.756 172.4 251.481 171.736 250.991 171.246C250.502 170.757 249.838 170.482 249.146 170.482H126.101Z" fill="#7971FF"/>
<path d="M126.101 186.142C125.758 186.142 125.418 186.209 125.102 186.34C124.785 186.471 124.497 186.662 124.254 186.904C123.764 187.393 123.488 188.057 123.487 188.749C123.486 189.441 123.761 190.105 124.249 190.596C124.738 191.086 125.402 191.361 126.094 191.362H179.046C179.739 191.363 180.403 191.089 180.893 190.6C181.383 190.112 181.659 189.448 181.66 188.756C181.661 188.064 181.387 187.399 180.898 186.909C180.409 186.419 179.745 186.143 179.053 186.142H126.101Z" fill="#7971FF"/>
<path d="M178.026 83.1793C177.37 83.2322 176.758 83.5301 176.312 84.0137C175.866 84.4974 175.618 85.1313 175.618 85.7893C175.618 86.4473 175.866 87.0812 176.312 87.5648C176.758 88.0485 177.37 88.3464 178.026 88.3992H291.696C292.351 88.3464 292.963 88.0485 293.41 87.5648C293.856 87.0812 294.104 86.4473 294.104 85.7893C294.104 85.1313 293.856 84.4974 293.41 84.0137C292.963 83.5301 292.351 83.2322 291.696 83.1793H178.026Z" fill="#E6E6E6"/>
<path d="M178.773 98.8157C177.027 98.8157 175.612 99.9845 175.612 101.426C175.612 102.867 177.027 104.036 178.773 104.036H327.774C329.519 104.036 330.934 102.867 330.934 101.426C330.934 99.9845 329.519 98.8157 327.774 98.8157H178.773Z" fill="#E6E6E6"/>
</g>
<defs>
<clipPath id="clip0">
<rect width="551" height="458.685" fill="white"/>
</clipPath>
</defs>
</svg>
