<svg width="904" height="944" viewBox="0 0 904 944" fill="none" xmlns="http://www.w3.org/2000/svg">
<rect x="376.631" y="1.03285" width="15.1052" height="256.571" rx="7.55258" fill="#353535" stroke="black" stroke-width="1.9343" stroke-linecap="round"/>
<rect x="568.152" y="1.03285" width="14.9129" height="252.853" rx="7.45644" fill="#353535" stroke="black" stroke-width="1.9343" stroke-linecap="round"/>
<path d="M185.664 305.57H169.843L166.928 313.636H161.932L175.047 277.571H180.511L193.574 313.636H188.578L185.664 305.57ZM184.311 301.718L177.753 283.4L171.196 301.718H184.311Z" fill="black"/>
<path d="M392.414 294.953C393.733 295.161 394.93 295.699 396.005 296.566C397.115 297.434 397.983 298.509 398.607 299.793C399.267 301.077 399.596 302.447 399.596 303.904C399.596 305.743 399.128 307.408 398.191 308.9C397.254 310.358 395.884 311.52 394.08 312.387C392.31 313.22 390.211 313.636 387.782 313.636H374.251V277.363H387.262C389.725 277.363 391.824 277.779 393.559 278.612C395.294 279.41 396.595 280.503 397.462 281.89C398.33 283.278 398.763 284.839 398.763 286.574C398.763 288.725 398.174 290.512 396.994 291.935C395.849 293.322 394.322 294.328 392.414 294.953ZM378.987 293.027H386.95C389.17 293.027 390.888 292.507 392.102 291.466C393.316 290.425 393.923 288.985 393.923 287.147C393.923 285.308 393.316 283.868 392.102 282.827C390.888 281.786 389.136 281.266 386.846 281.266H378.987V293.027ZM387.366 309.733C389.725 309.733 391.564 309.178 392.883 308.068C394.201 306.957 394.86 305.414 394.86 303.436C394.86 301.424 394.166 299.845 392.779 298.7C391.391 297.52 389.535 296.931 387.21 296.931H378.987V309.733H387.366Z" fill="black"/>
<path d="M558.347 295.473C558.347 291.935 559.145 288.76 560.741 285.95C562.337 283.105 564.506 280.884 567.246 279.288C570.022 277.692 573.093 276.894 576.458 276.894C580.413 276.894 583.865 277.848 586.814 279.757C589.764 281.665 591.915 284.371 593.268 287.875H587.595C586.589 285.689 585.132 284.007 583.224 282.827C581.35 281.647 579.095 281.058 576.458 281.058C573.925 281.058 571.653 281.647 569.64 282.827C567.628 284.007 566.049 285.689 564.905 287.875C563.76 290.026 563.187 292.559 563.187 295.473C563.187 298.353 563.76 300.886 564.905 303.072C566.049 305.223 567.628 306.888 569.64 308.068C571.653 309.247 573.925 309.837 576.458 309.837C579.095 309.837 581.35 309.265 583.224 308.12C585.132 306.94 586.589 305.257 587.595 303.072H593.268C591.915 306.541 589.764 309.23 586.814 311.138C583.865 313.012 580.413 313.948 576.458 313.948C573.093 313.948 570.022 313.168 567.246 311.607C564.506 310.011 562.337 307.807 560.741 304.997C559.145 302.187 558.347 299.012 558.347 295.473Z" fill="black"/>
<mask id="path-6-inside-1" fill="white">
<path d="M266.007 224.842C266.007 229.444 263.628 234.002 259.004 238.254C254.38 242.507 247.603 246.37 239.06 249.625C230.517 252.88 220.374 255.461 209.212 257.223C198.049 258.984 186.086 259.891 174.004 259.891C161.921 259.891 149.958 258.984 138.795 257.223C127.633 255.461 117.49 252.879 108.947 249.625C100.404 246.37 93.6268 242.506 89.0033 238.254C84.3797 234.002 82 229.444 82 224.841L174.004 224.842H266.007Z"/>
</mask>
<path d="M266.007 224.842C266.007 229.444 263.628 234.002 259.004 238.254C254.38 242.507 247.603 246.37 239.06 249.625C230.517 252.88 220.374 255.461 209.212 257.223C198.049 258.984 186.086 259.891 174.004 259.891C161.921 259.891 149.958 258.984 138.795 257.223C127.633 255.461 117.49 252.879 108.947 249.625C100.404 246.37 93.6268 242.506 89.0033 238.254C84.3797 234.002 82 229.444 82 224.841L174.004 224.842H266.007Z" fill="#D16D6D" stroke="black" stroke-width="3.5049" mask="url(#path-6-inside-1)"/>
<rect x="83.7539" y="170.516" width="180.502" height="57.8309" fill="#D16D6D"/>
<path d="M265.131 170.516C265.131 175.02 262.738 179.412 258.191 183.507C253.644 187.603 247.015 191.331 238.748 194.48C222.222 200.776 199.331 204.689 174.004 204.689C148.676 204.689 125.786 200.776 109.259 194.48C100.993 191.331 94.3637 187.603 89.8165 183.507C85.2691 179.412 82.8762 175.02 82.8762 170.516C82.8762 166.012 85.2691 161.62 89.8165 157.524C94.3637 153.429 100.993 149.7 109.259 146.551C125.786 140.255 148.676 136.343 174.004 136.343C199.331 136.343 222.222 140.255 238.748 146.551C247.015 149.7 253.644 153.429 258.191 157.524C262.738 161.62 265.131 166.012 265.131 170.516Z" fill="#D16D6D" stroke="black" stroke-width="1.75245"/>
<path d="M265.131 172.269V227.471" stroke="#010000" stroke-width="1.75245"/>
<path d="M82.876 172.269V224.842" stroke="black" stroke-width="1.75245"/>
<mask id="path-11-inside-2" fill="white">
<path d="M247.531 161.007C247.531 164.68 245.632 168.317 241.943 171.711C238.253 175.104 232.845 178.187 226.028 180.784C219.211 183.381 211.117 185.441 202.21 186.847C193.302 188.252 183.755 188.976 174.114 188.976C164.473 188.976 154.926 188.252 146.019 186.847C137.111 185.441 129.018 183.381 122.2 180.784C115.383 178.187 109.975 175.104 106.286 171.71C102.596 168.317 100.697 164.68 100.697 161.007L174.114 161.007H247.531Z"/>
</mask>
<path d="M247.531 161.007C247.531 164.68 245.632 168.317 241.943 171.711C238.253 175.104 232.845 178.187 226.028 180.784C219.211 183.381 211.117 185.441 202.21 186.847C193.302 188.252 183.755 188.976 174.114 188.976C164.473 188.976 154.926 188.252 146.019 186.847C137.111 185.441 129.018 183.381 122.2 180.784C115.383 178.187 109.975 175.104 106.286 171.71C102.596 168.317 100.697 164.68 100.697 161.007L174.114 161.007H247.531Z" fill="#7BD16D" stroke="black" stroke-width="2.79684" mask="url(#path-11-inside-2)"/>
<rect x="102.095" y="117.657" width="144.037" height="46.1479" fill="#7BD16D"/>
<path d="M246.832 117.657C246.832 121.251 244.923 124.756 241.294 128.024C237.665 131.292 232.376 134.267 225.779 136.78C212.591 141.804 194.325 144.926 174.114 144.926C153.904 144.926 135.637 141.804 122.45 136.78C115.853 134.267 110.563 131.292 106.935 128.024C103.306 124.756 101.396 121.251 101.396 117.657C101.396 114.063 103.306 110.558 106.935 107.29C110.563 104.022 115.853 101.047 122.45 98.5336C135.637 93.5097 153.904 90.3877 174.114 90.3877C194.325 90.3877 212.591 93.5097 225.779 98.5336C232.376 101.047 237.665 104.022 241.294 107.29C244.923 110.558 246.832 114.063 246.832 117.657Z" fill="#7BD16D" stroke="black" stroke-width="1.39842"/>
<path d="M246.833 119.055V163.105" stroke="#010000" stroke-width="1.39842"/>
<path d="M101.396 119.055V161.008" stroke="black" stroke-width="1.39842"/>
<mask id="path-16-inside-3" fill="white">
<path d="M225.49 109.037C225.49 111.594 224.168 114.126 221.599 116.488C219.031 118.851 215.266 120.997 210.519 122.805C205.773 124.613 200.138 126.048 193.937 127.026C187.736 128.005 181.089 128.508 174.377 128.508C167.664 128.508 161.018 128.005 154.817 127.026C148.615 126.048 142.981 124.613 138.234 122.805C133.488 120.997 129.723 118.85 127.154 116.488C124.586 114.126 123.264 111.594 123.264 109.037L174.377 109.037H225.49Z"/>
</mask>
<path d="M225.49 109.037C225.49 111.594 224.168 114.126 221.599 116.488C219.031 118.851 215.266 120.997 210.519 122.805C205.773 124.613 200.138 126.048 193.937 127.026C187.736 128.005 181.089 128.508 174.377 128.508C167.664 128.508 161.018 128.005 154.817 127.026C148.615 126.048 142.981 124.613 138.234 122.805C133.488 120.997 129.723 118.85 127.154 116.488C124.586 114.126 123.264 111.594 123.264 109.037L174.377 109.037H225.49Z" fill="#2393E4" stroke="black" stroke-width="1.94717" mask="url(#path-16-inside-3)"/>
<rect x="124.236" y="78.856" width="100.279" height="32.1283" fill="#2393E4"/>
<path d="M225.004 78.856C225.004 81.3583 223.675 83.7981 221.148 86.0735C218.622 88.3488 214.939 90.4201 210.347 92.1696C201.166 95.6673 188.449 97.8408 174.378 97.8408C160.307 97.8408 147.59 95.6673 138.409 92.1696C133.816 90.4201 130.133 88.3488 127.607 86.0735C125.081 83.7981 123.751 81.3583 123.751 78.856C123.751 76.3536 125.081 73.9138 127.607 71.6384C130.133 69.3631 133.816 67.2918 138.409 65.5423C147.59 62.0446 160.307 59.8711 174.378 59.8711C188.449 59.8711 201.166 62.0446 210.347 65.5423C214.939 67.2918 218.622 69.3631 221.148 71.6384C223.675 73.9138 225.004 76.3536 225.004 78.856Z" fill="#2393E4" stroke="black" stroke-width="0.973584"/>
<path d="M225.004 79.8291V110.497" stroke="#010000" stroke-width="0.973584"/>
<path d="M123.751 79.8291V109.037" stroke="black" stroke-width="0.973584"/>
<rect x="166.787" y="1.03285" width="14.8297" height="78.6617" rx="7.41483" fill="#353535" stroke="black" stroke-width="1.9343" stroke-linecap="round"/>
<rect x="856.366" y="450.553" width="6.89798" height="116.958" rx="3.44899" fill="#353535" stroke="black" stroke-width="0.894716" stroke-linecap="round"/>
<path d="M679.227 591.051H671.909L670.561 594.782H668.25L674.317 578.1H676.844L682.886 594.782H680.575L679.227 591.051ZM678.602 589.27L675.568 580.796L672.535 589.27H678.602Z" fill="black"/>
<path d="M774.86 586.14C775.47 586.237 776.024 586.485 776.521 586.886C777.035 587.288 777.436 587.785 777.725 588.379C778.03 588.973 778.182 589.607 778.182 590.281C778.182 591.131 777.966 591.902 777.532 592.592C777.099 593.266 776.465 593.803 775.631 594.204C774.812 594.59 773.841 594.782 772.718 594.782H766.459V578.004H772.477C773.617 578.004 774.587 578.196 775.39 578.582C776.192 578.951 776.794 579.456 777.195 580.098C777.597 580.74 777.797 581.462 777.797 582.265C777.797 583.26 777.524 584.086 776.979 584.744C776.449 585.386 775.743 585.851 774.86 586.14ZM768.65 585.25H772.333C773.36 585.25 774.154 585.009 774.716 584.527C775.278 584.046 775.558 583.38 775.558 582.529C775.558 581.679 775.278 581.013 774.716 580.531C774.154 580.05 773.344 579.809 772.285 579.809H768.65V585.25ZM772.525 592.977C773.617 592.977 774.467 592.72 775.077 592.206C775.687 591.693 775.992 590.979 775.992 590.064C775.992 589.133 775.671 588.403 775.029 587.873C774.387 587.328 773.528 587.055 772.453 587.055H768.65V592.977H772.525Z" fill="black"/>
<path d="M851.612 586.381C851.612 584.744 851.981 583.276 852.72 581.976C853.458 580.66 854.461 579.633 855.729 578.894C857.012 578.156 858.433 577.787 859.989 577.787C861.819 577.787 863.416 578.228 864.78 579.111C866.144 579.994 867.139 581.246 867.765 582.866H865.141C864.676 581.855 864.001 581.077 863.119 580.531C862.252 579.986 861.209 579.713 859.989 579.713C858.818 579.713 857.767 579.986 856.836 580.531C855.905 581.077 855.175 581.855 854.645 582.866C854.116 583.861 853.851 585.033 853.851 586.381C853.851 587.713 854.116 588.884 854.645 589.896C855.175 590.891 855.905 591.661 856.836 592.206C857.767 592.752 858.818 593.025 859.989 593.025C861.209 593.025 862.252 592.76 863.119 592.231C864.001 591.685 864.676 590.907 865.141 589.896H867.765C867.139 591.5 866.144 592.744 864.78 593.627C863.416 594.493 861.819 594.927 859.989 594.927C858.433 594.927 857.012 594.566 855.729 593.843C854.461 593.105 853.458 592.086 852.72 590.786C851.981 589.486 851.612 588.018 851.612 586.381Z" fill="black"/>
<mask id="path-26-inside-4" fill="white">
<path d="M803.107 559.56C803.107 561.259 802.229 562.942 800.522 564.511C798.815 566.081 796.314 567.507 793.16 568.708C790.007 569.909 786.263 570.862 782.143 571.512C778.023 572.163 773.607 572.497 769.148 572.497C764.688 572.497 760.272 572.163 756.152 571.512C752.032 570.862 748.288 569.909 745.135 568.708C741.981 567.507 739.48 566.081 737.773 564.511C736.067 562.941 735.188 561.259 735.188 559.56L769.148 559.56H803.107Z"/>
</mask>
<path d="M803.107 559.56C803.107 561.259 802.229 562.942 800.522 564.511C798.815 566.081 796.314 567.507 793.16 568.708C790.007 569.909 786.263 570.862 782.143 571.512C778.023 572.163 773.607 572.497 769.148 572.497C764.688 572.497 760.272 572.163 756.152 571.512C752.032 570.862 748.288 569.909 745.135 568.708C741.981 567.507 739.48 566.081 737.773 564.511C736.067 562.941 735.188 561.259 735.188 559.56L769.148 559.56H803.107Z" fill="#7BD16D" stroke="black" stroke-width="1.29368" mask="url(#path-26-inside-4)"/>
<rect x="735.835" y="539.509" width="66.6247" height="21.3458" fill="#7BD16D"/>
<path d="M802.784 539.509C802.784 541.171 801.901 542.792 800.223 544.304C798.544 545.816 796.097 547.192 793.046 548.354C786.946 550.678 778.497 552.122 769.149 552.122C759.8 552.122 751.351 550.678 745.251 548.354C742.2 547.192 739.753 545.816 738.075 544.304C736.396 542.792 735.513 541.171 735.513 539.509C735.513 537.846 736.396 536.225 738.075 534.713C739.753 533.202 742.2 531.825 745.251 530.663C751.351 528.339 759.8 526.895 769.149 526.895C778.497 526.895 786.946 528.339 793.046 530.663C796.097 531.825 798.544 533.202 800.223 534.713C801.901 536.225 802.784 537.846 802.784 539.509Z" fill="#7BD16D" stroke="black" stroke-width="0.646842"/>
<path d="M802.784 540.155V560.53" stroke="#010000" stroke-width="0.646842"/>
<path d="M735.512 540.155V559.56" stroke="black" stroke-width="0.646842"/>
<mask id="path-31-inside-5" fill="white">
<path d="M793.1 537.731C793.1 538.914 792.489 540.085 791.301 541.177C790.113 542.27 788.371 543.263 786.176 544.099C783.98 544.936 781.374 545.599 778.505 546.052C775.637 546.504 772.563 546.737 769.458 546.737C766.353 546.737 763.279 546.504 760.41 546.052C757.542 545.599 754.936 544.936 752.74 544.099C750.545 543.263 748.803 542.27 747.615 541.177C746.427 540.085 745.815 538.914 745.815 537.731L769.458 537.731H793.1Z"/>
</mask>
<path d="M793.1 537.731C793.1 538.914 792.489 540.085 791.301 541.177C790.113 542.27 788.371 543.263 786.176 544.099C783.98 544.936 781.374 545.599 778.505 546.052C775.637 546.504 772.563 546.737 769.458 546.737C766.353 546.737 763.279 546.504 760.41 546.052C757.542 545.599 754.936 544.936 752.74 544.099C750.545 543.263 748.803 542.27 747.615 541.177C746.427 540.085 745.815 538.914 745.815 537.731L769.458 537.731H793.1Z" fill="#2393E4" stroke="black" stroke-width="0.900666" mask="url(#path-31-inside-5)"/>
<rect x="746.266" y="523.771" width="46.3843" height="14.861" fill="#2393E4"/>
<path d="M792.877 523.77C792.877 524.928 792.262 526.056 791.094 527.109C789.925 528.161 788.222 529.119 786.097 529.929C781.851 531.546 775.968 532.552 769.46 532.552C762.951 532.552 757.069 531.546 752.822 529.929C750.698 529.119 748.995 528.161 747.826 527.109C746.657 526.056 746.043 524.928 746.043 523.77C746.043 522.613 746.657 521.484 747.826 520.432C748.995 519.379 750.698 518.421 752.822 517.612C757.069 515.994 762.951 514.989 769.46 514.989C775.968 514.989 781.851 515.994 786.097 517.612C788.222 518.421 789.925 519.379 791.094 520.432C792.262 521.484 792.877 522.613 792.877 523.77Z" fill="#2393E4" stroke="black" stroke-width="0.450333"/>
<path d="M792.876 524.221V538.406" stroke="#010000" stroke-width="0.450333"/>
<path d="M746.04 524.221V537.731" stroke="black" stroke-width="0.450333"/>
<mask id="path-36-inside-6" fill="white">
<path d="M716.113 554.398C716.113 556.527 715.012 558.635 712.874 560.602C710.735 562.569 707.6 564.356 703.648 565.861C699.697 567.367 695.005 568.561 689.842 569.375C684.679 570.19 679.145 570.61 673.556 570.61C667.968 570.61 662.434 570.19 657.271 569.375C652.108 568.561 647.416 567.367 643.464 565.861C639.513 564.356 636.378 562.568 634.239 560.602C632.101 558.635 631 556.526 631 554.397L673.556 554.398H716.113Z"/>
</mask>
<path d="M716.113 554.398C716.113 556.527 715.012 558.635 712.874 560.602C710.735 562.569 707.6 564.356 703.648 565.861C699.697 567.367 695.005 568.561 689.842 569.375C684.679 570.19 679.145 570.61 673.556 570.61C667.968 570.61 662.434 570.19 657.271 569.375C652.108 568.561 647.416 567.367 643.464 565.861C639.513 564.356 636.378 562.568 634.239 560.602C632.101 558.635 631 556.526 631 554.397L673.556 554.398H716.113Z" fill="#D16D6D" stroke="black" stroke-width="1.6212" mask="url(#path-36-inside-6)"/>
<rect x="631.812" y="529.269" width="83.4918" height="26.7498" fill="#D16D6D"/>
<path d="M715.709 529.269C715.709 531.352 714.602 533.383 712.498 535.278C710.395 537.172 707.329 538.897 703.505 540.353C695.861 543.266 685.273 545.075 673.557 545.075C661.842 545.075 651.254 543.266 643.61 540.353C639.786 538.897 636.72 537.172 634.617 535.278C632.513 533.383 631.406 531.352 631.406 529.269C631.406 527.185 632.513 525.154 634.617 523.259C636.72 521.365 639.786 519.64 643.61 518.184C651.254 515.272 661.842 513.462 673.557 513.462C685.273 513.462 695.861 515.272 703.505 518.184C707.329 519.64 710.395 521.365 712.498 523.259C714.602 525.154 715.709 527.185 715.709 529.269Z" fill="#D16D6D" stroke="black" stroke-width="0.8106"/>
<path d="M715.707 530.079V555.613" stroke="#010000" stroke-width="0.8106"/>
<path d="M631.404 530.079V554.397" stroke="black" stroke-width="0.8106"/>
<rect x="765.442" y="450.553" width="6.79878" height="72.9244" rx="3.39939" fill="#353535" stroke="black" stroke-width="0.894716" stroke-linecap="round"/>
<rect x="670.977" y="450.553" width="6.79878" height="80.0092" rx="3.39939" fill="#353535" stroke="black" stroke-width="0.894716" stroke-linecap="round"/>
<path d="M51.9327 759.614H44.5144L43.1479 763.396H40.8053L46.9547 746.486H49.5169L55.6419 763.396H53.2993L51.9327 759.614ZM51.2983 757.808L48.2236 749.219L45.1489 757.808H51.2983Z" fill="black"/>
<path d="M148.876 754.636C149.494 754.734 150.055 754.986 150.56 755.393C151.08 755.799 151.487 756.304 151.78 756.905C152.089 757.507 152.243 758.15 152.243 758.833C152.243 759.695 152.024 760.476 151.585 761.176C151.145 761.859 150.503 762.404 149.657 762.811C148.827 763.201 147.843 763.396 146.704 763.396H140.359V746.388H146.46C147.615 746.388 148.599 746.583 149.413 746.974C150.226 747.348 150.836 747.86 151.243 748.511C151.65 749.162 151.853 749.894 151.853 750.707C151.853 751.716 151.576 752.554 151.023 753.221C150.486 753.871 149.771 754.343 148.876 754.636ZM142.58 753.733H146.314C147.355 753.733 148.16 753.489 148.729 753.001C149.299 752.513 149.584 751.838 149.584 750.976C149.584 750.113 149.299 749.438 148.729 748.95C148.16 748.462 147.339 748.218 146.265 748.218H142.58V753.733ZM146.509 761.566C147.615 761.566 148.477 761.306 149.095 760.785C149.714 760.265 150.023 759.541 150.023 758.614C150.023 757.67 149.697 756.93 149.047 756.393C148.396 755.84 147.526 755.563 146.436 755.563H142.58V761.566H146.509Z" fill="black"/>
<path d="M226.681 754.88C226.681 753.221 227.055 751.732 227.804 750.414C228.552 749.08 229.569 748.039 230.854 747.291C232.155 746.543 233.595 746.168 235.173 746.168C237.028 746.168 238.646 746.616 240.029 747.511C241.412 748.405 242.421 749.674 243.055 751.317H240.395C239.923 750.292 239.24 749.503 238.345 748.95C237.467 748.397 236.41 748.121 235.173 748.121C233.986 748.121 232.92 748.397 231.976 748.95C231.033 749.503 230.293 750.292 229.756 751.317C229.219 752.326 228.951 753.514 228.951 754.88C228.951 756.23 229.219 757.418 229.756 758.443C230.293 759.451 231.033 760.232 231.976 760.785C232.92 761.339 233.986 761.615 235.173 761.615C236.41 761.615 237.467 761.347 238.345 760.81C239.24 760.257 239.923 759.468 240.395 758.443H243.055C242.421 760.07 241.412 761.33 240.029 762.225C238.646 763.104 237.028 763.543 235.173 763.543C233.595 763.543 232.155 763.177 230.854 762.445C229.569 761.696 228.552 760.663 227.804 759.346C227.055 758.028 226.681 756.539 226.681 754.88Z" fill="black"/>
<mask id="path-46-inside-7" fill="white">
<path d="M276.336 724.743C276.336 726.901 275.22 729.038 273.052 731.032C270.884 733.026 267.707 734.837 263.701 736.364C259.695 737.89 254.939 739.1 249.705 739.926C244.471 740.752 238.862 741.177 233.196 741.177C227.531 741.177 221.921 740.752 216.687 739.926C211.453 739.1 206.698 737.89 202.692 736.364C198.686 734.837 195.508 733.026 193.34 731.032C191.172 729.038 190.057 726.901 190.057 724.743L233.196 724.743H276.336Z"/>
</mask>
<path d="M276.336 724.743C276.336 726.901 275.22 729.038 273.052 731.032C270.884 733.026 267.707 734.837 263.701 736.364C259.695 737.89 254.939 739.1 249.705 739.926C244.471 740.752 238.862 741.177 233.196 741.177C227.531 741.177 221.921 740.752 216.687 739.926C211.453 739.1 206.698 737.89 202.692 736.364C198.686 734.837 195.508 733.026 193.34 731.032C191.172 729.038 190.057 726.901 190.057 724.743L233.196 724.743H276.336Z" fill="#D16D6D" stroke="black" stroke-width="1.64342" mask="url(#path-46-inside-7)"/>
<rect x="190.88" y="699.27" width="84.6362" height="27.1164" fill="#D16D6D"/>
<path d="M275.925 699.269C275.925 701.381 274.803 703.44 272.671 705.361C270.539 707.281 267.431 709.029 263.555 710.506C255.805 713.458 245.072 715.293 233.196 715.293C221.321 715.293 210.587 713.458 202.838 710.506C198.962 709.029 195.854 707.281 193.722 705.361C191.59 703.44 190.467 701.381 190.467 699.269C190.467 697.157 191.59 695.098 193.722 693.178C195.854 691.257 198.962 689.509 202.838 688.032C210.587 685.08 221.321 683.246 233.196 683.246C245.072 683.246 255.805 685.08 263.555 688.032C267.431 689.509 270.539 691.257 272.671 693.178C274.803 695.098 275.925 697.157 275.925 699.269Z" fill="#D16D6D" stroke="black" stroke-width="0.82171"/>
<path d="M275.926 700.091V725.975" stroke="#010000" stroke-width="0.82171"/>
<path d="M190.469 700.091V724.742" stroke="black" stroke-width="0.82171"/>
<mask id="path-51-inside-8" fill="white">
<path d="M177.51 727.049C177.51 728.771 176.62 730.476 174.89 732.067C173.16 733.658 170.624 735.104 167.428 736.322C164.231 737.54 160.436 738.506 156.26 739.165C152.083 739.824 147.606 740.163 143.086 740.163C138.565 740.163 134.089 739.824 129.912 739.165C125.735 738.506 121.94 737.54 118.744 736.322C115.547 735.104 113.012 733.658 111.282 732.067C109.552 730.476 108.661 728.771 108.661 727.049L143.086 727.049H177.51Z"/>
</mask>
<path d="M177.51 727.049C177.51 728.771 176.62 730.476 174.89 732.067C173.16 733.658 170.624 735.104 167.428 736.322C164.231 737.54 160.436 738.506 156.26 739.165C152.083 739.824 147.606 740.163 143.086 740.163C138.565 740.163 134.089 739.824 129.912 739.165C125.735 738.506 121.94 737.54 118.744 736.322C115.547 735.104 113.012 733.658 111.282 732.067C109.552 730.476 108.661 728.771 108.661 727.049L143.086 727.049H177.51Z" fill="#7BD16D" stroke="black" stroke-width="1.31142" mask="url(#path-51-inside-8)"/>
<rect x="109.317" y="706.723" width="67.5379" height="21.6384" fill="#7BD16D"/>
<path d="M177.183 706.722C177.183 708.407 176.287 710.05 174.586 711.583C172.884 713.115 170.404 714.51 167.311 715.688C161.127 718.044 152.563 719.508 143.086 719.508C133.609 719.508 125.044 718.044 118.861 715.688C115.768 714.51 113.287 713.115 111.586 711.583C109.884 710.05 108.989 708.407 108.989 706.722C108.989 705.036 109.884 703.393 111.586 701.861C113.287 700.328 115.768 698.933 118.861 697.755C125.044 695.399 133.609 693.935 143.086 693.935C152.563 693.935 161.127 695.399 167.311 697.755C170.404 698.933 172.884 700.328 174.586 701.861C176.287 703.393 177.183 705.036 177.183 706.722Z" fill="#7BD16D" stroke="black" stroke-width="0.655708"/>
<path d="M177.185 707.377V728.032" stroke="#010000" stroke-width="0.655708"/>
<path d="M108.989 707.377V727.049" stroke="black" stroke-width="0.655708"/>
<mask id="path-56-inside-9" fill="white">
<path d="M167.367 704.92C167.367 706.119 166.747 707.306 165.542 708.414C164.338 709.521 162.573 710.528 160.347 711.376C158.122 712.223 155.479 712.896 152.572 713.355C149.664 713.814 146.547 714.05 143.4 714.05C140.253 714.05 137.136 713.814 134.228 713.355C131.321 712.896 128.679 712.223 126.453 711.376C124.228 710.528 122.462 709.521 121.258 708.414C120.053 707.306 119.434 706.119 119.434 704.92L143.4 704.92H167.367Z"/>
</mask>
<path d="M167.367 704.92C167.367 706.119 166.747 707.306 165.542 708.414C164.338 709.521 162.573 710.528 160.347 711.376C158.122 712.223 155.479 712.896 152.572 713.355C149.664 713.814 146.547 714.05 143.4 714.05C140.253 714.05 137.136 713.814 134.228 713.355C131.321 712.896 128.679 712.223 126.453 711.376C124.228 710.528 122.462 709.521 121.258 708.414C120.053 707.306 119.434 706.119 119.434 704.92L143.4 704.92H167.367Z" fill="#2393E4" stroke="black" stroke-width="0.913012" mask="url(#path-56-inside-9)"/>
<rect x="119.89" y="690.768" width="47.0201" height="15.0647" fill="#2393E4"/>
<path d="M167.139 690.768C167.139 691.942 166.516 693.086 165.332 694.153C164.147 695.219 162.42 696.191 160.267 697.011C155.962 698.651 149.999 699.67 143.401 699.67C136.803 699.67 130.841 698.651 126.535 697.011C124.382 696.191 122.655 695.219 121.471 694.153C120.286 693.086 119.663 691.942 119.663 690.768C119.663 689.595 120.286 688.451 121.471 687.384C122.655 686.317 124.382 685.346 126.535 684.526C130.841 682.886 136.803 681.866 143.401 681.866C149.999 681.866 155.962 682.886 160.267 684.526C162.42 685.346 164.147 686.317 165.332 687.384C166.516 688.451 167.139 689.595 167.139 690.768Z" fill="#2393E4" stroke="black" stroke-width="0.456506"/>
<path d="M167.139 691.225V705.605" stroke="#010000" stroke-width="0.456506"/>
<path d="M119.661 691.225V704.92" stroke="black" stroke-width="0.456506"/>
<rect x="139.33" y="616.547" width="6.89197" height="73.9239" rx="3.44599" fill="#353535" stroke="black" stroke-width="0.90698" stroke-linecap="round"/>
<rect x="229.105" y="616.547" width="6.89197" height="81.1059" rx="3.44599" fill="#353535" stroke="black" stroke-width="0.90698" stroke-linecap="round"/>
<rect x="43.5699" y="616.547" width="6.99253" height="118.561" rx="3.49626" fill="#353535" stroke="black" stroke-width="0.90698" stroke-linecap="round"/>
<path d="M55.8745 930.355H48.4086L47.0333 934.162H44.6757L50.8645 917.142H53.4431L59.6074 934.162H57.2497L55.8745 930.355ZM55.2359 928.538L52.1415 919.893L49.0471 928.538H55.2359Z" fill="black"/>
<path d="M153.441 925.345C154.063 925.443 154.628 925.697 155.135 926.106C155.659 926.516 156.068 927.023 156.363 927.629C156.674 928.235 156.83 928.881 156.83 929.569C156.83 930.437 156.609 931.223 156.167 931.927C155.724 932.614 155.078 933.163 154.226 933.572C153.391 933.965 152.401 934.162 151.255 934.162H144.87V917.044H151.009C152.172 917.044 153.162 917.241 153.981 917.634C154.799 918.01 155.413 918.526 155.823 919.181C156.232 919.836 156.437 920.572 156.437 921.391C156.437 922.406 156.158 923.249 155.602 923.921C155.061 924.576 154.341 925.05 153.441 925.345ZM147.104 924.436H150.862C151.91 924.436 152.72 924.191 153.293 923.7C153.866 923.208 154.153 922.529 154.153 921.661C154.153 920.793 153.866 920.114 153.293 919.623C152.72 919.132 151.893 918.886 150.813 918.886H147.104V924.436ZM151.058 932.32C152.172 932.32 153.039 932.058 153.662 931.534C154.284 931.01 154.595 930.281 154.595 929.348C154.595 928.399 154.267 927.654 153.612 927.113C152.958 926.557 152.082 926.278 150.985 926.278H147.104V932.32H151.058Z" fill="black"/>
<path d="M231.743 925.591C231.743 923.921 232.119 922.423 232.872 921.096C233.625 919.754 234.649 918.706 235.942 917.953C237.252 917.2 238.701 916.823 240.289 916.823C242.155 916.823 243.785 917.273 245.176 918.174C246.568 919.074 247.583 920.351 248.221 922.005H245.545C245.07 920.974 244.382 920.18 243.482 919.623C242.598 919.066 241.533 918.788 240.289 918.788C239.094 918.788 238.021 919.066 237.072 919.623C236.122 920.18 235.377 920.974 234.837 922.005C234.297 923.02 234.027 924.215 234.027 925.591C234.027 926.95 234.297 928.145 234.837 929.176C235.377 930.191 236.122 930.977 237.072 931.534C238.021 932.091 239.094 932.369 240.289 932.369C241.533 932.369 242.598 932.099 243.482 931.558C244.382 931.002 245.07 930.208 245.545 929.176H248.221C247.583 930.813 246.568 932.082 245.176 932.983C243.785 933.867 242.155 934.309 240.289 934.309C238.701 934.309 237.252 933.941 235.942 933.204C234.649 932.451 233.625 931.411 232.872 930.085C232.119 928.759 231.743 927.261 231.743 925.591Z" fill="black"/>
<mask id="path-67-inside-10" fill="white">
<path d="M281.716 895.434C281.716 897.606 280.593 899.756 278.412 901.763C276.23 903.77 273.032 905.593 269 907.129C264.968 908.665 260.182 909.883 254.915 910.714C249.647 911.545 244.002 911.973 238.3 911.973C232.599 911.973 226.953 911.545 221.685 910.714C216.418 909.883 211.632 908.665 207.6 907.129C203.568 905.593 200.37 903.77 198.189 901.763C196.007 899.756 194.884 897.606 194.884 895.434L238.3 895.434H281.716Z"/>
</mask>
<path d="M281.716 895.434C281.716 897.606 280.593 899.756 278.412 901.763C276.23 903.77 273.032 905.593 269 907.129C264.968 908.665 260.182 909.883 254.915 910.714C249.647 911.545 244.002 911.973 238.3 911.973C232.599 911.973 226.953 911.545 221.685 910.714C216.418 909.883 211.632 908.665 207.6 907.129C203.568 905.593 200.37 903.77 198.189 901.763C196.007 899.756 194.884 897.606 194.884 895.434L238.3 895.434H281.716Z" fill="#D16D6D" stroke="black" stroke-width="1.65396" mask="url(#path-67-inside-10)"/>
<rect x="195.712" y="869.797" width="85.1787" height="27.2903" fill="#D16D6D"/>
<path d="M281.304 869.796C281.304 871.922 280.175 873.994 278.029 875.927C275.883 877.86 272.755 879.619 268.854 881.105C261.055 884.076 250.253 885.922 238.301 885.922C226.349 885.922 215.547 884.076 207.748 881.105C203.847 879.619 200.719 877.86 198.573 875.927C196.427 873.994 195.298 871.922 195.298 869.796C195.298 867.671 196.427 865.598 198.573 863.666C200.719 861.733 203.847 859.974 207.748 858.488C215.547 855.517 226.349 853.67 238.301 853.67C250.253 853.67 261.055 855.517 268.854 858.488C272.755 859.974 275.883 861.733 278.029 863.666C280.175 865.598 281.304 867.671 281.304 869.796Z" fill="#D16D6D" stroke="black" stroke-width="0.826978"/>
<path d="M281.303 870.624V896.673" stroke="#010000" stroke-width="0.826978"/>
<path d="M195.297 870.624V895.433" stroke="black" stroke-width="0.826978"/>
<mask id="path-72-inside-11" fill="white">
<path d="M182.258 897.754C182.258 899.488 181.362 901.204 179.621 902.805C177.88 904.406 175.328 905.861 172.111 907.087C168.894 908.313 165.075 909.285 160.871 909.948C156.668 910.611 152.163 910.953 147.613 910.953C143.063 910.953 138.558 910.611 134.355 909.948C130.151 909.285 126.332 908.312 123.115 907.087C119.898 905.861 117.346 904.406 115.605 902.805C113.864 901.204 112.968 899.488 112.968 897.754L147.613 897.754H182.258Z"/>
</mask>
<path d="M182.258 897.754C182.258 899.488 181.362 901.204 179.621 902.805C177.88 904.406 175.328 905.861 172.111 907.087C168.894 908.313 165.075 909.285 160.871 909.948C156.668 910.611 152.163 910.953 147.613 910.953C143.063 910.953 138.558 910.611 134.355 909.948C130.151 909.285 126.332 908.312 123.115 907.087C119.898 905.861 117.346 904.406 115.605 902.805C113.864 901.204 112.968 899.488 112.968 897.754L147.613 897.754H182.258Z" fill="#7BD16D" stroke="black" stroke-width="1.31982" mask="url(#path-72-inside-11)"/>
<rect x="113.628" y="877.298" width="67.9709" height="21.7771" fill="#7BD16D"/>
<path d="M181.929 877.297C181.929 878.993 181.027 880.647 179.315 882.19C177.603 883.732 175.106 885.136 171.994 886.322C165.77 888.692 157.151 890.166 147.613 890.166C138.076 890.166 129.456 888.692 123.233 886.322C120.12 885.136 117.624 883.732 115.911 882.19C114.199 880.647 113.298 878.993 113.298 877.297C113.298 875.601 114.199 873.947 115.911 872.405C117.624 870.863 120.12 869.459 123.233 868.273C129.456 865.902 138.076 864.429 147.613 864.429C157.151 864.429 165.77 865.902 171.994 868.273C175.106 869.459 177.603 870.863 179.315 872.405C181.027 873.947 181.929 875.601 181.929 877.297Z" fill="#7BD16D" stroke="black" stroke-width="0.659911"/>
<path d="M181.93 877.957V898.744" stroke="#010000" stroke-width="0.659911"/>
<path d="M113.297 877.957V897.754" stroke="black" stroke-width="0.659911"/>
<mask id="path-77-inside-12" fill="white">
<path d="M75.2404 901.986C75.2404 903.193 74.6165 904.388 73.4043 905.503C72.1922 906.618 70.4155 907.631 68.1757 908.484C65.9359 909.337 63.2769 910.014 60.3505 910.476C57.4241 910.937 54.2877 911.175 51.1201 911.175C47.9526 911.175 44.8161 910.937 41.8897 910.476C38.9633 910.014 36.3044 909.337 34.0646 908.484C31.8248 907.631 30.0482 906.618 28.836 905.503C27.6239 904.388 27 903.193 27 901.986L51.1202 901.986H75.2404Z"/>
</mask>
<path d="M75.2404 901.986C75.2404 903.193 74.6165 904.388 73.4043 905.503C72.1922 906.618 70.4155 907.631 68.1757 908.484C65.9359 909.337 63.2769 910.014 60.3505 910.476C57.4241 910.937 54.2877 911.175 51.1201 911.175C47.9526 911.175 44.8161 910.937 41.8897 910.476C38.9633 910.014 36.3044 909.337 34.0646 908.484C31.8248 907.631 30.0482 906.618 28.836 905.503C27.6239 904.388 27 903.193 27 901.986L51.1202 901.986H75.2404Z" fill="#2393E4" stroke="black" stroke-width="0.918864" mask="url(#path-77-inside-12)"/>
<rect x="27.459" y="887.744" width="47.3215" height="15.1613" fill="#2393E4"/>
<path d="M75.0116 887.744C75.0116 888.925 74.3843 890.076 73.1921 891.15C72 892.223 70.2621 893.201 68.0949 894.027C63.7622 895.677 57.7612 896.703 51.1212 896.703C44.4812 896.703 38.4801 895.677 34.1474 894.027C31.9802 893.201 30.2423 892.223 29.0502 891.15C27.858 890.076 27.2307 888.925 27.2307 887.744C27.2307 886.563 27.858 885.412 29.0502 884.338C30.2423 883.264 31.9802 882.287 34.1474 881.461C38.4801 879.811 44.4812 878.785 51.1212 878.785C57.7612 878.785 63.7622 879.811 68.0949 881.461C70.2621 882.287 72 883.264 73.1921 884.338C74.3843 885.412 75.0116 886.563 75.0116 887.744Z" fill="#2393E4" stroke="black" stroke-width="0.459432"/>
<path d="M75.0117 888.203V902.675" stroke="#010000" stroke-width="0.459432"/>
<path d="M27.2295 888.203V901.986" stroke="black" stroke-width="0.459432"/>
<rect x="143.397" y="786.544" width="6.93615" height="91.2632" rx="3.46808" fill="#353535" stroke="black" stroke-width="0.912793" stroke-linecap="round"/>
<rect x="234.182" y="786.544" width="6.93615" height="81.6258" rx="3.46808" fill="#353535" stroke="black" stroke-width="0.912793" stroke-linecap="round"/>
<rect x="47.0221" y="786.544" width="6.93615" height="102.105" rx="3.46808" fill="#353535" stroke="black" stroke-width="0.912793" stroke-linecap="round"/>
<path d="M380.794 930.061H373.09L371.671 933.989H369.239L375.624 916.428H378.285L384.646 933.989H382.213L380.794 930.061ZM380.135 928.186L376.942 919.266L373.749 928.186H380.135Z" fill="black"/>
<path d="M481.466 924.892C482.108 924.993 482.691 925.255 483.215 925.677C483.755 926.1 484.178 926.624 484.482 927.249C484.803 927.874 484.963 928.541 484.963 929.251C484.963 930.146 484.735 930.957 484.279 931.683C483.823 932.393 483.155 932.959 482.277 933.381C481.415 933.787 480.393 933.989 479.211 933.989H472.622V916.327H478.957C480.157 916.327 481.179 916.529 482.024 916.935C482.868 917.323 483.502 917.856 483.924 918.531C484.346 919.207 484.558 919.967 484.558 920.812C484.558 921.859 484.27 922.729 483.696 923.422C483.139 924.098 482.395 924.588 481.466 924.892ZM474.928 923.954H478.805C479.887 923.954 480.723 923.701 481.314 923.194C481.905 922.687 482.201 921.986 482.201 921.091C482.201 920.195 481.905 919.494 481.314 918.987C480.723 918.481 479.87 918.227 478.755 918.227H474.928V923.954ZM479.008 932.089C480.157 932.089 481.052 931.818 481.694 931.278C482.336 930.737 482.657 929.985 482.657 929.022C482.657 928.043 482.319 927.274 481.643 926.716C480.968 926.142 480.064 925.855 478.932 925.855H474.928V932.089H479.008Z" fill="black"/>
<path d="M562.263 925.145C562.263 923.422 562.652 921.876 563.429 920.508C564.206 919.123 565.262 918.041 566.597 917.264C567.948 916.487 569.443 916.099 571.082 916.099C573.008 916.099 574.689 916.563 576.125 917.492C577.561 918.422 578.608 919.739 579.267 921.446H576.505C576.015 920.381 575.306 919.562 574.376 918.987C573.464 918.413 572.366 918.126 571.082 918.126C569.849 918.126 568.742 918.413 567.762 918.987C566.783 919.562 566.014 920.381 565.456 921.446C564.899 922.493 564.62 923.726 564.62 925.145C564.62 926.548 564.899 927.781 565.456 928.845C566.014 929.892 566.783 930.703 567.762 931.278C568.742 931.852 569.849 932.139 571.082 932.139C572.366 932.139 573.464 931.861 574.376 931.303C575.306 930.729 576.015 929.909 576.505 928.845H579.267C578.608 930.534 577.561 931.844 576.125 932.773C574.689 933.685 573.008 934.141 571.082 934.141C569.443 934.141 567.948 933.761 566.597 933.001C565.262 932.224 564.206 931.151 563.429 929.783C562.652 928.414 562.263 926.868 562.263 925.145Z" fill="black"/>
<mask id="path-88-inside-13" fill="white">
<path d="M613.828 893.887C613.828 896.128 612.67 898.347 610.418 900.418C608.167 902.488 604.867 904.369 600.707 905.954C596.547 907.539 591.608 908.796 586.173 909.654C580.738 910.511 574.912 910.953 569.029 910.953C563.146 910.953 557.321 910.511 551.885 909.654C546.45 908.796 541.512 907.539 537.352 905.954C533.192 904.369 529.892 902.488 527.641 900.417C525.389 898.347 524.23 896.128 524.23 893.887L569.029 893.887H613.828Z"/>
</mask>
<path d="M613.828 893.887C613.828 896.128 612.67 898.347 610.418 900.418C608.167 902.488 604.867 904.369 600.707 905.954C596.547 907.539 591.608 908.796 586.173 909.654C580.738 910.511 574.912 910.953 569.029 910.953C563.146 910.953 557.321 910.511 551.885 909.654C546.45 908.796 541.512 907.539 537.352 905.954C533.192 904.369 529.892 902.488 527.641 900.417C525.389 898.347 524.23 896.128 524.23 893.887L569.029 893.887H613.828Z" fill="#D16D6D" stroke="black" stroke-width="1.70663" mask="url(#path-88-inside-13)"/>
<rect x="525.085" y="867.434" width="87.8912" height="28.1593" fill="#D16D6D"/>
<path d="M613.402 867.433C613.402 869.627 612.237 871.765 610.022 873.759C607.808 875.754 604.58 877.569 600.555 879.102C592.508 882.168 581.362 884.073 569.029 884.073C556.697 884.073 545.551 882.168 537.504 879.102C533.479 877.569 530.251 875.754 528.037 873.759C525.822 871.765 524.657 869.627 524.657 867.433C524.657 865.24 525.822 863.102 528.037 861.108C530.251 859.113 533.479 857.298 537.504 855.764C545.551 852.699 556.697 850.794 569.029 850.794C581.362 850.794 592.508 852.699 600.555 855.764C604.58 857.298 607.808 859.113 610.022 861.108C612.237 863.102 613.402 865.24 613.402 867.433Z" fill="#D16D6D" stroke="black" stroke-width="0.853313"/>
<path d="M613.401 868.287V895.166" stroke="#010000" stroke-width="0.853313"/>
<path d="M524.656 868.287V893.886" stroke="black" stroke-width="0.853313"/>
<mask id="path-93-inside-14" fill="white">
<path d="M603.98 861.476C603.98 863.265 603.055 865.036 601.258 866.688C599.462 868.34 596.829 869.842 593.509 871.106C590.19 872.371 586.249 873.374 581.911 874.058C577.574 874.743 572.926 875.095 568.231 875.095C563.536 875.095 558.888 874.743 554.551 874.058C550.213 873.374 546.272 872.371 542.953 871.106C539.633 869.842 537 868.34 535.204 866.688C533.407 865.036 532.482 863.265 532.482 861.476L568.231 861.476H603.98Z"/>
</mask>
<path d="M603.98 861.476C603.98 863.265 603.055 865.036 601.258 866.688C599.462 868.34 596.829 869.842 593.509 871.106C590.19 872.371 586.249 873.374 581.911 874.058C577.574 874.743 572.926 875.095 568.231 875.095C563.536 875.095 558.888 874.743 554.551 874.058C550.213 873.374 546.272 872.371 542.953 871.106C539.633 869.842 537 868.34 535.204 866.688C533.407 865.036 532.482 863.265 532.482 861.476L568.231 861.476H603.98Z" fill="#7BD16D" stroke="black" stroke-width="1.36185" mask="url(#path-93-inside-14)"/>
<rect x="533.163" y="840.368" width="70.1354" height="22.4706" fill="#7BD16D"/>
<path d="M603.639 840.368C603.639 842.118 602.709 843.824 600.943 845.416C599.176 847.007 596.6 848.456 593.388 849.679C586.966 852.125 578.072 853.646 568.231 853.646C558.39 853.646 549.496 852.125 543.074 849.679C539.862 848.456 537.286 847.007 535.52 845.416C533.753 843.824 532.823 842.118 532.823 840.368C532.823 838.617 533.753 836.911 535.52 835.32C537.286 833.728 539.862 832.28 543.074 831.056C549.496 828.61 558.39 827.089 568.231 827.089C578.072 827.089 586.966 828.61 593.388 831.056C596.6 832.28 599.176 833.728 600.943 835.32C602.709 836.911 603.639 838.617 603.639 840.368Z" fill="#7BD16D" stroke="black" stroke-width="0.680926"/>
<path d="M603.64 841.048V862.498" stroke="#010000" stroke-width="0.680926"/>
<path d="M532.822 841.048V861.476" stroke="black" stroke-width="0.680926"/>
<mask id="path-98-inside-15" fill="white">
<path d="M400.777 900.648C400.777 901.893 400.133 903.126 398.882 904.277C397.631 905.427 395.798 906.472 393.487 907.353C391.176 908.233 388.432 908.931 385.413 909.408C382.393 909.884 379.157 910.13 375.888 910.13C372.62 910.13 369.383 909.884 366.364 909.408C363.344 908.931 360.601 908.233 358.29 907.352C355.978 906.472 354.145 905.427 352.894 904.277C351.644 903.126 351 901.893 351 900.648L375.888 900.648H400.777Z"/>
</mask>
<path d="M400.777 900.648C400.777 901.893 400.133 903.126 398.882 904.277C397.631 905.427 395.798 906.472 393.487 907.353C391.176 908.233 388.432 908.931 385.413 909.408C382.393 909.884 379.157 910.13 375.888 910.13C372.62 910.13 369.383 909.884 366.364 909.408C363.344 908.931 360.601 908.233 358.29 907.352C355.978 906.472 354.145 905.427 352.894 904.277C351.644 903.126 351 901.893 351 900.648L375.888 900.648H400.777Z" fill="#2393E4" stroke="black" stroke-width="0.948126" mask="url(#path-98-inside-15)"/>
<rect x="351.474" y="885.952" width="48.8285" height="15.6441" fill="#2393E4"/>
<path d="M400.541 885.952C400.541 887.17 399.893 888.358 398.663 889.466C397.433 890.574 395.64 891.583 393.404 892.435C388.933 894.138 382.741 895.196 375.889 895.196C369.038 895.196 362.846 894.138 358.375 892.435C356.139 891.583 354.346 890.574 353.115 889.466C351.885 888.358 351.238 887.17 351.238 885.952C351.238 884.734 351.885 883.545 353.115 882.438C354.346 881.33 356.139 880.321 358.375 879.469C362.846 877.766 369.038 876.708 375.889 876.708C382.741 876.708 388.933 877.766 393.404 879.469C395.64 880.321 397.433 881.33 398.663 882.438C399.893 883.545 400.541 884.734 400.541 885.952Z" fill="#2393E4" stroke="black" stroke-width="0.474063"/>
<path d="M400.54 886.426V901.359" stroke="#010000" stroke-width="0.474063"/>
<path d="M351.236 886.426V900.648" stroke="black" stroke-width="0.474063"/>
<rect x="469.86" y="781.529" width="7.15704" height="122.759" rx="3.57852" fill="#353535" stroke="black" stroke-width="0.941861" stroke-linecap="round"/>
<rect x="564.331" y="781.529" width="7.15704" height="60.6075" rx="3.57852" fill="#353535" stroke="black" stroke-width="0.941861" stroke-linecap="round"/>
<rect x="371.661" y="781.529" width="7.15704" height="105.357" rx="3.57852" fill="#353535" stroke="black" stroke-width="0.941861" stroke-linecap="round"/>
<path d="M678.933 924.615H671.514L670.148 928.397H667.805L673.955 911.486H676.517L682.642 928.397H680.299L678.933 924.615ZM678.298 922.809L675.224 914.219L672.149 922.809H678.298Z" fill="black"/>
<path d="M775.877 919.637C776.495 919.734 777.056 919.986 777.561 920.393C778.081 920.8 778.488 921.304 778.781 921.906C779.09 922.508 779.244 923.15 779.244 923.834C779.244 924.696 779.025 925.477 778.585 926.176C778.146 926.86 777.504 927.405 776.658 927.811C775.828 928.202 774.844 928.397 773.705 928.397H767.36V911.389H773.461C774.616 911.389 775.6 911.584 776.414 911.974C777.227 912.348 777.837 912.861 778.244 913.512C778.651 914.162 778.854 914.894 778.854 915.708C778.854 916.716 778.577 917.554 778.024 918.221C777.487 918.872 776.772 919.344 775.877 919.637ZM769.581 918.734H773.315C774.356 918.734 775.161 918.49 775.73 918.002C776.3 917.514 776.584 916.838 776.584 915.976C776.584 915.114 776.3 914.439 775.73 913.951C775.161 913.463 774.339 913.219 773.266 913.219H769.581V918.734ZM773.51 926.567C774.616 926.567 775.478 926.307 776.096 925.786C776.715 925.265 777.024 924.541 777.024 923.614C777.024 922.671 776.698 921.93 776.048 921.394C775.397 920.84 774.527 920.564 773.437 920.564H769.581V926.567H773.51Z" fill="black"/>
<path d="M853.681 919.881C853.681 918.221 854.055 916.733 854.804 915.415C855.552 914.081 856.569 913.04 857.854 912.291C859.155 911.543 860.595 911.169 862.173 911.169C864.028 911.169 865.646 911.616 867.029 912.511C868.412 913.406 869.421 914.675 870.055 916.318H867.395C866.923 915.293 866.24 914.504 865.345 913.951C864.467 913.398 863.41 913.121 862.173 913.121C860.986 913.121 859.92 913.398 858.976 913.951C858.033 914.504 857.293 915.293 856.756 916.318C856.219 917.326 855.951 918.514 855.951 919.881C855.951 921.231 856.219 922.418 856.756 923.443C857.293 924.452 858.033 925.233 858.976 925.786C859.92 926.339 860.986 926.616 862.173 926.616C863.41 926.616 864.467 926.347 865.345 925.81C866.24 925.257 866.923 924.468 867.395 923.443H870.055C869.421 925.07 868.412 926.331 867.029 927.226C865.646 928.104 864.028 928.543 862.173 928.543C860.595 928.543 859.155 928.177 857.854 927.445C856.569 926.697 855.552 925.664 854.804 924.346C854.055 923.028 853.681 921.54 853.681 919.881Z" fill="black"/>
<mask id="path-109-inside-16" fill="white">
<path d="M903.337 889.743C903.337 891.901 902.221 894.038 900.053 896.032C897.885 898.026 894.708 899.837 890.702 901.363C886.696 902.89 881.94 904.1 876.706 904.926C871.472 905.752 865.862 906.177 860.197 906.177C854.532 906.177 848.922 905.752 843.688 904.926C838.454 904.1 833.699 902.89 829.693 901.363C825.687 899.837 822.509 898.026 820.341 896.032C818.173 894.038 817.058 891.901 817.058 889.743L860.197 889.743H903.337Z"/>
</mask>
<path d="M903.337 889.743C903.337 891.901 902.221 894.038 900.053 896.032C897.885 898.026 894.708 899.837 890.702 901.363C886.696 902.89 881.94 904.1 876.706 904.926C871.472 905.752 865.862 906.177 860.197 906.177C854.532 906.177 848.922 905.752 843.688 904.926C838.454 904.1 833.699 902.89 829.693 901.363C825.687 899.837 822.509 898.026 820.341 896.032C818.173 894.038 817.058 891.901 817.058 889.743L860.197 889.743H903.337Z" fill="#D16D6D" stroke="black" stroke-width="1.64342" mask="url(#path-109-inside-16)"/>
<rect x="817.881" y="864.27" width="84.636" height="27.1164" fill="#D16D6D"/>
<path d="M902.926 864.269C902.926 866.381 901.804 868.44 899.672 870.361C897.54 872.281 894.431 874.029 890.555 875.506C882.806 878.458 872.073 880.292 860.197 880.292C848.321 880.292 837.588 878.458 829.839 875.506C825.963 874.029 822.855 872.281 820.723 870.361C818.59 868.44 817.468 866.381 817.468 864.269C817.468 862.157 818.59 860.098 820.723 858.177C822.855 856.257 825.963 854.509 829.839 853.032C837.588 850.08 848.321 848.246 860.197 848.246C872.073 848.246 882.806 850.08 890.555 853.032C894.431 854.509 897.54 856.257 899.672 858.177C901.804 860.098 902.926 862.157 902.926 864.269Z" fill="#D16D6D" stroke="black" stroke-width="0.821709"/>
<path d="M902.926 865.091V890.975" stroke="#010000" stroke-width="0.821709"/>
<path d="M817.468 865.091V889.742" stroke="black" stroke-width="0.821709"/>
<mask id="path-114-inside-17" fill="white">
<path d="M893.852 858.533C893.852 860.255 892.962 861.96 891.232 863.551C889.502 865.142 886.966 866.588 883.769 867.806C880.573 869.023 876.778 869.989 872.601 870.648C868.425 871.308 863.948 871.647 859.427 871.647C854.907 871.647 850.43 871.308 846.254 870.648C842.077 869.989 838.282 869.023 835.086 867.806C831.889 866.588 829.353 865.142 827.623 863.551C825.893 861.96 825.003 860.255 825.003 858.533L859.428 858.533H893.852Z"/>
</mask>
<path d="M893.852 858.533C893.852 860.255 892.962 861.96 891.232 863.551C889.502 865.142 886.966 866.588 883.769 867.806C880.573 869.023 876.778 869.989 872.601 870.648C868.425 871.308 863.948 871.647 859.427 871.647C854.907 871.647 850.43 871.308 846.254 870.648C842.077 869.989 838.282 869.023 835.086 867.806C831.889 866.588 829.353 865.142 827.623 863.551C825.893 861.96 825.003 860.255 825.003 858.533L859.428 858.533H893.852Z" fill="#7BD16D" stroke="black" stroke-width="1.31141" mask="url(#path-114-inside-17)"/>
<rect x="825.659" y="838.206" width="67.5378" height="21.6383" fill="#7BD16D"/>
<path d="M893.524 838.206C893.524 839.891 892.629 841.534 890.927 843.067C889.226 844.599 886.746 845.994 883.653 847.173C877.469 849.528 868.904 850.992 859.428 850.992C849.951 850.992 841.386 849.528 835.202 847.173C832.109 845.994 829.629 844.599 827.928 843.067C826.226 841.534 825.331 839.891 825.331 838.206C825.331 836.521 826.226 834.877 827.928 833.345C829.629 831.813 832.109 830.417 835.202 829.239C841.386 826.884 849.951 825.42 859.428 825.42C868.904 825.42 877.469 826.884 883.653 829.239C886.746 830.417 889.226 831.813 890.927 833.345C892.629 834.877 893.524 836.521 893.524 838.206Z" fill="#7BD16D" stroke="black" stroke-width="0.655707"/>
<path d="M893.525 838.861V859.516" stroke="#010000" stroke-width="0.655707"/>
<path d="M825.33 838.861V858.533" stroke="black" stroke-width="0.655707"/>
<mask id="path-119-inside-18" fill="white">
<path d="M883.709 834.01C883.709 835.209 883.089 836.396 881.885 837.504C880.681 838.612 878.915 839.618 876.69 840.466C874.464 841.314 871.822 841.986 868.914 842.445C866.007 842.904 862.89 843.14 859.743 843.14C856.595 843.14 853.479 842.904 850.571 842.445C847.663 841.986 845.021 841.314 842.796 840.466C840.57 839.618 838.805 838.612 837.601 837.504C836.396 836.396 835.776 835.209 835.776 834.01L859.743 834.01H883.709Z"/>
</mask>
<path d="M883.709 834.01C883.709 835.209 883.089 836.396 881.885 837.504C880.681 838.612 878.915 839.618 876.69 840.466C874.464 841.314 871.822 841.986 868.914 842.445C866.007 842.904 862.89 843.14 859.743 843.14C856.595 843.14 853.479 842.904 850.571 842.445C847.663 841.986 845.021 841.314 842.796 840.466C840.57 839.618 838.805 838.612 837.601 837.504C836.396 836.396 835.776 835.209 835.776 834.01L859.743 834.01H883.709Z" fill="#2393E4" stroke="black" stroke-width="0.91301" mask="url(#path-119-inside-18)"/>
<rect x="836.232" y="819.858" width="47.02" height="15.0647" fill="#2393E4"/>
<path d="M883.482 819.858C883.482 821.031 882.859 822.175 881.674 823.242C880.49 824.309 878.763 825.28 876.609 826.101C872.304 827.741 866.342 828.76 859.744 828.76C853.146 828.76 847.183 827.741 842.878 826.101C840.725 825.28 838.998 824.309 837.814 823.242C836.629 822.175 836.006 821.031 836.006 819.858C836.006 818.685 836.629 817.541 837.814 816.474C838.998 815.407 840.725 814.436 842.878 813.615C847.183 811.975 853.146 810.956 859.744 810.956C866.342 810.956 872.304 811.975 876.609 813.615C878.763 814.436 880.49 815.407 881.674 816.474C882.859 817.541 883.482 818.685 883.482 819.858Z" fill="#2393E4" stroke="black" stroke-width="0.456505"/>
<path d="M883.482 820.314V834.694" stroke="#010000" stroke-width="0.456505"/>
<path d="M836.004 820.314V834.01" stroke="black" stroke-width="0.456505"/>
<rect x="764.7" y="781.547" width="6.89196" height="118.213" rx="3.44598" fill="#353535" stroke="black" stroke-width="0.906978" stroke-linecap="round"/>
<rect x="855.672" y="781.547" width="6.89196" height="39.2109" rx="3.44598" fill="#353535" stroke="black" stroke-width="0.906978" stroke-linecap="round"/>
<rect x="670.137" y="781.547" width="6.89196" height="118.213" rx="3.44598" fill="#353535" stroke="black" stroke-width="0.906978" stroke-linecap="round"/>
<rect x="134.166" y="439.553" width="6.89798" height="116.958" rx="3.44899" fill="#353535" stroke="black" stroke-width="0.894716" stroke-linecap="round"/>
<path d="M47.9501 580.051H40.6321L39.284 583.782H36.9731L43.0393 567.1H45.5669L51.6091 583.782H49.2981L47.9501 580.051ZM47.3242 578.27L44.2911 569.796L41.258 578.27H47.3242Z" fill="black"/>
<path d="M143.583 575.14C144.193 575.237 144.746 575.485 145.244 575.886C145.757 576.288 146.159 576.785 146.448 577.379C146.752 577.973 146.905 578.607 146.905 579.281C146.905 580.131 146.688 580.902 146.255 581.592C145.822 582.266 145.188 582.803 144.353 583.204C143.535 583.59 142.564 583.782 141.441 583.782H135.182V567.004H141.2C142.339 567.004 143.31 567.196 144.113 567.582C144.915 567.951 145.517 568.456 145.918 569.098C146.319 569.74 146.52 570.462 146.52 571.265C146.52 572.26 146.247 573.086 145.701 573.744C145.172 574.386 144.466 574.851 143.583 575.14ZM137.372 574.25H141.055C142.082 574.25 142.877 574.009 143.439 573.527C144 573.046 144.281 572.38 144.281 571.529C144.281 570.679 144 570.013 143.439 569.531C142.877 569.05 142.066 568.809 141.007 568.809H137.372V574.25ZM141.248 581.977C142.339 581.977 143.19 581.72 143.8 581.206C144.409 580.693 144.714 579.979 144.714 579.064C144.714 578.133 144.393 577.403 143.751 576.873C143.11 576.328 142.251 576.055 141.176 576.055H137.372V581.977H141.248Z" fill="black"/>
<path d="M220.336 575.381C220.336 573.744 220.705 572.276 221.443 570.976C222.181 569.66 223.184 568.633 224.452 567.894C225.736 567.156 227.156 566.787 228.713 566.787C230.543 566.787 232.139 567.228 233.503 568.111C234.868 568.994 235.863 570.246 236.488 571.866H233.865C233.399 570.855 232.725 570.077 231.842 569.531C230.976 568.986 229.933 568.713 228.713 568.713C227.542 568.713 226.49 568.986 225.56 569.531C224.629 570.077 223.899 570.855 223.369 571.866C222.839 572.861 222.575 574.033 222.575 575.381C222.575 576.713 222.839 577.884 223.369 578.896C223.899 579.891 224.629 580.661 225.56 581.206C226.49 581.752 227.542 582.025 228.713 582.025C229.933 582.025 230.976 581.76 231.842 581.231C232.725 580.685 233.399 579.907 233.865 578.896H236.488C235.863 580.5 234.868 581.744 233.503 582.627C232.139 583.493 230.543 583.927 228.713 583.927C227.156 583.927 225.736 583.566 224.452 582.843C223.184 582.105 222.181 581.086 221.443 579.786C220.705 578.486 220.336 577.018 220.336 575.381Z" fill="black"/>
<mask id="path-131-inside-19" fill="white">
<path d="M85.113 543.076C85.113 545.205 84.0122 547.313 81.8735 549.28C79.7349 551.247 76.6002 553.034 72.6484 554.539C68.6967 556.045 64.0053 557.239 58.8421 558.054C53.6789 558.868 48.145 559.288 42.5564 559.288C36.9678 559.288 31.4339 558.868 26.2707 558.054C21.1075 557.239 16.4161 556.045 12.4644 554.539C8.51269 553.034 5.37802 551.247 3.23937 549.28C1.10072 547.313 -2.04747e-05 545.205 2.85606e-10 543.076L42.5565 543.076H85.113Z"/>
</mask>
<path d="M85.113 543.076C85.113 545.205 84.0122 547.313 81.8735 549.28C79.7349 551.247 76.6002 553.034 72.6484 554.539C68.6967 556.045 64.0053 557.239 58.8421 558.054C53.6789 558.868 48.145 559.288 42.5564 559.288C36.9678 559.288 31.4339 558.868 26.2707 558.054C21.1075 557.239 16.4161 556.045 12.4644 554.539C8.51269 553.034 5.37802 551.247 3.23937 549.28C1.10072 547.313 -2.04747e-05 545.205 2.85606e-10 543.076L42.5565 543.076H85.113Z" fill="#D16D6D" stroke="black" stroke-width="1.6212" mask="url(#path-131-inside-19)"/>
<rect x="0.811523" y="517.948" width="83.4918" height="26.7498" fill="#D16D6D"/>
<path d="M84.7077 517.947C84.7077 520.03 83.6008 522.062 81.4974 523.956C79.3941 525.851 76.3278 527.575 72.5042 529.032C64.8598 531.944 54.2718 533.754 42.5565 533.754C30.8412 533.754 20.2532 531.944 12.6088 529.032C8.78518 527.575 5.71885 525.851 3.61554 523.956C1.51214 522.062 0.4053 520.03 0.4053 517.947C0.4053 515.863 1.51214 513.832 3.61554 511.938C5.71885 510.043 8.78518 508.319 12.6088 506.862C20.2532 503.95 30.8412 502.14 42.5565 502.14C54.2718 502.14 64.8598 503.95 72.5042 506.862C76.3278 508.319 79.3941 510.043 81.4974 511.938C83.6008 513.832 84.7077 515.863 84.7077 517.947Z" fill="#D16D6D" stroke="black" stroke-width="0.8106"/>
<path d="M84.707 518.757V544.291" stroke="#010000" stroke-width="0.8106"/>
<path d="M0.404297 518.757V543.075" stroke="black" stroke-width="0.8106"/>
<mask id="path-136-inside-20" fill="white">
<path d="M76.5669 513.549C76.5669 515.248 75.6885 516.93 73.9819 518.5C72.2753 520.069 69.7738 521.496 66.6204 522.697C63.467 523.898 59.7234 524.851 55.6032 525.501C51.4831 526.151 47.0672 526.486 42.6076 526.486C38.148 526.486 33.7321 526.151 29.6119 525.501C25.4918 524.851 21.7482 523.898 18.5948 522.697C15.4414 521.496 12.94 520.069 11.2334 518.5C9.52679 516.93 8.64842 515.248 8.64844 513.549L42.6077 513.549H76.5669Z"/>
</mask>
<path d="M76.5669 513.549C76.5669 515.248 75.6885 516.93 73.9819 518.5C72.2753 520.069 69.7738 521.496 66.6204 522.697C63.467 523.898 59.7234 524.851 55.6032 525.501C51.4831 526.151 47.0672 526.486 42.6076 526.486C38.148 526.486 33.7321 526.151 29.6119 525.501C25.4918 524.851 21.7482 523.898 18.5948 522.697C15.4414 521.496 12.94 520.069 11.2334 518.5C9.52679 516.93 8.64842 515.248 8.64844 513.549L42.6077 513.549H76.5669Z" fill="#7BD16D" stroke="black" stroke-width="1.29368" mask="url(#path-136-inside-20)"/>
<rect x="9.2959" y="493.498" width="66.6247" height="21.3458" fill="#7BD16D"/>
<path d="M76.2434 493.497C76.2434 495.16 75.3602 496.781 73.6817 498.293C72.0033 499.804 69.5565 501.181 66.5053 502.343C60.4052 504.667 51.9562 506.111 42.6077 506.111C33.2591 506.111 24.8101 504.667 18.71 502.343C15.6588 501.181 13.212 499.804 11.5336 498.293C9.8551 496.781 8.97186 495.16 8.97186 493.497C8.97186 491.835 9.8551 490.214 11.5336 488.702C13.212 487.19 15.6588 485.814 18.71 484.652C24.8101 482.328 33.2591 480.884 42.6077 480.884C51.9562 480.884 60.4052 482.328 66.5053 484.652C69.5565 485.814 72.0033 487.19 73.6817 488.702C75.3602 490.214 76.2434 491.835 76.2434 493.497Z" fill="#7BD16D" stroke="black" stroke-width="0.646842"/>
<path d="M76.2451 494.144V514.519" stroke="#010000" stroke-width="0.646842"/>
<path d="M8.97168 494.144V513.549" stroke="black" stroke-width="0.646842"/>
<mask id="path-141-inside-21" fill="white">
<path d="M252.747 551.528C252.747 552.711 252.135 553.882 250.947 554.975C249.759 556.068 248.018 557.06 245.822 557.897C243.627 558.733 241.02 559.397 238.152 559.849C235.284 560.302 232.209 560.535 229.104 560.535C226 560.535 222.925 560.302 220.057 559.849C217.188 559.397 214.582 558.733 212.387 557.897C210.191 557.06 208.45 556.068 207.262 554.975C206.073 553.882 205.462 552.711 205.462 551.528L229.104 551.528H252.747Z"/>
</mask>
<path d="M252.747 551.528C252.747 552.711 252.135 553.882 250.947 554.975C249.759 556.068 248.018 557.06 245.822 557.897C243.627 558.733 241.02 559.397 238.152 559.849C235.284 560.302 232.209 560.535 229.104 560.535C226 560.535 222.925 560.302 220.057 559.849C217.188 559.397 214.582 558.733 212.387 557.897C210.191 557.06 208.45 556.068 207.262 554.975C206.073 553.882 205.462 552.711 205.462 551.528L229.104 551.528H252.747Z" fill="#2393E4" stroke="black" stroke-width="0.900666" mask="url(#path-141-inside-21)"/>
<rect x="205.912" y="537.568" width="46.3843" height="14.861" fill="#2393E4"/>
<path d="M252.523 537.568C252.523 538.725 251.908 539.854 250.739 540.906C249.571 541.959 247.867 542.917 245.743 543.726C241.496 545.344 235.614 546.349 229.105 546.349C222.597 546.349 216.715 545.344 212.468 543.726C210.344 542.917 208.64 541.959 207.472 540.906C206.303 539.854 205.688 538.725 205.688 537.568C205.688 536.41 206.303 535.282 207.472 534.229C208.64 533.177 210.344 532.219 212.468 531.409C216.715 529.792 222.597 528.786 229.105 528.786C235.614 528.786 241.496 529.792 245.743 531.409C247.867 532.219 249.571 533.177 250.739 534.229C251.908 535.282 252.523 536.41 252.523 537.568Z" fill="#2393E4" stroke="black" stroke-width="0.450333"/>
<path d="M252.522 538.018V552.204" stroke="#010000" stroke-width="0.450333"/>
<path d="M205.687 538.018V551.528" stroke="black" stroke-width="0.450333"/>
<rect x="39.7001" y="439.553" width="6.79878" height="54.0313" rx="3.39939" fill="#353535" stroke="black" stroke-width="0.894716" stroke-linecap="round"/>
<rect x="225.088" y="439.553" width="6.79878" height="101.264" rx="3.39939" fill="#353535" stroke="black" stroke-width="0.894716" stroke-linecap="round"/>
<path d="M378.559 590.823H371.241L369.893 594.554H367.582L373.649 577.872H376.176L382.218 594.554H379.908L378.559 590.823ZM377.934 589.042L374.9 580.568L371.867 589.042H377.934Z" fill="black"/>
<path d="M474.192 585.912C474.802 586.009 475.356 586.257 475.853 586.658C476.367 587.06 476.768 587.557 477.057 588.151C477.362 588.745 477.514 589.379 477.514 590.053C477.514 590.903 477.298 591.674 476.864 592.364C476.431 593.038 475.797 593.575 474.963 593.976C474.144 594.362 473.173 594.554 472.05 594.554H465.791V577.776H471.809C472.949 577.776 473.92 577.968 474.722 578.354C475.524 578.723 476.126 579.228 476.527 579.87C476.929 580.512 477.129 581.234 477.129 582.037C477.129 583.032 476.856 583.858 476.311 584.516C475.781 585.158 475.075 585.623 474.192 585.912ZM467.982 585.022H471.665C472.692 585.022 473.486 584.781 474.048 584.299C474.61 583.818 474.89 583.152 474.89 582.301C474.89 581.451 474.61 580.785 474.048 580.303C473.486 579.822 472.676 579.581 471.617 579.581H467.982V585.022ZM471.857 592.749C472.949 592.749 473.799 592.492 474.409 591.978C475.019 591.465 475.324 590.751 475.324 589.836C475.324 588.905 475.003 588.175 474.361 587.645C473.719 587.1 472.86 586.827 471.785 586.827H467.982V592.749H471.857Z" fill="black"/>
<path d="M550.945 586.153C550.945 584.516 551.314 583.048 552.053 581.748C552.791 580.432 553.794 579.405 555.062 578.666C556.345 577.928 557.766 577.559 559.322 577.559C561.152 577.559 562.749 578 564.113 578.883C565.477 579.766 566.472 581.018 567.098 582.638H564.474C564.009 581.627 563.335 580.849 562.452 580.303C561.585 579.758 560.542 579.485 559.322 579.485C558.151 579.485 557.1 579.758 556.169 580.303C555.238 580.849 554.508 581.627 553.978 582.638C553.449 583.633 553.184 584.805 553.184 586.153C553.184 587.485 553.449 588.656 553.978 589.668C554.508 590.663 555.238 591.433 556.169 591.978C557.1 592.524 558.151 592.797 559.322 592.797C560.542 592.797 561.585 592.532 562.452 592.003C563.335 591.457 564.009 590.679 564.474 589.668H567.098C566.472 591.272 565.477 592.516 564.113 593.399C562.749 594.265 561.152 594.699 559.322 594.699C557.766 594.699 556.345 594.338 555.062 593.615C553.794 592.877 552.791 591.858 552.053 590.558C551.314 589.258 550.945 587.79 550.945 586.153Z" fill="black"/>
<mask id="path-151-inside-22" fill="white">
<path d="M415.722 553.848C415.722 555.977 414.622 558.085 412.483 560.052C410.344 562.019 407.21 563.806 403.258 565.311C399.306 566.817 394.615 568.011 389.451 568.826C384.288 569.64 378.754 570.06 373.166 570.06C367.577 570.06 362.043 569.64 356.88 568.826C351.717 568.011 347.026 566.817 343.074 565.311C339.122 563.806 335.987 562.019 333.849 560.052C331.71 558.085 330.609 555.977 330.609 553.848L373.166 553.848H415.722Z"/>
</mask>
<path d="M415.722 553.848C415.722 555.977 414.622 558.085 412.483 560.052C410.344 562.019 407.21 563.806 403.258 565.311C399.306 566.817 394.615 568.011 389.451 568.826C384.288 569.64 378.754 570.06 373.166 570.06C367.577 570.06 362.043 569.64 356.88 568.826C351.717 568.011 347.026 566.817 343.074 565.311C339.122 563.806 335.987 562.019 333.849 560.052C331.71 558.085 330.609 555.977 330.609 553.848L373.166 553.848H415.722Z" fill="#D16D6D" stroke="black" stroke-width="1.6212" mask="url(#path-151-inside-22)"/>
<rect x="331.421" y="528.719" width="83.4918" height="26.7498" fill="#D16D6D"/>
<path d="M415.318 528.719C415.318 530.802 414.211 532.834 412.108 534.728C410.004 536.622 406.938 538.347 403.115 539.804C395.47 542.716 384.882 544.526 373.167 544.526C361.452 544.526 350.864 542.716 343.219 539.804C339.396 538.347 336.329 536.622 334.226 534.728C332.122 532.834 331.016 530.802 331.016 528.719C331.016 526.635 332.122 524.604 334.226 522.71C336.329 520.815 339.396 519.091 343.219 517.634C350.864 514.722 361.452 512.912 373.167 512.912C384.882 512.912 395.47 514.722 403.115 517.634C406.938 519.091 410.004 520.815 412.108 522.71C414.211 524.604 415.318 526.635 415.318 528.719Z" fill="#D16D6D" stroke="black" stroke-width="0.8106"/>
<path d="M415.316 529.529V555.063" stroke="#010000" stroke-width="0.8106"/>
<path d="M331.014 529.529V553.847" stroke="black" stroke-width="0.8106"/>
<mask id="path-156-inside-23" fill="white">
<path d="M502.439 559.333C502.439 561.032 501.561 562.714 499.854 564.284C498.147 565.853 495.646 567.279 492.492 568.481C489.339 569.682 485.595 570.635 481.475 571.285C477.355 571.935 472.939 572.27 468.48 572.27C464.02 572.27 459.604 571.935 455.484 571.285C451.364 570.635 447.62 569.682 444.467 568.481C441.313 567.279 438.812 565.853 437.105 564.284C435.399 562.714 434.52 561.032 434.521 559.333L468.48 559.333H502.439Z"/>
</mask>
<path d="M502.439 559.333C502.439 561.032 501.561 562.714 499.854 564.284C498.147 565.853 495.646 567.279 492.492 568.481C489.339 569.682 485.595 570.635 481.475 571.285C477.355 571.935 472.939 572.27 468.48 572.27C464.02 572.27 459.604 571.935 455.484 571.285C451.364 570.635 447.62 569.682 444.467 568.481C441.313 567.279 438.812 565.853 437.105 564.284C435.399 562.714 434.52 561.032 434.521 559.333L468.48 559.333H502.439Z" fill="#7BD16D" stroke="black" stroke-width="1.29368" mask="url(#path-156-inside-23)"/>
<rect x="435.167" y="539.281" width="66.6247" height="21.3458" fill="#7BD16D"/>
<path d="M502.116 539.281C502.116 540.944 501.233 542.565 499.555 544.076C497.876 545.588 495.43 546.964 492.378 548.127C486.278 550.45 477.829 551.895 468.481 551.895C459.132 551.895 450.683 550.45 444.583 548.127C441.532 546.964 439.085 545.588 437.407 544.076C435.728 542.565 434.845 540.944 434.845 539.281C434.845 537.619 435.728 535.998 437.407 534.486C439.085 532.974 441.532 531.598 444.583 530.436C450.683 528.112 459.132 526.668 468.481 526.668C477.829 526.668 486.278 528.112 492.378 530.436C495.43 531.598 497.876 532.974 499.555 534.486C501.233 535.998 502.116 537.619 502.116 539.281Z" fill="#7BD16D" stroke="black" stroke-width="0.646842"/>
<path d="M502.116 539.928V560.303" stroke="#010000" stroke-width="0.646842"/>
<path d="M434.844 539.928V559.333" stroke="black" stroke-width="0.646842"/>
<rect x="464.775" y="450.325" width="6.79878" height="89.4557" rx="3.39939" fill="#353535" stroke="black" stroke-width="0.894716" stroke-linecap="round"/>
<mask id="path-162-inside-24" fill="white">
<path d="M583.356 562.3C583.356 563.483 582.745 564.654 581.557 565.747C580.368 566.84 578.627 567.832 576.432 568.669C574.236 569.505 571.63 570.169 568.761 570.621C565.893 571.074 562.819 571.307 559.714 571.307C556.609 571.307 553.535 571.074 550.666 570.621C547.798 570.169 545.191 569.505 542.996 568.669C540.801 567.832 539.059 566.84 537.871 565.747C536.683 564.654 536.071 563.483 536.071 562.3L559.714 562.3H583.356Z"/>
</mask>
<path d="M583.356 562.3C583.356 563.483 582.745 564.654 581.557 565.747C580.368 566.84 578.627 567.832 576.432 568.669C574.236 569.505 571.63 570.169 568.761 570.621C565.893 571.074 562.819 571.307 559.714 571.307C556.609 571.307 553.535 571.074 550.666 570.621C547.798 570.169 545.191 569.505 542.996 568.669C540.801 567.832 539.059 566.84 537.871 565.747C536.683 564.654 536.071 563.483 536.071 562.3L559.714 562.3H583.356Z" fill="#2393E4" stroke="black" stroke-width="0.900666" mask="url(#path-162-inside-24)"/>
<rect x="536.521" y="548.34" width="46.3843" height="14.861" fill="#2393E4"/>
<path d="M583.132 548.34C583.132 549.497 582.517 550.626 581.349 551.678C580.18 552.731 578.477 553.689 576.352 554.498C572.105 556.116 566.223 557.121 559.715 557.121C553.206 557.121 547.324 556.116 543.077 554.498C540.953 553.689 539.249 552.731 538.081 551.678C536.912 550.626 536.297 549.497 536.297 548.34C536.297 547.182 536.912 546.054 538.081 545.001C539.249 543.949 540.953 542.991 543.077 542.181C547.324 540.564 553.206 539.558 559.715 539.558C566.223 539.558 572.105 540.564 576.352 542.181C578.477 542.991 580.18 543.949 581.349 545.001C582.517 546.054 583.132 547.182 583.132 548.34Z" fill="#2393E4" stroke="black" stroke-width="0.450333"/>
<path d="M583.132 548.79V562.976" stroke="#010000" stroke-width="0.450333"/>
<path d="M536.296 548.79V562.3" stroke="black" stroke-width="0.450333"/>
<rect x="370.309" y="450.325" width="6.79878" height="80.0092" rx="3.39939" fill="#353535" stroke="black" stroke-width="0.894716" stroke-linecap="round"/>
<rect x="555.697" y="450.325" width="6.79878" height="101.264" rx="3.39939" fill="#353535" stroke="black" stroke-width="0.894716" stroke-linecap="round"/>
</svg>
