<svg width="722" height="549" viewBox="0 0 722 549" fill="none" xmlns="http://www.w3.org/2000/svg">
<g clip-path="url(#clip0)">
<path d="M620.46 218.583C588.726 93.7991 479.077 3.72284 350.372 0.109958C282.33 -1.80006 210.731 20.7665 158.601 99.7353C65.4134 240.9 164.327 338.45 233.288 384.803C266.604 407.243 296.624 434.225 322.477 464.967C369.058 520.242 458.668 588.929 565.389 481.307C642.741 403.302 641.598 301.701 620.46 218.583Z" fill="#F2F2F2"/>
<path opacity="0.1" d="M477.528 336.708L542.827 271.609L477.528 206.509L497.436 186.667L582.643 271.609L497.436 356.55L477.528 336.708Z" fill="black"/>
<path opacity="0.1" d="M291.056 276.254H317.6V249.71H291.056V276.254ZM424.307 249.71H397.763V276.254H424.307V249.71ZM344.409 276.254H370.953V249.71H344.409V276.254Z" fill="black"/>
<path opacity="0.1" d="M255.089 336.045L189.724 270.945L255.023 205.846L235.115 186.004L149.975 270.945L235.181 355.886L255.089 336.045Z" fill="black"/>
<path d="M722 499.224C722 510.219 560.375 548.331 361 548.331C161.625 548.331 0 510.219 0 499.224C0 488.229 161.625 508.515 361 508.515C560.375 508.515 722 488.229 722 499.224Z" fill="#3F3D56"/>
<path opacity="0.1" d="M722 499.224C722 510.219 560.375 548.331 361 548.331C161.625 548.331 0 510.219 0 499.224C0 488.229 161.625 508.515 361 508.515C560.375 508.515 722 488.229 722 499.224Z" fill="black"/>
<path d="M361 519.132C560.375 519.132 722 510.219 722 499.224C722 488.229 560.375 479.316 361 479.316C161.625 479.316 0 488.229 0 499.224C0 510.219 161.625 519.132 361 519.132Z" fill="#3F3D56"/>
<path d="M419.859 403.439C419.859 445.921 446.51 480.296 479.445 480.296L419.859 403.439Z" fill="#3F3D56"/>
<path d="M479.444 480.296C479.444 437.338 509.185 402.576 545.938 402.576L479.444 480.296Z" fill="#6C63FF"/>
<path d="M441.447 407.291C441.447 447.643 458.442 480.296 479.444 480.296L441.447 407.291Z" fill="#6C63FF"/>
<path d="M479.444 480.296C479.444 425.405 513.82 380.987 556.301 380.987L479.444 480.296Z" fill="#3F3D56"/>
<path d="M466.909 480.838C466.909 480.838 475.359 480.578 477.906 478.764C480.453 476.951 490.905 474.786 491.536 477.694C492.168 480.602 504.235 492.159 494.695 492.236C485.155 492.313 472.528 490.75 469.986 489.201C467.444 487.653 466.909 480.838 466.909 480.838Z" fill="#A8A8A8"/>
<path opacity="0.2" d="M494.865 491.223C485.325 491.3 472.698 489.737 470.156 488.189C468.221 487.01 467.449 482.779 467.191 480.827C467.013 480.835 466.909 480.838 466.909 480.838C466.909 480.838 467.444 487.653 469.986 489.201C472.528 490.75 485.155 492.313 494.695 492.236C497.449 492.213 498.4 491.234 498.348 489.783C497.966 490.659 496.915 491.207 494.865 491.223Z" fill="black"/>
<path d="M574.37 254.062C574.37 254.062 553.939 238.55 552.388 244.236C550.837 249.922 567.379 262.846 567.379 262.846L574.37 254.062Z" fill="#FFB9B9"/>
<path opacity="0.1" d="M574.37 254.062C574.37 254.062 553.939 238.55 552.388 244.236C550.837 249.922 567.379 262.846 567.379 262.846L574.37 254.062Z" fill="black"/>
<path d="M641.819 204.949C641.819 204.949 617.523 248.372 617.006 254.575C616.489 260.778 616.489 261.295 614.421 260.778C612.354 260.261 583.922 257.16 581.337 258.194C578.752 259.227 573.583 251.99 573.583 251.99C573.583 251.99 563.761 261.812 565.829 263.88C567.897 265.948 574.1 266.981 575.134 269.566C576.168 272.151 577.719 274.736 582.371 274.219C587.024 273.702 618.557 282.49 622.692 280.939C626.828 279.388 627.862 276.803 629.929 276.803C631.997 276.803 636.133 274.736 636.133 274.219C636.133 273.702 650.607 246.304 650.607 246.304C650.607 246.304 667.666 209.084 641.819 204.949Z" fill="#D0CDE1"/>
<path opacity="0.1" d="M641.819 204.949C641.819 204.949 617.523 248.372 617.006 254.575C616.489 260.778 616.489 261.295 614.421 260.778C612.354 260.261 583.922 257.16 581.337 258.194C578.752 259.227 573.583 251.99 573.583 251.99C573.583 251.99 563.761 261.812 565.829 263.88C567.897 265.948 574.1 266.981 575.134 269.566C576.168 272.151 577.719 274.736 582.371 274.219C587.024 273.702 618.557 282.49 622.692 280.939C626.828 279.388 627.862 276.803 629.929 276.803C631.997 276.803 636.133 274.736 636.133 274.219C636.133 273.702 650.607 246.304 650.607 246.304C650.607 246.304 667.666 209.084 641.819 204.949Z" fill="black"/>
<path d="M606.569 176.322C606.349 179.067 606.393 181.827 606.702 184.564C607.487 190.503 610.221 196.694 607.638 202.238C606.701 204.25 605.113 206.003 604.248 208.04C602.417 212.351 604.077 217.132 603.828 221.721C603.506 227.648 599.736 233.359 594.002 236.607C603.799 236.911 613.116 232.067 619.281 225.466C625.445 218.866 628.878 210.679 631.452 202.487C632.775 198.64 633.623 194.646 633.977 190.594C634.182 188.266 633.909 185.921 633.175 183.702C632.269 181.534 631.077 179.498 629.63 177.648C628.086 175.477 626.5 173.265 624.223 171.65C621.418 169.661 616.009 167.664 612.288 167.953C607.723 168.308 606.761 173.154 606.569 176.322Z" fill="#2F2E41"/>
<path d="M621.658 192.542C621.658 192.542 627.345 212.703 622.692 218.389C618.04 224.075 650.607 215.804 650.607 215.804C650.607 215.804 634.582 199.779 642.336 189.44L621.658 192.542Z" fill="#FFB9B9"/>
<path opacity="0.1" d="M621.658 192.542C621.658 192.542 627.345 212.703 622.692 218.389C618.04 224.075 650.607 215.804 650.607 215.804C650.607 215.804 634.582 199.779 642.336 189.44L621.658 192.542Z" fill="black"/>
<path d="M477.528 324.1L542.827 259L477.528 193.901L497.436 174.059L582.643 259L497.436 343.941L477.528 324.1Z" fill="#6C63FF"/>
<path d="M603.048 461.351V476.342L610.802 485.647L617.522 482.545L615.455 460.834L603.048 461.351Z" fill="#FFB9B9"/>
<path d="M606.15 475.308C606.15 475.308 604.082 468.071 600.463 473.24C596.845 478.41 593.226 489.782 591.158 490.299C589.091 490.816 574.616 506.841 589.09 506.841C603.565 506.841 608.217 500.121 608.217 500.121C608.217 500.121 622.692 494.435 622.692 493.401C622.692 492.367 620.624 473.24 619.59 473.24C618.556 473.24 618.039 476.859 615.454 476.859C612.87 476.859 606.15 475.308 606.15 475.308Z" fill="#2F2E41"/>
<path d="M637.683 463.936L637.166 477.893L649.572 483.062V462.902L637.683 463.936Z" fill="#FFB9B9"/>
<path d="M651.124 477.892C651.124 477.892 644.403 470.655 640.785 472.206C638.995 472.927 637.266 473.791 635.615 474.791C635.615 474.791 633.548 481.511 632.514 487.197C631.48 492.884 630.963 495.468 629.929 497.536C628.895 499.604 627.861 507.358 638.2 508.392C648.539 509.426 651.641 503.739 651.641 503.739L654.225 490.299C654.225 490.299 653.191 477.892 651.124 477.892Z" fill="#2F2E41"/>
<path d="M609.768 315.057C609.768 315.057 594.777 348.658 596.845 379.157C596.845 379.157 591.676 391.047 594.777 409.657C597.879 428.266 602.014 465.486 602.014 465.486C602.014 465.486 615.972 467.037 617.006 464.452C617.006 464.452 618.039 438.605 619.073 437.571C620.107 436.538 618.556 412.758 617.006 408.106C615.455 403.453 631.48 357.446 631.48 357.446L627.344 300.065L609.768 315.057Z" fill="#2F2E41"/>
<path opacity="0.1" d="M609.768 315.057C609.768 315.057 594.777 348.658 596.845 379.157C596.845 379.157 591.676 391.047 594.777 409.657C597.879 428.266 602.014 465.486 602.014 465.486C602.014 465.486 615.972 467.037 617.006 464.452C617.006 464.452 618.039 438.605 619.073 437.571C620.107 436.538 618.556 412.758 617.006 408.106C615.455 403.453 631.48 357.446 631.48 357.446L627.344 300.065L609.768 315.057Z" fill="black"/>
<path d="M605.633 312.989L615.455 334.183C615.455 334.183 620.107 382.259 622.692 388.462C622.692 388.462 623.726 406.038 628.378 411.724C633.031 417.411 636.649 467.554 636.649 467.554C636.649 467.554 649.573 471.172 650.607 467.554C651.64 463.935 654.742 439.122 654.742 439.122C654.742 439.122 655.776 417.928 650.09 403.97C644.403 390.013 656.81 339.87 656.81 339.87C656.81 339.87 669.733 315.574 651.124 295.93L605.633 312.989Z" fill="#2F2E41"/>
<path d="M633.03 198.745C644.736 198.745 654.225 189.256 654.225 177.551C654.225 165.845 644.736 156.356 633.03 156.356C621.325 156.356 611.836 165.845 611.836 177.551C611.836 189.256 621.325 198.745 633.03 198.745Z" fill="#FFB9B9"/>
<path d="M652.675 209.601C652.675 209.601 630.446 209.601 627.344 212.186C626.578 212.915 625.56 213.322 624.501 213.322C623.443 213.322 622.425 212.915 621.658 212.186C621.658 212.186 613.904 212.703 611.836 218.906C609.769 225.109 603.565 233.38 603.565 233.38C603.565 233.38 594.26 240.101 599.43 257.676C604.599 275.252 600.464 303.684 600.464 303.684C600.464 303.684 596.328 309.887 600.464 312.472C604.599 315.057 606.15 316.091 605.633 318.158C605.116 320.226 652.675 301.099 652.675 297.481C652.675 293.862 651.641 290.761 652.675 289.21C653.708 287.659 654.742 285.074 653.708 282.49C652.675 279.905 654.742 279.388 654.225 276.803C653.708 274.218 656.81 255.092 658.878 246.821C660.946 238.55 660.429 210.118 652.675 209.601Z" fill="#D0CDE1"/>
<path d="M574.37 260.265C574.37 260.265 553.939 244.753 552.388 250.439C550.837 256.126 567.379 269.049 567.379 269.049L574.37 260.265Z" fill="#FFB9B9"/>
<path d="M641.819 212.186C641.819 212.186 617.523 255.609 617.006 261.812C616.489 268.015 616.489 268.532 614.421 268.015C612.354 267.498 583.922 264.397 581.337 265.431C578.752 266.464 573.583 259.227 573.583 259.227C573.583 259.227 563.761 269.049 565.829 271.117C567.897 273.185 574.1 274.219 575.134 276.803C576.168 279.388 577.719 281.973 582.371 281.456C587.024 280.939 618.557 289.727 622.692 288.176C626.828 286.625 627.862 284.04 629.929 284.04C631.997 284.04 636.133 281.973 636.133 281.456C636.133 280.939 650.607 253.541 650.607 253.541C650.607 253.541 667.666 216.321 641.819 212.186Z" fill="#D0CDE1"/>
<path d="M622.536 191.092C622.242 188.993 621.167 187.088 620.615 185.042C620.184 183.404 620.088 181.696 620.333 180.02C620.579 178.344 621.161 176.735 622.045 175.29C625.085 170.38 631.054 168.205 635.216 164.202C635.303 166.241 636.717 167.984 638.281 169.295C639.845 170.606 641.639 171.67 642.963 173.223C644.235 174.862 645.162 176.74 645.69 178.747C646.505 181.071 646.871 183.53 646.767 185.991C646.707 187.221 646.398 188.426 645.859 189.533C645.319 190.64 644.56 191.625 643.627 192.429C642.077 193.655 639.911 194.355 639.162 196.183C638.867 197.097 638.782 198.065 638.913 199.017C639.268 204.704 639.599 210.493 638.26 216.032C636.921 221.57 633.64 226.922 628.497 229.377C632.723 229.677 637.038 229.969 641.138 228.902C645.238 227.836 649.159 225.149 650.573 221.156C651.27 219.186 651.336 216.994 652.327 215.154C654.834 210.497 661.759 210.284 665.161 206.234C666.522 204.613 667.181 202.524 667.669 200.464C670.541 188.343 668.523 175.473 664.15 163.81C662.643 159.79 660.767 155.742 657.535 152.917C654.784 150.512 651.271 149.187 647.797 148.056C642.728 146.405 637.505 145.052 632.176 144.878C629.861 144.742 627.54 145.013 625.319 145.678C623.126 146.471 621.085 147.633 619.285 149.115C610.938 155.611 605.254 165.992 606.008 176.542C606.465 182.926 609.17 188.967 612.644 194.342C613.86 196.221 616.731 200.23 619.4 199.048C621.82 197.976 622.853 193.359 622.536 191.092Z" fill="#2F2E41"/>
<path d="M291.056 263.645H317.6V237.101H291.056V263.645ZM424.307 237.101H397.763V263.645H424.307V237.101ZM344.409 263.645H370.953V237.101H344.409V263.645Z" fill="#6C63FF"/>
<path d="M136.839 157.998C149.174 157.998 159.174 150.198 159.174 140.577C159.174 130.955 149.174 123.156 136.839 123.156C124.504 123.156 114.504 130.955 114.504 140.577C114.504 150.198 124.504 157.998 136.839 157.998Z" fill="#2F2E41"/>
<path d="M140.636 260.515C140.636 260.515 160.738 261.855 164.311 259.175C167.885 256.494 183.073 262.748 184.413 266.322C185.753 269.895 162.971 270.342 159.398 270.342C155.824 270.342 138.85 275.702 138.85 275.702L140.636 260.515Z" fill="#A0616A"/>
<path d="M99.2432 468.595C99.2432 468.595 89.8751 492.219 94.7629 495.07C99.6506 497.921 150.971 495.885 150.971 495.885C150.971 495.885 159.525 490.59 149.749 486.924C149.749 486.924 141.603 486.517 136.308 483.258C131.013 480 124.904 473.89 124.904 473.89C124.904 473.89 124.496 464.93 121.238 466.966C120.263 467.608 119.433 468.448 118.802 469.43C118.171 470.412 117.752 471.515 117.572 472.668L99.2432 468.595Z" fill="#2F2E41"/>
<path opacity="0.1" d="M99.2432 468.595C99.2432 468.595 89.8751 492.219 94.7629 495.07C99.6506 497.921 150.971 495.885 150.971 495.885C150.971 495.885 159.525 490.59 149.749 486.924C149.749 486.924 141.603 486.517 136.308 483.258C131.013 480 124.904 473.89 124.904 473.89C124.904 473.89 124.496 464.93 121.238 466.966C120.263 467.608 119.433 468.448 118.802 469.43C118.171 470.412 117.752 471.515 117.572 472.668L99.2432 468.595Z" fill="black"/>
<path d="M255.089 323.436L189.724 258.337L255.023 193.237L235.115 173.396L149.975 258.337L235.181 343.278L255.089 323.436Z" fill="#6C63FF"/>
<path d="M84.7984 475.822C84.7984 475.822 74.5244 501.731 79.8848 504.858C85.2451 507.985 141.529 505.751 141.529 505.751C141.529 505.751 150.909 499.944 140.189 495.924C140.189 495.924 131.255 495.477 125.448 491.903C119.641 488.33 112.94 481.629 112.94 481.629C112.94 481.629 112.494 471.802 108.92 474.036C107.851 474.74 106.941 475.66 106.249 476.737C105.556 477.814 105.097 479.024 104.9 480.289L84.7984 475.822Z" fill="#2F2E41"/>
<path d="M137.509 311.438L131.255 367.722C131.255 367.722 129.022 394.524 122.321 400.331C122.321 400.331 122.321 408.818 120.088 411.498L116.961 446.787C116.961 446.787 121.428 459.741 120.981 461.975C120.535 464.208 122.768 471.355 122.321 472.249C121.875 473.142 100.88 472.249 100.88 472.249L105.347 400.331L119.194 300.271L137.509 311.438Z" fill="#2F2E41"/>
<path opacity="0.1" d="M137.509 311.438L131.255 367.722C131.255 367.722 129.022 394.524 122.321 400.331C122.321 400.331 122.321 408.818 120.088 411.498L116.961 446.787C116.961 446.787 121.428 459.741 120.981 461.975C120.535 464.208 122.768 471.355 122.321 472.249C121.875 473.142 100.88 472.249 100.88 472.249L105.347 400.331L119.194 300.271L137.509 311.438Z" fill="black"/>
<path d="M126.342 309.651C126.342 309.651 121.428 355.661 119.195 365.488C117.79 371.96 116.894 378.532 116.514 385.143C116.514 385.143 116.068 399.437 112.047 403.458C110.871 404.622 109.947 406.016 109.332 407.553C108.717 409.09 108.425 410.737 108.474 412.392C108.474 412.392 104.454 457.508 106.687 462.868C108.921 468.229 111.154 472.696 108.921 476.269C106.687 479.843 82.1188 479.843 82.1188 477.163C82.1188 474.482 82.1188 472.249 80.7787 470.909C79.4386 469.569 80.7787 461.082 80.7787 461.082C80.7787 461.082 75.4184 421.326 80.332 409.711C85.2457 398.097 87.4792 366.382 87.4792 366.382C87.4792 366.382 83.9056 330.199 79.4386 324.392C74.9717 318.585 80.332 298.037 80.332 298.037L126.342 309.651Z" fill="#2F2E41"/>
<path d="M113.766 166.771C114.285 167.954 115.528 168.613 116.66 169.236C123.218 172.85 128.708 178.088 134.116 183.266C132.767 178.693 133.054 173.792 134.929 169.407C135.575 167.912 136.422 166.304 135.96 164.742C135.621 163.593 134.642 162.765 133.695 162.032C131.488 160.325 129.181 158.752 126.787 157.319C125.114 156.318 121.676 153.655 119.756 153.945C119.656 156.538 119.603 158.856 118.467 161.28C118.198 161.855 113.964 167.224 113.766 166.771Z" fill="#A0616A"/>
<path d="M136.615 172.516C146.73 172.516 154.93 164.316 154.93 154.201C154.93 144.086 146.73 135.886 136.615 135.886C126.5 135.886 118.301 144.086 118.301 154.201C118.301 164.316 126.5 172.516 136.615 172.516Z" fill="#A0616A"/>
<path d="M137.509 197.531C137.509 197.531 140.636 181.896 131.702 176.536C122.768 171.175 112.494 164.922 112.494 164.922C112.494 164.922 109.367 164.475 108.027 171.175C108.027 171.175 82.5651 176.089 79.8849 200.211C77.2048 224.332 81.6717 259.621 81.6717 259.621C81.6717 259.621 77.6515 290.443 72.7378 306.971C72.7378 306.971 68.7175 310.545 86.5854 305.184C104.453 299.824 135.722 320.372 135.722 320.372C135.722 320.372 138.849 317.245 138.849 315.012C138.849 312.778 142.422 299.824 142.422 299.824C142.422 299.824 145.549 244.88 146.889 238.627C148.229 232.373 141.529 198.424 137.509 197.531Z" fill="#575A89"/>
<path d="M132.3 156.088C133.4 155.478 134.634 155.149 135.891 155.131C137.151 155.112 138.38 154.746 139.445 154.072C141.175 152.744 141.302 150.177 142.567 148.401C144.399 145.83 148.055 145.52 151.21 145.649C153.14 145.727 155.218 145.843 156.843 144.799C158.511 143.727 159.267 141.709 159.83 139.807C160.495 137.559 160.925 134.809 159.277 133.142C158.132 131.984 156.325 131.755 155.054 130.738C153.735 129.684 153.193 127.968 152.476 126.439C151.661 124.577 150.371 122.961 148.735 121.753C146.337 120.087 143.273 119.713 140.352 119.744C137.431 119.775 134.498 120.16 131.6 119.801C129.225 119.507 126.857 118.717 124.489 119.068C121.473 119.514 118.977 121.79 117.491 124.452C116.004 127.115 115.366 130.154 114.748 133.14L113.066 141.261C112.544 143.78 112.02 146.366 112.423 148.907C113.258 154.173 117.916 158.36 118.237 163.683C118.543 162.213 119.208 160.842 120.175 159.693C121.141 158.544 122.377 157.653 123.773 157.099C124.123 156.928 124.52 156.88 124.901 156.962C125.364 157.11 125.634 157.573 125.926 157.961C126.691 158.978 129.095 160.522 130.458 159.8C131.677 159.154 130.767 157.127 132.3 156.088Z" fill="#2F2E41"/>
<path d="M86.1391 239.52C86.1391 239.52 83.0122 259.175 95.9664 257.388C95.9664 257.388 102.667 256.494 103.56 257.388C104.454 258.281 137.509 252.474 141.976 247.561C141.976 247.561 147.336 245.774 150.017 248.454C152.697 251.134 179.499 253.814 171.458 245.774C163.418 237.733 150.91 235.947 150.91 235.947L133.936 236.84C133.936 236.84 125.002 239.52 119.641 236.84C114.281 234.16 99.0933 235.053 99.0933 235.053L86.1391 239.52Z" fill="#A0616A"/>
<path d="M104.454 177.429C104.454 177.429 84.3525 179.663 84.3525 208.698V245.774C84.3525 245.774 95.5199 240.86 97.7534 241.307C99.9869 241.753 108.921 235.5 108.921 235.5C108.921 235.5 119.195 211.378 118.301 204.678C117.408 197.977 117.855 178.323 104.454 177.429Z" fill="#575A89"/>
<path d="M136.615 151.744C146.113 151.744 153.813 147.744 153.813 142.81C153.813 137.876 146.113 133.876 136.615 133.876C127.117 133.876 119.417 137.876 119.417 142.81C119.417 147.744 127.117 151.744 136.615 151.744Z" fill="#2F2E41"/>
<path d="M120.534 159.338C123.865 159.338 126.565 152.638 126.565 144.374C126.565 136.109 123.865 129.409 120.534 129.409C117.204 129.409 114.504 136.109 114.504 144.374C114.504 152.638 117.204 159.338 120.534 159.338Z" fill="#2F2E41"/>
</g>
<defs>
<clipPath id="clip0">
<rect width="722" height="548.331" fill="white"/>
</clipPath>
</defs>
</svg>
