<svg width="761" height="317" viewBox="0 0 761 317" fill="none" xmlns="http://www.w3.org/2000/svg">
<g clip-path="url(#clip0)">
<path d="M54.5504 274.535L37.1016 273.371L42.9178 299.545L62.693 291.402L54.5504 274.535Z" fill="#FFB9B9"/>
<path d="M214.499 225.677L173.785 186.126L150.519 204.157L104.57 259.412L109.805 267.554L165.641 229.748L203.448 279.187L239.509 261.157L214.499 225.677Z" fill="#2F2E41"/>
<path opacity="0.1" d="M214.499 225.677L173.785 186.126L150.519 204.157L104.57 259.412L109.805 267.554L165.641 229.748L203.448 279.187L239.509 261.157L214.499 225.677Z" fill="black"/>
<path d="M217.988 251.851L212.753 255.922L170.294 241.381L160.406 237.31L140.631 241.381C140.631 241.381 140.631 225.096 159.243 225.677L178.437 230.33L201.121 232.075L217.988 251.851Z" fill="#FFB9B9"/>
<path d="M255.794 294.892L242.998 303.034H227.876L157.499 276.861L54.5501 295.473L51.6416 273.371L145.866 232.076L228.458 259.412L255.794 294.892Z" fill="#2F2E41"/>
<path d="M173.202 191.361L164.478 193.106L162.576 190.888C161.071 189.132 160.118 186.971 159.835 184.675C159.553 182.38 159.954 180.052 160.988 177.984L185.416 145.994C185.416 145.994 192.396 130.29 203.447 136.688C214.498 143.086 194.141 153.555 194.141 153.555L181.927 172.749L183.09 182.637L173.202 191.361Z" fill="#FFB9B9"/>
<path d="M228.457 153.555C240.985 153.555 251.141 143.399 251.141 130.872C251.141 118.344 240.985 108.188 228.457 108.188C215.929 108.188 205.773 118.344 205.773 130.872C205.773 143.399 215.929 153.555 228.457 153.555Z" fill="#FFB9B9"/>
<path d="M218.278 147.448L228.748 172.458L253.758 161.989C253.758 161.989 245.615 142.213 245.615 141.632C245.615 141.05 218.278 147.448 218.278 147.448Z" fill="#FFB9B9"/>
<path d="M287.149 221.437C287.149 235.127 284.992 248.731 280.757 261.75L279.059 266.973L270.916 304.197L262.192 306.524L255.794 298.381L242.998 289.075L233.692 273.953L225.712 260.656L223.222 256.504L214.498 212.881L181.345 194.269L170.294 192.524L172.62 186.126L182.508 172.749L192.396 171.585L195.304 169.259L197.631 170.422L206.937 165.187L209.845 166.351L226.852 167.933L237.182 165.769L252.036 157.795L258.12 158.79L279.059 176.238C284.412 190.706 287.151 206.011 287.149 221.437Z" fill="#575A89"/>
<path d="M42.4569 283.54C42.4569 283.54 47.6664 274.711 45.466 273.68C43.2656 272.65 33.9209 268.54 33.9209 268.54L20.2171 263.999C20.2171 263.999 0.443381 234.611 0.00934375 260.167C-0.424693 285.723 14.4071 291.866 14.4071 291.866C14.4071 291.866 27.6352 320.334 35.1283 315.795C42.6215 311.255 50.1195 295.845 50.1195 295.845C50.1195 295.845 36.607 288.581 42.4569 283.54Z" fill="#2F2E41"/>
<path opacity="0.1" d="M280.804 216.371L258.702 230.912L225.712 260.656L223.223 256.503L216.243 221.606H217.988L236.019 188.453L280.804 216.371Z" fill="black"/>
<path d="M236.019 184.963L217.988 218.116H211.59L207.519 229.749L198.213 232.076L223.223 259.412L258.702 227.422L280.804 212.881L236.019 184.963Z" fill="#575A89"/>
<path d="M210.814 114.005L208.356 114.951C207.978 114.695 207.655 114.366 207.406 113.984C207.157 113.601 206.986 113.173 206.904 112.724C206.823 112.275 206.831 111.814 206.93 111.368C207.029 110.922 207.216 110.501 207.479 110.128L202.938 109.916C205.853 106.033 209.56 102.813 213.813 100.47C218.066 98.1263 222.768 96.7129 227.608 96.3228C232.448 95.9327 237.316 96.5748 241.889 98.2066C246.462 99.8385 250.637 102.423 254.137 105.789C254.343 105.077 256.598 106.462 257.518 107.867C257.827 106.708 259.941 112.31 260.688 116.27C261.034 114.952 262.365 117.08 261.199 119.123C261.938 119.015 262.271 120.905 261.7 121.958C262.508 121.578 262.372 123.834 261.495 125.341C262.648 125.239 252.401 141.143 248.252 150.437C247.048 144.902 245.693 139.073 241.808 134.95C241.148 134.249 240.425 133.611 239.703 132.973L235.799 129.527C231.258 125.519 227.128 120.573 221.08 119.075C216.924 118.046 214.295 117.813 216.561 113.13C214.514 113.984 212.603 115.254 210.538 116.047C210.566 115.393 210.854 114.66 210.814 114.005Z" fill="#2F2E41"/>
<path d="M239.799 137.56C242.048 137.56 243.87 135.737 243.87 133.489C243.87 131.24 242.048 129.417 239.799 129.417C237.55 129.417 235.728 131.24 235.728 133.489C235.728 135.737 237.55 137.56 239.799 137.56Z" fill="#FFB9B9"/>
<path d="M145.135 41.979H125.45V61.6642H145.135V41.979Z" fill="#6C63FF"/>
<path d="M157.087 50.4151H133.184V26.5117H157.087V50.4151ZM134.223 49.3759H156.048V27.551H134.223V49.3759Z" fill="#3F3D56"/>
<path d="M57.1815 121.749L51.7764 102.821L32.8478 108.226L38.2529 127.154L57.1815 121.749Z" fill="#6C63FF"/>
<path d="M52.3504 135.558L45.7871 112.573L68.7718 106.01L75.3351 128.994L52.3504 135.558ZM47.0718 113.287L53.0644 134.273L74.0504 128.28L68.0578 107.294L47.0718 113.287Z" fill="#3F3D56"/>
<path d="M52.2894 33.5891L65.7305 19.207L51.3484 5.766L37.9073 20.1481L52.2894 33.5891Z" fill="#6C63FF"/>
<path d="M37.9648 36.5607L54.2861 19.0967L71.7501 35.4179L55.4288 52.8819L37.9648 36.5607ZM54.3358 20.5656L39.4338 36.511L55.3791 51.413L70.2812 35.4676L54.3358 20.5656Z" fill="#3F3D56"/>
<path d="M721.484 3.76994H538.574V0H455.635V3.76994H271.971C270.346 3.76994 268.737 4.08996 267.236 4.71173C265.735 5.33351 264.371 6.24486 263.222 7.39375C262.074 8.54264 261.162 9.90658 260.54 11.4077C259.919 12.9088 259.599 14.5176 259.599 16.1424V266.603C259.599 268.227 259.919 269.836 260.54 271.337C261.162 272.839 262.074 274.202 263.222 275.351C264.371 276.5 265.735 277.412 267.236 278.033C268.737 278.655 270.346 278.975 271.971 278.975H721.484C724.765 278.975 727.912 277.672 730.233 275.351C732.553 273.031 733.857 269.884 733.857 266.603V16.1424C733.857 14.5176 733.536 12.9088 732.915 11.4077C732.293 9.90658 731.382 8.54264 730.233 7.39375C729.084 6.24486 727.72 5.33351 726.219 4.71173C724.718 4.08996 723.109 3.76994 721.484 3.76994Z" fill="#3F3D56"/>
<path d="M717.269 25.6357H276.187V274.451H717.269V25.6357Z" fill="#6C63FF"/>
<path d="M496.35 18.8496C498.849 18.8496 500.874 16.8242 500.874 14.3257C500.874 11.8272 498.849 9.80176 496.35 9.80176C493.852 9.80176 491.826 11.8272 491.826 14.3257C491.826 16.8242 493.852 18.8496 496.35 18.8496Z" fill="#6C63FF"/>
<path opacity="0.1" d="M591.127 274.451H276.187V25.6357L591.127 274.451Z" fill="black"/>
<path d="M345.203 255.833C368.619 255.833 387.601 236.85 387.601 213.434C387.601 190.018 368.619 171.036 345.203 171.036C321.787 171.036 302.805 190.018 302.805 213.434C302.805 236.85 321.787 255.833 345.203 255.833Z" fill="#F2F2F2"/>
<path d="M354.641 245.3C344.21 245.3 334.013 242.207 325.34 236.412C316.667 230.617 309.908 222.38 305.916 212.743C301.924 203.107 300.88 192.503 302.915 182.272C304.95 172.042 309.973 162.644 317.348 155.269C324.724 147.893 334.121 142.87 344.352 140.835C354.582 138.8 365.186 139.845 374.823 143.836C384.46 147.828 392.697 154.588 398.492 163.261C404.287 171.934 407.38 182.13 407.38 192.561C407.364 206.544 401.802 219.949 391.915 229.836C382.028 239.723 368.623 245.284 354.641 245.3ZM354.641 140.511C344.346 140.511 334.283 143.564 325.723 149.283C317.164 155.002 310.492 163.132 306.553 172.642C302.613 182.153 301.583 192.619 303.591 202.715C305.599 212.812 310.557 222.087 317.836 229.366C325.115 236.645 334.39 241.602 344.486 243.611C354.583 245.619 365.048 244.588 374.559 240.649C384.07 236.709 392.199 230.038 397.918 221.478C403.638 212.919 406.69 202.856 406.69 192.561C406.675 178.761 401.186 165.531 391.428 155.773C381.67 146.016 368.44 140.527 354.641 140.511Z" fill="#3F3D56"/>
<path d="M640.469 159.824H599.267V168.433H640.469V159.824Z" fill="#3F3D56"/>
<path d="M690.281 92.7939H549.456V96.4837H690.281V92.7939Z" fill="#3F3D56"/>
<path d="M690.281 104.478H549.456V108.168H690.281V104.478Z" fill="#3F3D56"/>
<path d="M690.281 116.162H549.456V119.852H690.281V116.162Z" fill="#3F3D56"/>
<path d="M690.281 127.846H549.456V131.536H690.281V127.846Z" fill="#3F3D56"/>
<path d="M690.281 139.53H549.456V143.22H690.281V139.53Z" fill="#3F3D56"/>
<path d="M690.28 30.6836H673.062V47.9023H690.28V30.6836Z" fill="#F2F2F2"/>
<path d="M698.275 55.8968H677.366V34.9883H698.275V55.8968ZM678.275 54.9877H697.366V35.8974H678.275V54.9877Z" fill="#3F3D56"/>
<path d="M746.241 269.927H703.194V266.826C703.194 266.745 703.178 266.665 703.148 266.591C703.117 266.516 703.071 266.448 703.014 266.391C702.957 266.334 702.889 266.289 702.815 266.258C702.74 266.227 702.66 266.211 702.579 266.211H687.821C687.74 266.211 687.66 266.227 687.585 266.258C687.511 266.289 687.443 266.334 687.386 266.391C687.329 266.448 687.283 266.516 687.252 266.591C687.222 266.665 687.206 266.745 687.206 266.826V269.927H677.981V266.826C677.981 266.745 677.965 266.665 677.934 266.591C677.904 266.516 677.858 266.448 677.801 266.391C677.744 266.334 677.676 266.289 677.602 266.258C677.527 266.227 677.447 266.211 677.366 266.211H662.607C662.527 266.211 662.447 266.227 662.372 266.258C662.297 266.289 662.23 266.334 662.173 266.391C662.115 266.448 662.07 266.516 662.039 266.591C662.008 266.665 661.993 266.745 661.993 266.826V269.927H652.768V266.826C652.768 266.745 652.752 266.665 652.721 266.591C652.69 266.516 652.645 266.448 652.588 266.391C652.531 266.334 652.463 266.289 652.389 266.258C652.314 266.227 652.234 266.211 652.153 266.211H637.394C637.314 266.211 637.234 266.227 637.159 266.258C637.084 266.289 637.017 266.334 636.96 266.391C636.902 266.448 636.857 266.516 636.826 266.591C636.795 266.665 636.779 266.745 636.779 266.826V269.927H627.555V266.826C627.555 266.745 627.539 266.665 627.508 266.591C627.477 266.516 627.432 266.448 627.375 266.391C627.318 266.334 627.25 266.289 627.175 266.258C627.101 266.227 627.021 266.211 626.94 266.211H612.181C612.1 266.211 612.02 266.227 611.946 266.258C611.871 266.289 611.803 266.334 611.746 266.391C611.689 266.448 611.644 266.516 611.613 266.591C611.582 266.665 611.566 266.745 611.566 266.826V269.927H602.342V266.826C602.342 266.745 602.326 266.665 602.295 266.591C602.264 266.516 602.219 266.448 602.162 266.391C602.105 266.334 602.037 266.289 601.962 266.258C601.888 266.227 601.808 266.211 601.727 266.211H586.968C586.887 266.211 586.807 266.227 586.733 266.258C586.658 266.289 586.59 266.334 586.533 266.391C586.476 266.448 586.431 266.516 586.4 266.591C586.369 266.665 586.353 266.745 586.353 266.826V269.927H577.129V266.826C577.129 266.745 577.113 266.665 577.082 266.591C577.051 266.516 577.006 266.448 576.949 266.391C576.892 266.334 576.824 266.289 576.749 266.258C576.675 266.227 576.595 266.211 576.514 266.211H561.755C561.674 266.211 561.594 266.227 561.52 266.258C561.445 266.289 561.377 266.334 561.32 266.391C561.263 266.448 561.218 266.516 561.187 266.591C561.156 266.665 561.14 266.745 561.14 266.826V269.927H551.916V266.826C551.916 266.745 551.9 266.665 551.869 266.591C551.838 266.516 551.793 266.448 551.736 266.391C551.679 266.334 551.611 266.289 551.536 266.258C551.462 266.227 551.382 266.211 551.301 266.211H435.689C435.609 266.211 435.529 266.227 435.454 266.258C435.379 266.289 435.312 266.334 435.255 266.391C435.197 266.448 435.152 266.516 435.121 266.591C435.09 266.665 435.074 266.745 435.074 266.826V269.927H425.85V266.826C425.85 266.745 425.834 266.665 425.803 266.591C425.772 266.516 425.727 266.448 425.67 266.391C425.613 266.334 425.545 266.289 425.471 266.258C425.396 266.227 425.316 266.211 425.235 266.211H410.476C410.396 266.211 410.316 266.227 410.241 266.258C410.166 266.289 410.099 266.334 410.042 266.391C409.984 266.448 409.939 266.516 409.908 266.591C409.877 266.665 409.861 266.745 409.861 266.826V269.927H400.637V266.826C400.637 266.745 400.621 266.665 400.59 266.591C400.559 266.516 400.514 266.448 400.457 266.391C400.4 266.334 400.332 266.289 400.257 266.258C400.183 266.227 400.103 266.211 400.022 266.211H385.263C385.182 266.211 385.102 266.227 385.028 266.258C384.953 266.289 384.885 266.334 384.828 266.391C384.771 266.448 384.726 266.516 384.695 266.591C384.664 266.665 384.648 266.745 384.648 266.826V269.927H375.424V266.826C375.424 266.745 375.408 266.665 375.377 266.591C375.346 266.516 375.301 266.448 375.244 266.391C375.187 266.334 375.119 266.289 375.044 266.258C374.97 266.227 374.89 266.211 374.809 266.211H360.05C359.969 266.211 359.889 266.227 359.815 266.258C359.74 266.289 359.672 266.334 359.615 266.391C359.558 266.448 359.513 266.516 359.482 266.591C359.451 266.665 359.435 266.745 359.435 266.826V269.927H350.211V266.826C350.211 266.745 350.195 266.665 350.164 266.591C350.133 266.516 350.088 266.448 350.031 266.391C349.974 266.334 349.906 266.289 349.831 266.258C349.757 266.227 349.677 266.211 349.596 266.211H334.837C334.756 266.211 334.676 266.227 334.602 266.258C334.527 266.289 334.459 266.334 334.402 266.391C334.345 266.448 334.3 266.516 334.269 266.591C334.238 266.665 334.222 266.745 334.222 266.826V269.927H324.998V266.826C324.998 266.745 324.982 266.665 324.951 266.591C324.92 266.516 324.875 266.448 324.818 266.391C324.76 266.334 324.693 266.289 324.618 266.258C324.543 266.227 324.464 266.211 324.383 266.211H309.624C309.543 266.211 309.463 266.227 309.389 266.258C309.314 266.289 309.246 266.334 309.189 266.391C309.132 266.448 309.087 266.516 309.056 266.591C309.025 266.665 309.009 266.745 309.009 266.826V269.927H299.785V266.826C299.785 266.745 299.769 266.665 299.738 266.591C299.707 266.516 299.662 266.448 299.604 266.391C299.547 266.334 299.48 266.289 299.405 266.258C299.33 266.227 299.25 266.211 299.17 266.211H284.411C284.33 266.211 284.25 266.227 284.175 266.258C284.101 266.289 284.033 266.334 283.976 266.391C283.919 266.448 283.873 266.516 283.843 266.591C283.812 266.665 283.796 266.745 283.796 266.826V269.927H255.508C251.594 269.927 247.84 271.482 245.072 274.25C242.304 277.018 240.749 280.772 240.749 284.686V291.36C240.749 295.274 242.304 299.028 245.072 301.796C247.84 304.564 251.594 306.119 255.508 306.119H746.241C750.155 306.119 753.909 304.564 756.677 301.796C759.445 299.028 761 295.274 761 291.36V284.686C761 280.772 759.445 277.018 756.677 274.25C753.909 271.482 750.155 269.927 746.241 269.927Z" fill="#3F3D56"/>
</g>
<defs>
<clipPath id="clip0">
<rect width="761" height="316.285" fill="white"/>
</clipPath>
</defs>
</svg>
